M48
;GenerationSoftware,Autodesk,EAGLE,9.6.2*%
;CreationDate,2024-02-28T19:53:08Z*%
FMAT,2
ICI,OFF
METRIC,TZ,000.000
T5C0.200
T4C0.400
T3C0.650
T2C0.850
T1C1.700
%
G90
M71
T1
X114000Y21590
X159720Y50800
X159720Y53340
X159720Y55880
X159720Y58420
X159720Y60960
X159720Y63500
X159720Y66040
X159720Y68580
X155240Y68580
X155240Y66040
X155240Y63500
X155240Y60960
X155240Y58420
X155240Y55880
X155240Y53340
X155240Y50800
X155240Y48260
X155240Y45720
X155240Y43180
X155240Y40640
X136860Y40640
X136860Y43180
X136860Y45720
X136860Y48260
X136860Y50800
X136860Y53340
X136860Y55880
X136860Y58420
X136860Y60960
X136860Y63500
X136860Y66040
X136860Y68580
X132380Y68580
X132380Y66040
X132380Y63500
X132380Y60960
X132380Y58420
X132380Y55880
X132380Y53340
X132380Y50800
X132380Y48260
X132380Y45720
X132380Y43180
X132380Y40640
X114000Y40640
X114000Y43180
X114000Y45720
X114000Y48260
X45420Y48260
X45420Y45720
X45420Y43180
X45420Y40640
X136860Y29210
X136860Y26670
X136860Y24130
X136860Y21590
X136860Y19050
X136860Y16510
X136860Y13970
X136860Y11430
X-300Y29210
X-300Y26670
X-300Y24130
X-300Y21590
X-300Y19050
X-300Y16510
X-300Y13970
X-300Y11430
X-300Y8890
X-300Y6350
X-300Y3810
X-300Y1270
X136860Y8890
X136860Y6350
X136860Y3810
X136860Y1270
X68280Y68580
X68280Y66040
X68280Y63500
X68280Y60960
X22560Y68580
X22560Y66040
X22560Y63500
X22560Y60960
X18080Y1270
X18080Y3810
X18080Y6350
X18080Y8890
X18080Y11430
X18080Y13970
X18080Y16510
X18080Y19050
X18080Y21590
X18080Y24130
X18080Y26670
X18080Y29210
X114000Y50800
X114000Y53340
X114000Y55880
X114000Y58420
X22560Y58420
X22560Y55880
X22560Y53340
X22560Y50800
X155240Y1270
X155240Y3810
X155240Y6350
X155240Y8890
X155240Y11430
X155240Y13970
X155240Y16510
X155240Y19050
X22560Y29210
X22560Y26670
X22560Y24130
X22560Y21590
X22560Y19050
X22560Y16510
X22560Y13970
X22560Y11430
X22560Y8890
X22560Y6350
X22560Y3810
X22560Y1270
X155240Y21590
X155240Y24130
X155240Y26670
X155240Y29210
X91140Y50800
X91140Y53340
X91140Y55880
X91140Y58420
X22560Y48260
X22560Y45720
X22560Y43180
X22560Y40640
X40940Y1270
X40940Y3810
X40940Y6350
X40940Y8890
X40940Y11430
X40940Y13970
X40940Y16510
X40940Y19050
X40940Y21590
X40940Y24130
X40940Y26670
X40940Y29210
X114000Y60960
X114000Y63500
X114000Y66040
X114000Y68580
X68280Y58420
X68280Y55880
X68280Y53340
X68280Y50800
X68280Y48260
X68280Y45720
X68280Y43180
X68280Y40640
X159720Y29210
X109520Y102870
X159720Y26670
X159720Y24130
X45420Y29210
X45420Y26670
X45420Y24130
X45420Y21590
X45420Y19050
X45420Y16510
X45420Y13970
X45420Y11430
X45420Y8890
X45420Y6350
X45420Y3810
X45420Y1270
X159720Y21590
X159720Y19050
X159720Y16510
X159720Y13970
X159720Y11430
X159720Y8890
X159720Y6350
X159720Y3810
X159720Y1270
X63800Y40640
X63800Y43180
X63800Y45720
X63800Y1270
X63800Y3810
X63800Y6350
X63800Y8890
X63800Y11430
X63800Y13970
X63800Y16510
X63800Y19050
X63800Y21590
X63800Y24130
X63800Y26670
X63800Y29210
X109520Y68580
X109520Y66040
X109520Y63500
X109520Y60960
X63800Y48260
X40940Y40640
X40940Y43180
X40940Y45720
X40940Y48260
X40940Y50800
X40940Y53340
X40940Y55880
X40940Y58420
X178100Y1270
X178100Y3810
X178100Y6350
X68280Y29210
X68280Y26670
X68280Y24130
X68280Y21590
X68280Y19050
X68280Y16510
X68280Y13970
X68280Y11430
X68280Y8890
X68280Y6350
X68280Y3810
X68280Y1270
X178100Y8890
X178100Y11430
X178100Y13970
X178100Y16510
X178100Y19050
X178100Y21590
X178100Y24130
X178100Y26670
X178100Y29210
X91140Y60960
X91140Y63500
X91140Y66040
X86660Y1270
X86660Y3810
X86660Y6350
X86660Y8890
X86660Y11430
X86660Y13970
X86660Y16510
X86660Y19050
X86660Y21590
X86660Y24130
X86660Y26670
X86660Y29210
X109520Y58420
X109520Y55880
X109520Y53340
X109520Y50800
X91140Y68580
X40940Y60960
X40940Y63500
X40940Y66040
X40940Y68580
X86660Y58420
X86660Y55880
X86660Y53340
X86660Y50800
X63800Y50800
X63800Y53340
X63800Y55880
X91140Y29210
X91140Y26670
X91140Y24130
X91140Y21590
X91140Y19050
X91140Y16510
X91140Y13970
X91140Y11430
X91140Y8890
X91140Y6350
X91140Y3810
X91140Y1270
X63800Y58420
X-300Y68580
X-300Y66040
X-300Y63500
X-300Y60960
X-300Y58420
X-300Y55880
X-300Y53340
X-300Y50800
X-300Y48260
X-300Y45720
X-300Y43180
X109520Y1270
X109520Y3810
X109520Y6350
X109520Y8890
X109520Y11430
X109520Y13970
X109520Y16510
X109520Y19050
X109520Y21590
X109520Y24130
X109520Y26670
X109520Y29210
X109520Y48260
X109520Y45720
X109520Y43180
X109520Y40640
X-300Y40640
X63800Y60960
X63800Y63500
X63800Y66040
X63800Y68580
X86660Y48260
X86660Y45720
X86660Y43180
X86660Y40640
X45420Y68580
X45420Y66040
X45420Y63500
X114000Y29210
X114000Y26670
X114000Y24130
X45420Y60960
X114000Y19050
X114000Y16510
X114000Y13970
X114000Y11430
X114000Y8890
X114000Y6350
X114000Y3810
X114000Y1270
X18080Y40640
X18080Y43180
X18080Y45720
X18080Y48260
X18080Y50800
X18080Y53340
X18080Y55880
X18080Y58420
X18080Y60960
X18080Y63500
X18080Y66040
X18080Y68580
X132380Y1270
X132380Y3810
X132380Y6350
X132380Y8890
X132380Y11430
X132380Y13970
X132380Y16510
X132380Y19050
X132380Y21590
X132380Y24130
X132380Y26670
X132380Y29210
X91140Y40640
X91140Y43180
X91140Y45720
X91140Y48260
X86660Y68580
X86660Y66040
X86660Y63500
X86660Y60960
X45420Y58420
X45420Y55880
X45420Y53340
X45420Y50800
X159720Y48260
X159720Y45720
X159720Y43180
X159720Y40640
X178100Y40640
X178100Y43180
X178100Y45720
X178100Y48260
X178100Y50800
X178100Y53340
X178100Y55880
X178100Y58420
X178100Y60960
X178100Y63500
X178100Y66040
X178100Y68580
X-300Y107950
X-300Y105410
X-300Y102870
X-300Y100330
X-300Y97790
X-300Y95250
X-300Y92710
X-300Y90170
X-300Y87630
X-300Y85090
X-300Y82550
X-300Y80010
X18080Y80010
X18080Y82550
X18080Y85090
X18080Y87630
X18080Y90170
X18080Y92710
X18080Y95250
X18080Y97790
X18080Y100330
X18080Y102870
X18080Y105410
X18080Y107950
X22560Y107950
X22560Y105410
X22560Y102870
X22560Y100330
X22560Y97790
X22560Y95250
X22560Y92710
X22560Y90170
X22560Y87630
X22560Y85090
X22560Y82550
X22560Y80010
X40940Y80010
X40940Y82550
X40940Y85090
X40940Y87630
X40940Y90170
X40940Y92710
X40940Y95250
X40940Y97790
X40940Y100330
X40940Y102870
X40940Y105410
X40940Y107950
X45420Y107950
X45420Y105410
X45420Y102870
X45420Y100330
X45420Y97790
X45420Y95250
X45420Y92710
X45420Y90170
X45420Y87630
X45420Y85090
X45420Y82550
X45420Y80010
X63800Y80010
X63800Y82550
X63800Y85090
X63800Y87630
X63800Y90170
X63800Y92710
X63800Y95250
X63800Y97790
X63800Y100330
X63800Y102870
X63800Y105410
X63800Y107950
X68280Y107950
X68280Y105410
X68280Y102870
X68280Y100330
X68280Y97790
X68280Y95250
X68280Y92710
X68280Y90170
X68280Y87630
X68280Y85090
X68280Y82550
X68280Y80010
X86660Y80010
X86660Y82550
X86660Y85090
X86660Y87630
X86660Y90170
X86660Y92710
X86660Y95250
X86660Y97790
X86660Y100330
X86660Y102870
X86660Y105410
X86660Y107950
X91140Y107950
X91140Y105410
X91140Y102870
X91140Y100330
X91140Y97790
X91140Y95250
X91140Y92710
X91140Y90170
X91140Y87630
X91140Y85090
X91140Y82550
X91140Y80010
X109520Y80010
X109520Y82550
X109520Y85090
X109520Y87630
X109520Y90170
X109520Y92710
X109520Y95250
X109520Y97790
X109520Y100330
X109520Y105410
X109520Y107950
X114000Y107950
X114000Y105410
X114000Y102870
X114000Y100330
X114000Y97790
X114000Y95250
X114000Y92710
X114000Y90170
X114000Y87630
X114000Y85090
X114000Y82550
X114000Y80010
X132380Y80010
X132380Y82550
X132380Y85090
X132380Y87630
X132380Y90170
X132380Y92710
X132380Y95250
X132380Y97790
X132380Y100330
X132380Y102870
X132380Y105410
X132380Y107950
X136860Y107950
X136860Y105410
X136860Y102870
X136860Y100330
X136860Y97790
X136860Y95250
X136860Y92710
X136860Y90170
X136860Y87630
X136860Y85090
X136860Y82550
X136860Y80010
X155240Y80010
X155240Y82550
X155240Y85090
X155240Y87630
X155240Y90170
X155240Y92710
X155240Y95250
X155240Y97790
X155240Y100330
X155240Y102870
X155240Y105410
X155240Y107950
X159720Y107950
X159720Y105410
X159720Y102870
X159720Y100330
X159720Y97790
X159720Y95250
X159720Y92710
X159720Y90170
X159720Y87630
X159720Y85090
X159720Y82550
X159720Y80010
X178100Y80010
X178100Y82550
X178100Y85090
X178100Y87630
X178100Y90170
X178100Y92710
X178100Y95250
X178100Y97790
X178100Y100330
X178100Y102870
X178100Y105410
X178100Y107950
T2
X16510Y45720
X16510Y43180
X16510Y48260
X16510Y40640
X16510Y58420
X16510Y63500
X16510Y60960
X16510Y66040
X16510Y68580
X24130Y55880
X24130Y58420
X24130Y53340
X24130Y63500
X24130Y66040
X24130Y60960
X24130Y68580
X24130Y50800
X24130Y45720
X24130Y48260
X24130Y43180
X24130Y40640
X39370Y53340
X39370Y50800
X39370Y55880
X39370Y45720
X39370Y43180
X39370Y48260
X39370Y40640
X39370Y58420
X39370Y63500
X39370Y60960
X39370Y66040
X39370Y68580
X46990Y55880
X46990Y58420
X46990Y53340
X46990Y63500
X46990Y66040
X46990Y60960
X46990Y68580
X46990Y50800
X46990Y45720
X46990Y48260
X46990Y43180
X46990Y40640
X62230Y53340
X62230Y50800
X62230Y55880
X62230Y45720
X62230Y43180
X62230Y48260
X62230Y40640
X62230Y58420
X62230Y63500
X62230Y60960
X62230Y66040
X62230Y68580
X69850Y55880
X69850Y58420
X69850Y53340
X69850Y63500
X69850Y66040
X69850Y60960
X69850Y68580
X69850Y50800
X69850Y45720
X69850Y48260
X69850Y43180
X69850Y40640
X85090Y53340
X85090Y50800
X85090Y55880
X130810Y58420
X85090Y43180
X85090Y48260
X85090Y40640
X85090Y58420
X85090Y63500
X85090Y60960
X85090Y66040
X85090Y68580
X92710Y55880
X92710Y58420
X92710Y53340
X92710Y63500
X92710Y66040
X92710Y60960
X92710Y68580
X92710Y50800
X92710Y45720
X92710Y48260
X92710Y43180
X92710Y40640
X107950Y53340
X107950Y50800
X107950Y55880
X107950Y45720
X107950Y43180
X107950Y48260
X107950Y40640
X107950Y58420
X107950Y63500
X107950Y60960
X107950Y66040
X107950Y68580
X115570Y55880
X115570Y58420
X115570Y53340
X115570Y63500
X115570Y66040
X115570Y60960
X115570Y68580
X115570Y50800
X115570Y45720
X115570Y48260
X115570Y43180
X115570Y40640
X130810Y53340
X130810Y50800
X130810Y55880
X130810Y45720
X130810Y43180
X130810Y48260
X130810Y40640
X130810Y63500
X130810Y60960
X130810Y66040
X130810Y68580
X138430Y55880
X138430Y58420
X138430Y53340
X138430Y63500
X138430Y66040
X138430Y60960
X138430Y68580
X138430Y50800
X138430Y45720
X138430Y48260
X138430Y43180
X138430Y40640
X153670Y53340
X153670Y50800
X153670Y55880
X153670Y45720
X153670Y43180
X153670Y48260
X153670Y40640
X153670Y58420
X153670Y63500
X153670Y60960
X153670Y66040
X153670Y68580
X161290Y55880
X161290Y58420
X161290Y53340
X161290Y63500
X161290Y66040
X161290Y60960
X161290Y68580
X161290Y50800
X161290Y45720
X161290Y48260
X161290Y43180
X161290Y40640
X1270Y16510
X1270Y19050
X1270Y13970
X1270Y24130
X176530Y53340
X176530Y50800
X176530Y55880
X176530Y45720
X176530Y43180
X176530Y48260
X176530Y40640
X176530Y58420
X176530Y63500
X176530Y60960
X176530Y66040
X176530Y68580
X1270Y26670
X1270Y21590
X1270Y29210
X1270Y11430
X1270Y6350
X1270Y8890
X1270Y3810
X1270Y1270
X16510Y13970
X16510Y11430
X16510Y16510
X16510Y6350
X1270Y95250
X1270Y97790
X1270Y92710
X1270Y102870
X1270Y105410
X1270Y100330
X1270Y107950
X1270Y90170
X1270Y85090
X1270Y87630
X1270Y82550
X1270Y80010
X16510Y3810
X16510Y8890
X16510Y1270
X16510Y19050
X16510Y24130
X16510Y21590
X16510Y26670
X16510Y29210
X24130Y16510
X24130Y19050
X24130Y13970
X24130Y24130
X16510Y92710
X16510Y90170
X16510Y95250
X16510Y85090
X16510Y82550
X16510Y87630
X16510Y80010
X16510Y97790
X16510Y102870
X16510Y100330
X16510Y105410
X16510Y107950
X24130Y26670
X24130Y21590
X24130Y29210
X24130Y11430
X24130Y6350
X24130Y8890
X24130Y3810
X24130Y1270
X39370Y13970
X39370Y11430
X39370Y16510
X39370Y6350
X24130Y95250
X24130Y97790
X24130Y92710
X24130Y102870
X24130Y105410
X24130Y100330
X24130Y107950
X24130Y90170
X24130Y85090
X24130Y87630
X24130Y82550
X24130Y80010
X39370Y3810
X39370Y8890
X39370Y1270
X39370Y19050
X39370Y24130
X39370Y21590
X39370Y26670
X39370Y29210
X46990Y16510
X46990Y19050
X46990Y13970
X46990Y24130
X39370Y92710
X39370Y90170
X39370Y95250
X39370Y85090
X39370Y82550
X39370Y87630
X39370Y80010
X39370Y97790
X39370Y102870
X39370Y100330
X39370Y105410
X39370Y107950
X46990Y26670
X46990Y21590
X46990Y29210
X46990Y11430
X46990Y6350
X46990Y3810
X46990Y1270
X62230Y13970
X62230Y11430
X62230Y16510
X62230Y6350
X62230Y3810
X46990Y95250
X46990Y97790
X46990Y92710
X46990Y102870
X46990Y105410
X46990Y100330
X46990Y107950
X46990Y90170
X46990Y85090
X46990Y87630
X46990Y82550
X46990Y80010
X62230Y8890
X62230Y1270
X62230Y19050
X62230Y24130
X62230Y21590
X62230Y26670
X62230Y29210
X69850Y16510
X69850Y19050
X69850Y13970
X69850Y24130
X69850Y26670
X62230Y92710
X62230Y90170
X62230Y95250
X62230Y85090
X62230Y82550
X62230Y87630
X62230Y80010
X62230Y97790
X62230Y102870
X62230Y100330
X62230Y105410
X62230Y107950
X69850Y21590
X69850Y29210
X69850Y11430
X69850Y6350
X69850Y8890
X69850Y3810
X69850Y1270
X85090Y13970
X85090Y11430
X85090Y16510
X85090Y6350
X85090Y3810
X69850Y95250
X69850Y97790
X69850Y92710
X69850Y102870
X69850Y105410
X69850Y100330
X69850Y107950
X69850Y90170
X69850Y85090
X69850Y87630
X69850Y82550
X69850Y80010
X85090Y8890
X85090Y1270
X85090Y19050
X85090Y24130
X85090Y21590
X85090Y26670
X85090Y29210
X92710Y16510
X92710Y19050
X92710Y13970
X92710Y24130
X92710Y26670
X85090Y92710
X85090Y90170
X85090Y95250
X85090Y85090
X85090Y82550
X85090Y87630
X85090Y80010
X85090Y97790
X85090Y102870
X85090Y100330
X85090Y105410
X85090Y107950
X92710Y21590
X92710Y29210
X92710Y11430
X92710Y6350
X92710Y8890
X92710Y3810
X92710Y1270
X107950Y13970
X107950Y11430
X107950Y16510
X107950Y6350
X107950Y3810
X92710Y95250
X92710Y97790
X92710Y92710
X92710Y102870
X92710Y105410
X92710Y100330
X92710Y107950
X92710Y90170
X92710Y85090
X92710Y87630
X92710Y82550
X92710Y80010
X107950Y8890
X107950Y1270
X107950Y19050
X107950Y24130
X107950Y21590
X107950Y26670
X107950Y29210
X115570Y16510
X115570Y19050
X115570Y13970
X115570Y24130
X115570Y26670
X107950Y92710
X107950Y90170
X107950Y95250
X107950Y85090
X107950Y82550
X107950Y87630
X107950Y80010
X107950Y97790
X107950Y102870
X107950Y100330
X107950Y105410
X107950Y107950
X115570Y21590
X115570Y29210
X115570Y11430
X115570Y6350
X115570Y8890
X115570Y3810
X115570Y1270
X46990Y8890
X130810Y13970
X85090Y45720
X130810Y11430
X130810Y16510
X115570Y95250
X115570Y97790
X115570Y92710
X115570Y102870
X115570Y105410
X115570Y100330
X115570Y107950
X115570Y90170
X115570Y85090
X115570Y87630
X115570Y82550
X115570Y80010
X130810Y6350
X130810Y3810
X130810Y8890
X130810Y1270
X130810Y19050
X130810Y24130
X130810Y21590
X130810Y26670
X130810Y29210
X138430Y16510
X138430Y19050
X138430Y13970
X130810Y92710
X130810Y90170
X130810Y95250
X130810Y85090
X130810Y82550
X130810Y87630
X130810Y80010
X130810Y97790
X130810Y102870
X130810Y100330
X130810Y105410
X130810Y107950
X138430Y24130
X138430Y26670
X138430Y21590
X138430Y29210
X138430Y11430
X138430Y6350
X138430Y8890
X138430Y3810
X138430Y1270
X153670Y13970
X153670Y11430
X153670Y16510
X138430Y95250
X138430Y97790
X138430Y92710
X138430Y102870
X138430Y105410
X138430Y100330
X138430Y107950
X138430Y90170
X138430Y85090
X138430Y87630
X138430Y82550
X138430Y80010
X153670Y6350
X153670Y3810
X153670Y8890
X153670Y1270
X153670Y19050
X153670Y24130
X153670Y21590
X153670Y26670
X153670Y29210
X161290Y16510
X161290Y19050
X161290Y13970
X153670Y92710
X153670Y90170
X153670Y95250
X153670Y85090
X153670Y82550
X153670Y87630
X153670Y80010
X153670Y97790
X153670Y102870
X153670Y100330
X153670Y105410
X153670Y107950
X161290Y24130
X161290Y26670
X161290Y21590
X161290Y29210
X161290Y11430
X161290Y6350
X161290Y8890
X161290Y3810
X161290Y1270
X176530Y13970
X176530Y11430
X176530Y16510
X161290Y95250
X161290Y97790
X161290Y92710
X161290Y102870
X161290Y105410
X161290Y100330
X161290Y107950
X161290Y90170
X161290Y85090
X161290Y87630
X161290Y82550
X161290Y80010
X176530Y6350
X176530Y3810
X176530Y8890
X176530Y1270
X176530Y19050
X176530Y24130
X176530Y21590
X176530Y26670
X176530Y29210
X1270Y55880
X1270Y58420
X1270Y53340
X176530Y92710
X176530Y90170
X176530Y95250
X176530Y85090
X176530Y82550
X176530Y87630
X176530Y80010
X176530Y97790
X176530Y102870
X176530Y100330
X176530Y105410
X176530Y107950
X1270Y63500
X1270Y66040
X1270Y60960
X1270Y68580
X1270Y50800
X1270Y45720
X1270Y48260
X1270Y43180
X1270Y40640
X16510Y53340
X16510Y50800
X16510Y55880
T3
X166020Y67485
X171800Y67485
X143160Y67485
X148940Y67485
X120300Y67485
X126080Y67485
X97440Y67485
X103220Y67485
X74580Y67485
X80360Y67485
X51720Y67485
X57500Y67485
X34640Y67485
X6000Y67485
X11780Y67485
X126080Y28115
X97440Y28115
X103220Y28115
X51720Y28115
X28860Y28115
X57500Y28115
X74580Y28115
X80360Y28115
X166020Y28115
X171800Y28115
X143160Y28115
X148940Y28115
X120300Y28115
X28860Y67485
X34640Y28115
X6000Y28115
X11780Y28115
X166020Y106855
X171800Y106855
X143160Y106855
X148940Y106855
X120300Y106855
X126080Y106855
X97440Y106855
X103220Y106855
X74580Y106855
X80360Y106855
X51720Y106855
X57500Y106855
X28860Y106855
X34640Y106855
X6000Y106855
X11780Y106855
T4
X13208Y106325
X127508Y110505
X118872Y110505
X118872Y106325
X127508Y106325
X150368Y71135
X141732Y71135
X141732Y66955
X150368Y66955
X13208Y71135
X173228Y27585
X164592Y31765
X173228Y31765
X150368Y27585
X141732Y27585
X141732Y31765
X150368Y31765
X36068Y27585
X27432Y27585
X27432Y31765
X81788Y110505
X73152Y110505
X73152Y106325
X81788Y106325
X164592Y27585
X58928Y110505
X50292Y110505
X50292Y106325
X36068Y31765
X13208Y27585
X4572Y27585
X4572Y31765
X13208Y31765
X58928Y106325
X81788Y31765
X58928Y27585
X50292Y27585
X127508Y27585
X118872Y27585
X118872Y31765
X150368Y110505
X141732Y110505
X141732Y106325
X150368Y106325
X127508Y31765
X81788Y71135
X73152Y71135
X73152Y66955
X36068Y110505
X27432Y110505
X27432Y106325
X36068Y106325
X81788Y66955
X58928Y66955
X50292Y66955
X50292Y71135
X50292Y31765
X58928Y31765
X104648Y71135
X96012Y71135
X96012Y66955
X104648Y66955
X13208Y66955
X4572Y66955
X173228Y71135
X164592Y71135
X164592Y66955
X173228Y66955
X4572Y71135
X13208Y110505
X4572Y110505
X4572Y106325
X127508Y71135
X118872Y71135
X118872Y66955
X127508Y66955
X104648Y110505
X96012Y110505
X96012Y106325
X104648Y106325
X58928Y71135
X36068Y66955
X27432Y66955
X27432Y71135
X36068Y71135
X104648Y27585
X96012Y27585
X96012Y31765
X104648Y31765
X81788Y27585
X73152Y27585
X73152Y31765
X173228Y110505
X164592Y110505
X164592Y106325
X173228Y106325
T5
X57048Y53264
X50546Y60706
X60312Y56642
X58420Y47498
X52832Y40259
X56388Y40259
X51943Y52959
X51943Y48260
X57277Y48768
X54204Y52934
X51943Y50902
X51308Y54102
X53340Y59182
X52908Y57734
X50800Y64008
X59919Y71882
X58115Y71907
X51079Y71907
X49428Y71907
X50698Y65684
X58395Y65049
X59919Y62763
X59919Y67310
X54610Y62459
X58293Y56007
X59220Y56921
X55639Y59385
X53911Y63665
X55880Y67310
X59944Y67818
X52959Y67183
X51943Y68707
X56870Y67971
X58801Y46863
X53746Y43409
X50419Y53594
X55001Y62144
X52070Y49511
X53035Y48387
X54610Y53340
X58801Y50673
X58356Y54229
X56210Y54864
X50165Y64008
X59182Y56388
X56007Y48260
X56947Y43815
X59563Y61798
X55499Y48260
X54991Y48260
X58801Y49530
X50292Y49149
X50292Y48695
X52197Y50419
X52197Y49965
X60071Y47665
X57023Y48260
X57785Y43307
X56537Y48260
X57379Y42672
X53445Y53457
X53467Y57912
X52984Y53257
X53086Y56769
X53975Y53340
X53975Y59309
X53848Y48133
X50292Y47828
X55572Y53213
X59436Y62738
X55118Y53213
X58928Y62738
X52070Y51435
X54356Y48387
X57150Y51054
X56642Y53467
X52019Y53492
X50038Y59309
X52451Y53264
X50419Y58039
X58928Y65024
X53975Y67310
X59436Y65024
X54483Y67310
X48641Y42672
X50800Y61214
X60720Y67870
X58801Y49987
X62865Y70231
X49212Y71311
X77470Y63881
X72771Y55245
X74295Y55499
X77902Y55016
X80582Y55245
X83503Y62103
X81280Y61468
X81026Y67945
X73914Y68072
X72009Y69088
X75565Y68961
X82575Y70485
X72136Y57404
X76378Y48565
X78994Y46609
X75565Y46609
X75413Y43409
X73203Y43053
X73152Y40767
X83515Y43078
X82550Y40640
X82550Y45212
X71882Y50546
X76200Y49530
X76200Y52070
X78740Y52070
X77470Y49530
X76200Y50800
X78740Y50800
X77470Y52070
X72263Y47752
X83312Y51816
X78740Y49530
X79959Y54889
X83185Y49149
X82791Y54229
X79908Y53264
X73406Y60706
X83172Y56642
X81280Y47498
X75692Y40259
X79248Y40259
X74803Y52959
X74803Y48260
X80137Y48768
X77064Y52934
X74803Y50902
X74168Y54102
X76200Y59182
X75768Y57734
X73660Y64008
X82779Y71882
X80975Y71907
X73939Y71907
X72288Y71907
X73558Y65684
X81255Y65049
X82779Y62763
X82779Y67310
X77470Y62459
X81153Y56007
X82080Y56921
X78499Y59385
X76772Y63665
X78740Y67310
X82804Y67818
X75819Y67183
X74803Y68707
X79730Y67971
X81661Y46863
X76606Y43409
X73279Y53594
X77861Y62144
X74930Y49511
X75895Y48387
X77470Y53340
X81661Y50673
X81217Y54229
X79070Y54864
X73025Y64008
X82042Y56388
X78867Y48260
X79807Y43815
X82423Y61798
X78359Y48260
X77851Y48260
X81661Y49530
X73152Y49149
X73152Y48695
X75057Y50419
X75057Y49965
X82931Y47665
X79883Y48260
X80645Y43307
X79397Y48260
X80239Y42672
X76305Y53457
X76327Y57912
X75844Y53257
X75946Y56769
X76835Y53340
X76835Y59309
X76708Y48133
X73152Y47828
X78432Y53213
X82296Y62738
X77978Y53213
X81788Y62738
X74930Y51435
X77216Y48387
X80010Y51054
X79502Y53467
X74879Y53492
X72898Y59309
X75311Y53264
X73279Y58039
X81788Y65024
X76835Y67310
X82296Y65024
X77343Y67310
X71501Y42672
X73660Y61214
X83580Y67870
X81661Y49987
X85725Y70231
X72073Y71311
X100330Y63881
X95631Y55245
X97155Y55499
X100762Y55016
X103441Y55245
X106362Y62103
X104140Y61468
X103886Y67945
X96774Y68072
X94869Y69088
X98425Y68961
X105435Y70485
X94996Y57404
X99238Y48565
X101854Y46609
X98425Y46609
X98273Y43409
X96063Y43053
X96012Y40767
X106375Y43078
X105410Y40640
X105410Y45212
X94742Y50546
X99060Y49530
X99060Y52070
X101600Y52070
X100330Y49530
X99060Y50800
X101600Y50800
X100330Y52070
X95123Y47752
X106172Y51816
X101600Y49530
X102819Y54889
X106045Y49149
X105651Y54229
X102768Y53264
X96266Y60706
X106032Y56642
X104140Y47498
X98552Y40259
X102108Y40259
X97663Y52959
X97663Y48260
X102997Y48768
X99924Y52934
X97663Y50902
X97028Y54102
X99060Y59182
X98628Y57734
X96520Y64008
X105639Y71882
X103835Y71907
X96799Y71907
X95148Y71907
X96418Y65684
X104115Y65049
X105639Y62763
X105639Y67310
X100330Y62459
X104013Y56007
X104940Y56921
X101359Y59385
X99631Y63665
X101600Y67310
X105664Y67818
X98679Y67183
X97663Y68707
X102590Y67971
X104521Y46863
X99466Y43409
X96139Y53594
X100721Y62144
X97790Y49511
X98755Y48387
X100330Y53340
X104521Y50673
X104076Y54229
X101930Y54864
X95885Y64008
X104902Y56388
X101727Y48260
X102667Y43815
X105283Y61798
X101219Y48260
X100711Y48260
X104521Y49530
X96012Y49149
X96012Y48695
X97917Y50419
X97917Y49965
X105791Y47665
X102743Y48260
X103505Y43307
X102257Y48260
X103099Y42672
X99165Y53457
X99187Y57912
X98704Y53257
X98806Y56769
X99695Y53340
X99695Y59309
X99568Y48133
X96012Y47828
X101292Y53213
X105156Y62738
X100838Y53213
X104648Y62738
X97790Y51435
X100076Y48387
X102870Y51054
X102362Y53467
X97739Y53492
X95758Y59309
X98171Y53264
X96139Y58039
X104648Y65024
X99695Y67310
X105156Y65024
X100203Y67310
X94361Y42672
X96520Y61214
X106440Y67870
X104521Y49987
X108585Y70231
X94932Y71311
X123190Y63881
X118491Y55245
X120015Y55499
X123622Y55016
X126301Y55245
X129222Y62103
X127000Y61468
X126746Y67945
X119634Y68072
X117729Y69088
X121285Y68961
X128295Y70485
X117856Y57404
X122098Y48565
X124714Y46609
X121285Y46609
X121133Y43409
X118923Y43053
X118872Y40767
X129235Y43078
X128270Y40640
X128270Y45212
X117602Y50546
X121920Y49530
X121920Y52070
X124460Y52070
X123190Y49530
X121920Y50800
X124460Y50800
X123190Y52070
X117983Y47752
X129032Y51816
X124460Y49530
X125679Y54889
X128905Y49149
X128511Y54229
X125628Y53264
X119126Y60706
X128892Y56642
X127000Y47498
X121412Y40259
X124968Y40259
X120523Y52959
X120523Y48260
X125857Y48768
X122784Y52934
X120523Y50902
X119888Y54102
X121920Y59182
X121488Y57734
X119380Y64008
X128499Y71882
X126695Y71907
X119659Y71907
X118008Y71907
X119278Y65684
X126975Y65049
X128499Y62763
X128499Y67310
X123190Y62459
X126873Y56007
X127800Y56921
X124219Y59385
X122491Y63665
X124460Y67310
X128524Y67818
X121539Y67183
X120523Y68707
X125450Y67971
X127381Y46863
X122326Y43409
X118999Y53594
X123581Y62144
X120650Y49511
X121615Y48387
X123190Y53340
X127381Y50673
X126936Y54229
X124790Y54864
X118745Y64008
X127762Y56388
X124587Y48260
X125527Y43815
X128143Y61798
X124079Y48260
X123571Y48260
X127381Y49530
X118872Y49149
X118872Y48695
X120777Y50419
X120777Y49965
X128651Y47665
X125603Y48260
X126365Y43307
X125117Y48260
X125959Y42672
X122025Y53457
X122047Y57912
X121564Y53257
X121666Y56769
X122555Y53340
X122555Y59309
X122428Y48133
X118872Y47828
X124152Y53213
X128016Y62738
X123698Y53213
X127508Y62738
X120650Y51435
X122936Y48387
X125730Y51054
X125222Y53467
X120599Y53492
X118618Y59309
X121031Y53264
X118999Y58039
X127508Y65024
X122555Y67310
X128016Y65024
X123063Y67310
X117221Y42672
X119380Y61214
X129300Y67870
X127381Y49987
X131445Y70231
X117792Y71311
X146050Y63881
X141351Y55245
X142875Y55499
X146482Y55016
X149162Y55245
X152083Y62103
X149860Y61468
X149606Y67945
X142494Y68072
X140589Y69088
X144145Y68961
X151155Y70485
X140716Y57404
X144958Y48565
X147574Y46609
X144145Y46609
X143993Y43409
X141783Y43053
X141732Y40767
X152095Y43078
X151130Y40640
X151130Y45212
X140462Y50546
X144780Y49530
X144780Y52070
X147320Y52070
X146050Y49530
X144780Y50800
X147320Y50800
X146050Y52070
X140843Y47752
X151892Y51816
X147320Y49530
X148539Y54889
X151765Y49149
X151371Y54229
X148488Y53264
X141986Y60706
X151752Y56642
X149860Y47498
X144272Y40259
X147828Y40259
X143383Y52959
X143383Y48260
X148717Y48768
X145644Y52934
X143383Y50902
X142748Y54102
X144780Y59182
X144348Y57734
X142240Y64008
X151359Y71882
X149555Y71907
X142519Y71907
X140868Y71907
X142138Y65684
X149835Y65049
X151359Y62763
X151359Y67310
X146050Y62459
X149733Y56007
X150660Y56921
X147079Y59385
X145352Y63665
X147320Y67310
X151384Y67818
X144399Y67183
X143383Y68707
X148310Y67971
X150241Y46863
X145186Y43409
X141859Y53594
X146441Y62144
X143510Y49511
X144475Y48387
X146050Y53340
X150241Y50673
X149797Y54229
X147650Y54864
X141605Y64008
X150622Y56388
X147447Y48260
X148387Y43815
X151003Y61798
X146939Y48260
X146431Y48260
X150241Y49530
X141732Y49149
X141732Y48695
X143637Y50419
X143637Y49965
X151511Y47665
X148463Y48260
X149225Y43307
X147977Y48260
X148819Y42672
X144885Y53457
X144907Y57912
X144424Y53257
X144526Y56769
X145415Y53340
X145415Y59309
X145288Y48133
X141732Y47828
X147012Y53213
X150876Y62738
X146558Y53213
X150368Y62738
X143510Y51435
X145796Y48387
X148590Y51054
X148082Y53467
X143459Y53492
X141478Y59309
X143891Y53264
X141859Y58039
X150368Y65024
X145415Y67310
X150876Y65024
X145923Y67310
X140081Y42672
X142240Y61214
X152160Y67870
X150241Y49987
X154305Y70231
X140653Y71311
X168910Y63881
X164211Y55245
X165735Y55499
X169342Y55016
X172022Y55245
X174942Y62103
X172720Y61468
X172466Y67945
X165354Y68072
X163449Y69088
X167005Y68961
X174015Y70485
X163576Y57404
X167818Y48565
X170434Y46609
X167005Y46609
X166853Y43409
X164643Y43053
X164592Y40767
X174955Y43078
X173990Y40640
X173990Y45212
X163322Y50546
X167640Y49530
X167640Y52070
X170180Y52070
X168910Y49530
X167640Y50800
X170180Y50800
X168910Y52070
X163703Y47752
X174752Y51816
X170180Y49530
X171399Y54889
X174625Y49149
X174231Y54229
X171348Y53264
X164846Y60706
X174612Y56642
X172720Y47498
X167132Y40259
X170688Y40259
X166243Y52959
X166243Y48260
X171577Y48768
X168504Y52934
X166243Y50902
X165608Y54102
X167640Y59182
X167208Y57734
X165100Y64008
X174219Y71882
X172415Y71907
X165379Y71907
X163728Y71907
X164998Y65684
X172695Y65049
X174219Y62763
X174219Y67310
X168910Y62459
X172593Y56007
X173520Y56921
X169939Y59385
X168212Y63665
X170180Y67310
X174244Y67818
X167259Y67183
X166243Y68707
X171170Y67971
X173101Y46863
X168046Y43409
X164719Y53594
X169301Y62144
X166370Y49511
X167335Y48387
X168910Y53340
X173101Y50673
X172657Y54229
X170510Y54864
X164465Y64008
X173482Y56388
X170307Y48260
X171247Y43815
X173863Y61798
X169799Y48260
X169291Y48260
X173101Y49530
X164592Y49149
X164592Y48695
X166497Y50419
X166497Y49965
X174371Y47665
X171323Y48260
X172085Y43307
X170837Y48260
X171679Y42672
X167745Y53457
X167767Y57912
X167284Y53257
X167386Y56769
X168275Y53340
X168275Y59309
X168148Y48133
X164592Y47828
X169872Y53213
X173736Y62738
X169418Y53213
X173228Y62738
X166370Y51435
X168656Y48387
X171450Y51054
X170942Y53467
X166319Y53492
X164338Y59309
X166751Y53264
X164719Y58039
X173228Y65024
X168275Y67310
X173736Y65024
X168783Y67310
X162941Y42672
X165100Y61214
X175020Y67870
X173101Y49987
X177165Y70231
X163513Y71311
X8890Y103251
X4191Y94615
X5715Y94869
X9322Y94386
X12001Y94615
X14922Y101473
X12700Y100838
X12446Y107315
X5334Y107442
X3429Y108458
X6985Y108331
X13995Y109855
X3556Y96774
X7798Y87935
X10414Y85979
X6985Y85979
X6833Y82779
X4623Y82423
X4572Y80137
X14935Y82448
X13970Y80010
X13970Y84582
X3302Y89916
X7620Y88900
X7620Y91440
X10160Y91440
X8890Y88900
X7620Y90170
X10160Y90170
X8890Y91440
X3683Y87122
X14732Y91186
X10160Y88900
X11379Y94259
X14605Y88519
X14211Y93599
X11328Y92634
X4826Y100076
X14592Y96012
X12700Y86868
X7112Y79629
X10668Y79629
X6223Y92329
X6223Y87630
X11557Y88138
X8484Y92304
X6223Y90272
X5588Y93472
X7620Y98552
X7188Y97104
X5080Y103378
X14199Y111252
X12395Y111277
X5359Y111277
X3708Y111277
X4978Y105054
X12675Y104419
X14199Y102133
X14199Y106680
X8890Y101829
X12573Y95377
X13500Y96291
X9919Y98755
X8191Y103035
X10160Y106680
X14224Y107188
X7239Y106553
X6223Y108077
X11150Y107341
X13081Y86233
X8026Y82779
X4699Y92964
X9281Y101514
X6350Y88881
X7315Y87757
X8890Y92710
X13081Y90043
X12636Y93599
X10490Y94234
X4445Y103378
X13462Y95758
X10287Y87630
X11227Y83185
X13843Y101168
X9779Y87630
X9271Y87630
X13081Y88900
X4572Y88519
X4572Y88065
X6477Y89789
X6477Y89335
X14351Y87035
X11303Y87630
X12065Y82677
X10817Y87630
X11659Y82042
X7725Y92827
X7747Y97282
X7264Y92627
X7366Y96139
X8255Y92710
X8255Y98679
X8128Y87503
X4572Y87198
X9852Y92583
X13716Y102108
X9398Y92583
X13208Y102108
X6350Y90805
X8636Y87757
X11430Y90424
X10922Y92837
X6299Y92862
X4318Y98679
X6731Y92634
X4699Y97409
X13208Y104394
X8255Y106680
X13716Y104394
X8763Y106680
X2921Y82042
X5080Y100584
X15000Y107240
X13081Y89357
X17145Y109601
X3492Y110680
X31750Y103251
X27051Y94615
X28575Y94869
X32182Y94386
X34862Y94615
X37783Y101473
X35560Y100838
X35306Y107315
X28194Y107442
X26289Y108458
X29845Y108331
X36855Y109855
X26416Y96774
X30658Y87935
X33274Y85979
X29845Y85979
X29693Y82779
X27483Y82423
X102768Y13894
X37795Y82448
X36830Y80010
X36830Y84582
X26162Y89916
X30480Y88900
X30480Y91440
X33020Y91440
X31750Y88900
X30480Y90170
X33020Y90170
X31750Y91440
X26543Y87122
X37592Y91186
X33020Y88900
X34239Y94259
X37465Y88519
X37071Y93599
X34188Y92634
X27686Y100076
X37452Y96012
X35560Y86868
X29972Y79629
X33528Y79629
X29083Y92329
X29083Y87630
X34417Y88138
X31344Y92304
X29083Y90272
X28448Y93472
X30480Y98552
X30048Y97104
X27940Y103378
X37059Y111252
X35255Y111277
X28219Y111277
X26568Y111277
X27838Y105054
X35535Y104419
X37059Y102133
X37059Y106680
X31750Y101829
X35433Y95377
X36360Y96291
X32779Y98755
X31051Y103035
X33020Y106680
X37084Y107188
X30099Y106553
X29083Y108077
X34010Y107341
X35941Y86233
X30886Y82779
X27559Y92964
X32141Y101514
X29210Y88881
X30175Y87757
X31750Y92710
X35941Y90043
X35497Y93599
X33350Y94234
X27305Y103378
X36322Y95758
X33147Y87630
X34087Y83185
X36703Y101168
X32639Y87630
X32131Y87630
X35941Y88900
X27432Y88519
X27432Y88065
X29337Y89789
X29337Y89335
X37211Y87035
X34163Y87630
X34925Y82677
X33677Y87630
X34519Y82042
X30585Y92827
X30607Y97282
X30124Y92627
X30226Y96139
X31115Y92710
X31115Y98679
X30988Y87503
X27432Y87198
X32712Y92583
X36576Y102108
X32258Y92583
X36068Y102108
X29210Y90805
X31496Y87757
X34290Y90424
X33782Y92837
X29159Y92862
X27178Y98679
X29591Y92634
X27559Y97409
X36068Y104394
X31115Y106680
X36576Y104394
X31623Y106680
X25781Y82042
X27940Y100584
X37860Y107240
X35941Y89357
X40005Y109601
X26352Y110680
X54610Y103251
X49911Y94615
X51435Y94869
X55042Y94386
X57721Y94615
X60642Y101473
X58420Y100838
X58166Y107315
X51054Y107442
X49149Y108458
X52705Y108331
X59715Y109855
X49276Y96774
X53518Y87935
X56134Y85979
X52705Y85979
X52553Y82779
X50343Y82423
X50292Y80137
X60655Y82448
X59690Y80010
X59690Y84582
X49022Y89916
X53340Y88900
X53340Y91440
X55880Y91440
X54610Y88900
X53340Y90170
X55880Y90170
X54610Y91440
X49403Y87122
X60452Y91186
X55880Y88900
X57099Y94259
X60325Y88519
X59931Y93599
X57048Y92634
X50546Y100076
X60312Y96012
X58420Y86868
X52832Y79629
X56388Y79629
X51943Y92329
X51943Y87630
X57277Y88138
X54204Y92304
X51943Y90272
X51308Y93472
X53340Y98552
X52908Y97104
X50800Y103378
X59919Y111252
X58115Y111277
X51079Y111277
X49428Y111277
X50698Y105054
X58395Y104419
X59919Y102133
X59919Y106680
X54610Y101829
X58293Y95377
X59220Y96291
X55639Y98755
X53911Y103035
X55880Y106680
X59944Y107188
X52959Y106553
X51943Y108077
X56870Y107341
X58801Y86233
X53746Y82779
X50419Y92964
X55001Y101514
X52070Y88881
X53035Y87757
X54610Y92710
X58801Y90043
X58356Y93599
X56210Y94234
X50165Y103378
X59182Y95758
X56007Y87630
X56947Y83185
X59563Y101168
X55499Y87630
X54991Y87630
X58801Y88900
X50292Y88519
X50292Y88065
X52197Y89789
X52197Y89335
X60071Y87035
X57023Y87630
X57785Y82677
X56537Y87630
X57379Y82042
X53445Y92827
X53467Y97282
X52984Y92627
X53086Y96139
X53975Y92710
X53975Y98679
X53848Y87503
X50292Y87198
X55572Y92583
X59436Y102108
X55118Y92583
X58928Y102108
X52070Y90805
X54356Y87757
X57150Y90424
X56642Y92837
X52019Y92862
X50038Y98679
X52451Y92634
X50419Y97409
X58928Y104394
X53975Y106680
X59436Y104394
X54483Y106680
X48641Y82042
X50800Y100584
X60720Y107240
X58801Y89357
X62865Y109601
X49212Y110680
X77470Y103251
X72771Y94615
X74295Y94869
X77902Y94386
X80582Y94615
X83503Y101473
X81280Y100838
X81026Y107315
X73914Y107442
X72009Y108458
X75565Y108331
X82575Y109855
X72136Y96774
X76378Y87935
X78994Y85979
X75565Y85979
X75413Y82779
X73203Y82423
X73152Y80137
X83515Y82448
X82550Y80010
X82550Y84582
X71882Y89916
X76200Y88900
X76200Y91440
X78740Y91440
X77470Y88900
X76200Y90170
X78740Y90170
X77470Y91440
X72263Y87122
X83312Y91186
X78740Y88900
X79959Y94259
X83185Y88519
X82791Y93599
X79908Y92634
X73406Y100076
X83172Y96012
X81280Y86868
X75692Y79629
X79248Y79629
X74803Y92329
X74803Y87630
X80137Y88138
X77064Y92304
X74803Y90272
X74168Y93472
X76200Y98552
X75768Y97104
X73660Y103378
X82779Y111252
X80975Y111277
X73939Y111277
X72288Y111277
X73558Y105054
X81255Y104419
X82779Y102133
X82779Y106680
X77470Y101829
X81153Y95377
X82080Y96291
X78499Y98755
X76772Y103035
X78740Y106680
X82804Y107188
X75819Y106553
X74803Y108077
X79730Y107341
X81661Y86233
X76606Y82779
X73279Y92964
X77861Y101514
X74930Y88881
X75895Y87757
X77470Y92710
X81661Y90043
X81217Y93599
X79070Y94234
X73025Y103378
X82042Y95758
X78867Y87630
X79807Y83185
X82423Y101168
X78359Y87630
X77851Y87630
X81661Y88900
X73152Y88519
X73152Y88065
X75057Y89789
X75057Y89335
X82931Y87035
X79883Y87630
X80645Y82677
X79397Y87630
X80239Y82042
X76305Y92827
X76327Y97282
X75844Y92627
X75946Y96139
X76835Y92710
X76835Y98679
X76708Y87503
X73152Y87198
X78432Y92583
X82296Y102108
X77978Y92583
X81788Y102108
X74930Y90805
X77216Y87757
X80010Y90424
X79502Y92837
X74879Y92862
X72898Y98679
X75311Y92634
X73279Y97409
X81788Y104394
X76835Y106680
X82296Y104394
X77343Y106680
X71501Y82042
X73660Y100584
X83580Y107240
X81661Y89357
X85725Y109601
X72073Y110680
X100330Y103251
X95631Y94615
X97155Y94869
X100762Y94386
X103441Y94615
X106362Y101473
X104140Y100838
X103886Y107315
X96774Y107442
X94869Y108458
X98425Y108331
X105435Y109855
X94996Y96774
X99238Y87935
X101854Y85979
X98425Y85979
X98273Y82779
X96063Y82423
X96012Y80137
X106375Y82448
X105410Y80010
X105410Y84582
X94742Y89916
X99060Y88900
X99060Y91440
X101600Y91440
X100330Y88900
X99060Y90170
X101600Y90170
X100330Y91440
X95123Y87122
X106172Y91186
X101600Y88900
X102819Y94259
X106045Y88519
X105651Y93599
X102768Y92634
X96266Y100076
X106032Y96012
X104140Y86868
X98552Y79629
X102108Y79629
X97663Y92329
X97663Y87630
X102997Y88138
X99924Y92304
X97663Y90272
X97028Y93472
X99060Y98552
X98628Y97104
X96520Y103378
X105639Y111252
X103835Y111277
X96799Y111277
X95148Y111277
X96418Y105054
X104115Y104419
X105639Y102133
X105639Y106680
X100330Y101829
X104013Y95377
X104940Y96291
X101359Y98755
X99631Y103035
X101600Y106680
X105664Y107188
X98679Y106553
X97663Y108077
X102590Y107341
X104521Y86233
X99466Y82779
X96139Y92964
X100721Y101514
X97790Y88881
X98755Y87757
X100330Y92710
X104521Y90043
X104076Y93599
X101930Y94234
X95885Y103378
X104902Y95758
X101727Y87630
X102667Y83185
X105283Y101168
X101219Y87630
X100711Y87630
X104521Y88900
X96012Y88519
X96012Y88065
X97917Y89789
X97917Y89335
X105791Y87035
X102743Y87630
X103505Y82677
X102257Y87630
X103099Y82042
X99165Y92827
X99187Y97282
X98704Y92627
X98806Y96139
X99695Y92710
X99695Y98679
X99568Y87503
X96012Y87198
X101292Y92583
X105156Y102108
X100838Y92583
X104648Y102108
X97790Y90805
X100076Y87757
X102870Y90424
X102362Y92837
X97739Y92862
X95758Y98679
X98171Y92634
X96139Y97409
X104648Y104394
X99695Y106680
X105156Y104394
X100203Y106680
X94361Y82042
X96520Y100584
X106440Y107240
X104521Y89357
X108585Y109601
X94932Y110680
X123190Y103251
X118491Y94615
X120015Y94869
X123622Y94386
X126301Y94615
X129222Y101473
X127000Y100838
X126746Y107315
X119634Y107442
X117729Y108458
X121285Y108331
X128295Y109855
X117856Y96774
X122098Y87935
X124714Y85979
X121285Y85979
X121133Y82779
X118923Y82423
X118872Y80137
X129235Y82448
X128270Y80010
X128270Y84582
X117602Y89916
X121920Y88900
X121920Y91440
X124460Y91440
X123190Y88900
X121920Y90170
X124460Y90170
X123190Y91440
X117983Y87122
X129032Y91186
X124460Y88900
X125679Y94259
X128905Y88519
X128511Y93599
X125628Y92634
X119126Y100076
X128892Y96012
X127000Y86868
X121412Y79629
X124968Y79629
X120523Y92329
X120523Y87630
X125857Y88138
X122784Y92304
X120523Y90272
X119888Y93472
X121920Y98552
X121488Y97104
X119380Y103378
X128499Y111252
X126695Y111277
X119659Y111277
X118008Y111277
X119278Y105054
X126975Y104419
X128499Y102133
X128499Y106680
X123190Y101829
X126873Y95377
X127800Y96291
X124219Y98755
X122491Y103035
X124460Y106680
X128524Y107188
X121539Y106553
X120523Y108077
X125450Y107341
X127381Y86233
X122326Y82779
X118999Y92964
X123581Y101514
X120650Y88881
X121615Y87757
X123190Y92710
X127381Y90043
X126936Y93599
X124790Y94234
X118745Y103378
X127762Y95758
X124587Y87630
X125527Y83185
X128143Y101168
X124079Y87630
X123571Y87630
X127381Y88900
X118872Y88519
X118872Y88065
X120777Y89789
X120777Y89335
X128651Y87035
X125603Y87630
X126365Y82677
X125117Y87630
X125959Y82042
X122025Y92827
X122047Y97282
X121564Y92627
X121666Y96139
X122555Y92710
X122555Y98679
X122428Y87503
X118872Y87198
X124152Y92583
X128016Y102108
X123698Y92583
X127508Y102108
X120650Y90805
X122936Y87757
X125730Y90424
X125222Y92837
X120599Y92862
X118618Y98679
X121031Y92634
X118999Y97409
X127508Y104394
X122555Y106680
X128016Y104394
X123063Y106680
X117221Y82042
X119380Y100584
X129300Y107240
X127381Y89357
X131445Y109601
X117792Y110680
X146050Y103251
X141351Y94615
X142875Y94869
X146482Y94386
X149162Y94615
X152083Y101473
X149860Y100838
X149606Y107315
X142494Y107442
X140589Y108458
X144145Y108331
X151155Y109855
X140716Y96774
X144958Y87935
X147574Y85979
X144145Y85979
X143993Y82779
X141783Y82423
X141732Y80137
X152095Y82448
X151130Y80010
X151130Y84582
X140462Y89916
X144780Y88900
X144780Y91440
X147320Y91440
X146050Y88900
X144780Y90170
X147320Y90170
X146050Y91440
X140843Y87122
X151892Y91186
X147320Y88900
X148539Y94259
X151765Y88519
X151371Y93599
X148488Y92634
X141986Y100076
X151752Y96012
X149860Y86868
X144272Y79629
X147828Y79629
X143383Y92329
X143383Y87630
X148717Y88138
X145644Y92304
X143383Y90272
X142748Y93472
X144780Y98552
X144348Y97104
X142240Y103378
X151359Y111252
X149555Y111277
X142519Y111277
X140868Y111277
X142138Y105054
X149835Y104419
X151359Y102133
X151359Y106680
X146050Y101829
X149733Y95377
X150660Y96291
X147079Y98755
X145352Y103035
X147320Y106680
X151384Y107188
X144399Y106553
X143383Y108077
X148310Y107341
X150241Y86233
X145186Y82779
X141859Y92964
X146441Y101514
X143510Y88881
X144475Y87757
X146050Y92710
X150241Y90043
X149797Y93599
X147650Y94234
X141605Y103378
X150622Y95758
X147447Y87630
X148387Y83185
X151003Y101168
X146939Y87630
X146431Y87630
X150241Y88900
X141732Y88519
X141732Y88065
X143637Y89789
X143637Y89335
X151511Y87035
X148463Y87630
X149225Y82677
X147977Y87630
X148819Y82042
X144885Y92827
X144907Y97282
X144424Y92627
X144526Y96139
X145415Y92710
X145415Y98679
X145288Y87503
X141732Y87198
X147012Y92583
X150876Y102108
X146558Y92583
X150368Y102108
X143510Y90805
X145796Y87757
X148590Y90424
X148082Y92837
X143459Y92862
X141478Y98679
X143891Y92634
X141859Y97409
X150368Y104394
X145415Y106680
X150876Y104394
X145923Y106680
X140081Y82042
X142240Y100584
X152160Y107240
X150241Y89357
X154305Y109601
X140653Y110680
X168910Y103251
X164211Y94615
X165735Y94869
X169342Y94386
X172022Y94615
X174942Y101473
X172720Y100838
X172466Y107315
X165354Y107442
X163449Y108458
X167005Y108331
X174015Y109855
X163576Y96774
X167818Y87935
X170434Y85979
X167005Y85979
X166853Y82779
X164643Y82423
X164592Y80137
X174955Y82448
X173990Y80010
X173990Y84582
X163322Y89916
X167640Y88900
X167640Y91440
X170180Y91440
X168910Y88900
X167640Y90170
X170180Y90170
X168910Y91440
X163703Y87122
X174752Y91186
X170180Y88900
X171399Y94259
X174625Y88519
X174231Y93599
X171348Y92634
X164846Y100076
X174612Y96012
X172720Y86868
X167132Y79629
X170688Y79629
X166243Y92329
X166243Y87630
X171577Y88138
X168504Y92304
X166243Y90272
X165608Y93472
X167640Y98552
X167208Y97104
X165100Y103378
X174219Y111252
X172415Y111277
X165379Y111277
X163728Y111277
X164998Y105054
X172695Y104419
X174219Y102133
X174219Y106680
X168910Y101829
X172593Y95377
X173520Y96291
X169939Y98755
X168212Y103035
X170180Y106680
X174244Y107188
X167259Y106553
X166243Y108077
X171170Y107341
X173101Y86233
X168046Y82779
X164719Y92964
X169301Y101514
X166370Y88881
X167335Y87757
X168910Y92710
X173101Y90043
X172657Y93599
X170510Y94234
X164465Y103378
X173482Y95758
X170307Y87630
X171247Y83185
X173863Y101168
X169799Y87630
X169291Y87630
X173101Y88900
X164592Y88519
X164592Y88065
X166497Y89789
X166497Y89335
X174371Y87035
X171323Y87630
X172085Y82677
X170837Y87630
X171679Y82042
X167745Y92827
X167767Y97282
X167284Y92627
X167386Y96139
X168275Y92710
X168275Y98679
X168148Y87503
X164592Y87198
X169872Y92583
X173736Y102108
X169418Y92583
X173228Y102108
X166370Y90805
X168656Y87757
X171450Y90424
X170942Y92837
X166319Y92862
X164338Y98679
X166751Y92634
X164719Y97409
X173228Y104394
X168275Y106680
X173736Y104394
X168783Y106680
X162941Y82042
X165100Y100584
X175020Y107240
X173101Y89357
X177165Y109601
X163513Y110680
X8890Y24511
X4191Y15875
X5715Y16129
X9322Y15646
X12001Y15875
X14922Y22733
X12700Y22098
X12446Y28575
X5334Y28702
X3429Y29718
X6985Y29591
X13995Y31115
X3556Y18034
X7798Y9195
X10414Y7239
X6985Y7239
X6833Y4039
X4623Y3683
X4572Y1397
X14935Y3708
X13970Y1270
X13970Y5842
X3302Y11176
X7620Y10160
X7620Y12700
X10160Y12700
X8890Y10160
X7620Y11430
X10160Y11430
X8890Y12700
X3683Y8382
X14732Y12446
X10160Y10160
X11379Y15519
X14605Y9779
X14211Y14859
X11328Y13894
X4826Y21336
X14592Y17272
X12700Y8128
X7112Y889
X10668Y889
X6223Y13589
X6223Y8890
X11557Y9398
X8484Y13564
X6223Y11532
X5588Y14732
X7620Y19812
X7188Y18364
X5080Y24638
X14199Y32512
X12395Y32537
X5359Y32537
X3708Y32537
X4978Y26314
X12675Y25679
X14199Y23393
X14199Y27940
X8890Y23089
X12573Y16637
X13500Y17551
X9919Y20015
X8191Y24295
X10160Y27940
X14224Y28448
X7239Y27813
X6223Y29337
X11150Y28601
X13081Y7493
X8026Y4039
X4699Y14224
X9281Y22774
X6350Y10141
X7315Y9017
X8890Y13970
X13081Y11303
X12636Y14859
X10490Y15494
X4445Y24638
X13462Y17018
X10287Y8890
X11227Y4445
X13843Y22428
X9779Y8890
X9271Y8890
X13081Y10160
X4572Y9779
X4572Y9325
X6477Y11049
X6477Y10595
X14351Y8295
X11303Y8890
X12065Y3937
X10817Y8890
X11659Y3302
X7725Y14087
X7747Y18542
X7264Y13887
X7366Y17399
X8255Y13970
X8255Y19939
X8128Y8763
X4572Y8458
X9852Y13843
X13716Y23368
X9398Y13843
X13208Y23368
X6350Y12065
X8636Y9017
X11430Y11684
X10922Y14097
X6299Y14122
X4318Y19939
X6731Y13894
X4699Y18669
X13208Y25654
X8255Y27940
X13716Y25654
X8763Y27940
X2921Y3302
X5080Y21844
X15000Y28500
X13081Y10617
X17145Y30861
X3492Y31940
X31750Y24511
X27051Y15875
X28575Y16129
X32182Y15646
X34862Y15875
X37783Y22733
X35560Y22098
X35306Y28575
X28194Y28702
X26289Y29718
X29845Y29591
X36855Y31115
X26416Y18034
X30658Y9195
X33274Y7239
X29845Y7239
X29693Y4039
X27483Y3683
X27432Y1397
X37795Y3708
X36830Y1270
X36830Y5842
X26162Y11176
X30480Y10160
X30480Y12700
X33020Y12700
X31750Y10160
X30480Y11430
X33020Y11430
X31750Y12700
X26543Y8382
X37592Y12446
X33020Y10160
X34239Y15519
X37465Y9779
X37071Y14859
X34188Y13894
X27686Y21336
X37452Y17272
X35560Y8128
X29972Y889
X33528Y889
X29083Y13589
X29083Y8890
X34417Y9398
X31344Y13564
X29083Y11532
X28448Y14732
X30480Y19812
X30048Y18364
X27940Y24638
X37059Y32512
X35255Y32537
X28219Y32537
X26568Y32537
X27838Y26314
X35535Y25679
X37059Y23393
X37059Y27940
X31750Y23089
X35433Y16637
X36360Y17551
X32779Y20015
X31051Y24295
X33020Y27940
X37084Y28448
X30099Y27813
X29083Y29337
X34010Y28601
X35941Y7493
X30886Y4039
X27559Y14224
X32141Y22774
X29210Y10141
X30175Y9017
X31750Y13970
X35941Y11303
X35497Y14859
X33350Y15494
X27305Y24638
X36322Y17018
X33147Y8890
X34087Y4445
X36703Y22428
X32639Y8890
X32131Y8890
X35941Y10160
X27432Y9779
X27432Y9325
X29337Y11049
X29337Y10595
X37211Y8295
X34163Y8890
X34925Y3937
X33677Y8890
X34519Y3302
X30585Y14087
X30607Y18542
X30124Y13887
X30226Y17399
X31115Y13970
X31115Y19939
X30988Y8763
X27432Y8458
X32712Y13843
X36576Y23368
X32258Y13843
X36068Y23368
X29210Y12065
X31496Y9017
X34290Y11684
X33782Y14097
X29159Y14122
X27178Y19939
X29591Y13894
X27559Y18669
X36068Y25654
X31115Y27940
X36576Y25654
X31623Y27940
X25781Y3302
X27940Y21844
X37860Y28500
X35941Y10617
X40005Y30861
X26352Y31940
X54610Y24511
X49911Y15875
X51435Y16129
X55042Y15646
X57721Y15875
X60642Y22733
X58420Y22098
X58166Y28575
X51054Y28702
X49149Y29718
X52705Y29591
X59715Y31115
X49276Y18034
X53518Y9195
X56134Y7239
X52705Y7239
X52553Y4039
X50343Y3683
X50292Y1397
X60655Y3708
X59690Y1270
X59690Y5842
X49022Y11176
X53340Y10160
X53340Y12700
X55880Y12700
X54610Y10160
X53340Y11430
X55880Y11430
X54610Y12700
X49403Y8382
X60452Y12446
X55880Y10160
X57099Y15519
X60325Y9779
X59931Y14859
X57048Y13894
X50546Y21336
X60312Y17272
X58420Y8128
X52832Y889
X56388Y889
X51943Y13589
X51943Y8890
X57277Y9398
X54204Y13564
X51943Y11532
X51308Y14732
X53340Y19812
X52908Y18364
X50800Y24638
X59919Y32512
X58115Y32537
X51079Y32537
X49428Y32537
X50698Y26314
X58395Y25679
X59919Y23393
X59919Y27940
X54610Y23089
X58293Y16637
X59220Y17551
X55639Y20015
X53911Y24295
X55880Y27940
X59944Y28448
X52959Y27813
X51943Y29337
X56870Y28601
X58801Y7493
X53746Y4039
X50419Y14224
X55001Y22774
X52070Y10141
X53035Y9017
X54610Y13970
X58801Y11303
X58356Y14859
X56210Y15494
X50165Y24638
X59182Y17018
X56007Y8890
X56947Y4445
X59563Y22428
X55499Y8890
X54991Y8890
X58801Y10160
X50292Y9779
X50292Y9325
X52197Y11049
X52197Y10595
X60071Y8295
X57023Y8890
X57785Y3937
X56537Y8890
X57379Y3302
X53445Y14087
X53467Y18542
X52984Y13887
X53086Y17399
X53975Y13970
X53975Y19939
X53848Y8763
X50292Y8458
X55572Y13843
X59436Y23368
X55118Y13843
X58928Y23368
X52070Y12065
X54356Y9017
X57150Y11684
X56642Y14097
X52019Y14122
X50038Y19939
X52451Y13894
X50419Y18669
X58928Y25654
X53975Y27940
X59436Y25654
X54483Y27940
X48641Y3302
X50800Y21844
X60720Y28500
X58801Y10617
X62865Y30861
X49212Y31940
X77470Y24511
X72771Y15875
X74295Y16129
X77902Y15646
X80582Y15875
X83503Y22733
X81280Y22098
X81026Y28575
X73914Y28702
X72009Y29718
X75565Y29591
X82575Y31115
X72136Y18034
X76378Y9195
X78994Y7239
X75565Y7239
X75413Y4039
X73203Y3683
X73152Y1397
X83515Y3708
X82550Y1270
X82550Y5842
X71882Y11176
X76200Y10160
X76200Y12700
X78740Y12700
X77470Y10160
X76200Y11430
X78740Y11430
X77470Y12700
X72263Y8382
X83312Y12446
X78740Y10160
X79959Y15519
X83185Y9779
X82791Y14859
X79908Y13894
X73406Y21336
X83172Y17272
X81280Y8128
X75692Y889
X79248Y889
X74803Y13589
X74803Y8890
X80137Y9398
X77064Y13564
X74803Y11532
X74168Y14732
X76200Y19812
X75768Y18364
X73660Y24638
X82779Y32512
X80975Y32537
X73939Y32537
X72288Y32537
X73558Y26314
X81255Y25679
X82779Y23393
X82779Y27940
X77470Y23089
X81153Y16637
X82080Y17551
X78499Y20015
X76772Y24295
X78740Y27940
X82804Y28448
X75819Y27813
X74803Y29337
X79730Y28601
X81661Y7493
X76606Y4039
X73279Y14224
X77861Y22774
X74930Y10141
X75895Y9017
X77470Y13970
X81661Y11303
X81217Y14859
X79070Y15494
X73025Y24638
X82042Y17018
X78867Y8890
X79807Y4445
X82423Y22428
X78359Y8890
X77851Y8890
X81661Y10160
X73152Y9779
X73152Y9325
X75057Y11049
X75057Y10595
X82931Y8295
X79883Y8890
X80645Y3937
X79397Y8890
X80239Y3302
X76305Y14087
X76327Y18542
X75844Y13887
X75946Y17399
X76835Y13970
X76835Y19939
X76708Y8763
X73152Y8458
X78432Y13843
X82296Y23368
X77978Y13843
X81788Y23368
X74930Y12065
X77216Y9017
X80010Y11684
X79502Y14097
X74879Y14122
X72898Y19939
X75311Y13894
X73279Y18669
X81788Y25654
X76835Y27940
X82296Y25654
X77343Y27940
X71501Y3302
X73660Y21844
X83580Y28500
X81661Y10617
X85725Y30861
X72073Y31940
X100330Y24511
X95631Y15875
X97155Y16129
X100762Y15646
X103441Y15875
X106362Y22733
X104140Y22098
X103886Y28575
X96774Y28702
X94869Y29718
X98425Y29591
X105435Y31115
X94996Y18034
X99238Y9195
X101854Y7239
X98425Y7239
X98273Y4039
X96063Y3683
X96012Y1397
X106375Y3708
X105410Y1270
X105410Y5842
X94742Y11176
X99060Y10160
X99060Y12700
X101600Y12700
X100330Y10160
X99060Y11430
X101600Y11430
X100330Y12700
X95123Y8382
X106172Y12446
X101600Y10160
X102819Y15519
X106045Y9779
X105651Y14859
X96266Y21336
X106032Y17272
X104140Y8128
X98552Y889
X102108Y889
X97663Y13589
X97663Y8890
X102997Y9398
X99924Y13564
X97663Y11532
X97028Y14732
X99060Y19812
X98628Y18364
X96520Y24638
X105639Y32512
X103835Y32537
X96799Y32537
X95148Y32537
X96418Y26314
X104115Y25679
X105639Y23393
X105639Y27940
X100330Y23089
X104013Y16637
X104940Y17551
X101359Y20015
X99631Y24295
X101600Y27940
X105664Y28448
X98679Y27813
X97663Y29337
X102590Y28601
X104521Y7493
X99466Y4039
X96139Y14224
X100721Y22774
X97790Y10141
X98755Y9017
X100330Y13970
X104521Y11303
X104076Y14859
X101930Y15494
X95885Y24638
X104902Y17018
X101727Y8890
X102667Y4445
X105283Y22428
X101219Y8890
X100711Y8890
X104521Y10160
X96012Y9779
X96012Y9325
X97917Y11049
X97917Y10595
X105791Y8295
X102743Y8890
X103505Y3937
X102257Y8890
X103099Y3302
X99165Y14087
X99187Y18542
X98704Y13887
X98806Y17399
X99695Y13970
X99695Y19939
X99568Y8763
X96012Y8458
X101292Y13843
X105156Y23368
X100838Y13843
X104648Y23368
X97790Y12065
X100076Y9017
X102870Y11684
X102362Y14097
X97739Y14122
X95758Y19939
X98171Y13894
X96139Y18669
X104648Y25654
X99695Y27940
X105156Y25654
X100203Y27940
X94361Y3302
X96520Y21844
X106440Y28500
X104521Y10617
X108585Y30861
X94932Y31940
X123190Y24511
X118491Y15875
X120015Y16129
X123622Y15646
X126301Y15875
X129222Y22733
X127000Y22098
X126746Y28575
X119634Y28702
X117729Y29718
X121285Y29591
X128295Y31115
X117856Y18034
X122098Y9195
X124714Y7239
X121285Y7239
X121133Y4039
X118923Y3683
X118872Y1397
X129235Y3708
X128270Y1270
X128270Y5842
X117602Y11176
X121920Y10160
X121920Y12700
X124460Y12700
X123190Y10160
X121920Y11430
X124460Y11430
X123190Y12700
X117983Y8382
X129032Y12446
X124460Y10160
X125679Y15519
X128905Y9779
X128511Y14859
X125628Y13894
X119126Y21336
X128892Y17272
X127000Y8128
X121412Y889
X124968Y889
X120523Y13589
X120523Y8890
X125857Y9398
X122784Y13564
X120523Y11532
X119888Y14732
X121920Y19812
X121488Y18364
X119380Y24638
X128499Y32512
X126695Y32537
X119659Y32537
X118008Y32537
X119278Y26314
X126975Y25679
X128499Y23393
X128499Y27940
X123190Y23089
X126873Y16637
X127800Y17551
X124219Y20015
X122491Y24295
X124460Y27940
X128524Y28448
X121539Y27813
X120523Y29337
X125450Y28601
X127381Y7493
X122326Y4039
X118999Y14224
X123581Y22774
X120650Y10141
X121615Y9017
X123190Y13970
X127381Y11303
X126936Y14859
X124790Y15494
X118745Y24638
X127762Y17018
X124587Y8890
X125527Y4445
X128143Y22428
X124079Y8890
X123571Y8890
X127381Y10160
X118872Y9779
X118872Y9325
X120777Y11049
X120777Y10595
X128651Y8295
X125603Y8890
X126365Y3937
X125117Y8890
X125959Y3302
X122025Y14087
X122047Y18542
X121564Y13887
X121666Y17399
X122555Y13970
X122555Y19939
X122428Y8763
X118872Y8458
X124152Y13843
X128016Y23368
X123698Y13843
X127508Y23368
X120650Y12065
X122936Y9017
X125730Y11684
X125222Y14097
X120599Y14122
X118618Y19939
X121031Y13894
X118999Y18669
X127508Y25654
X122555Y27940
X128016Y25654
X123063Y27940
X117221Y3302
X119380Y21844
X129300Y28500
X127381Y10617
X131445Y30861
X117792Y31940
X27432Y80137
X146050Y24511
X141351Y15875
X142875Y16129
X146482Y15646
X149162Y15875
X152083Y22733
X149860Y22098
X149606Y28575
X142494Y28702
X140589Y29718
X144145Y29591
X151155Y31115
X140716Y18034
X144958Y9195
X147574Y7239
X144145Y7239
X143993Y4039
X141783Y3683
X141732Y1397
X152095Y3708
X151130Y1270
X151130Y5842
X140462Y11176
X144780Y10160
X144780Y12700
X147320Y12700
X146050Y10160
X144780Y11430
X147320Y11430
X146050Y12700
X140843Y8382
X151892Y12446
X147320Y10160
X148539Y15519
X151765Y9779
X151371Y14859
X148488Y13894
X141986Y21336
X151752Y17272
X149860Y8128
X144272Y889
X147828Y889
X143383Y13589
X143383Y8890
X148717Y9398
X145644Y13564
X143383Y11532
X142748Y14732
X144780Y19812
X144348Y18364
X142240Y24638
X151359Y32512
X149555Y32537
X142519Y32537
X140868Y32537
X142138Y26314
X149835Y25679
X151359Y23393
X151359Y27940
X146050Y23089
X149733Y16637
X150660Y17551
X147079Y20015
X145352Y24295
X147320Y27940
X151384Y28448
X144399Y27813
X143383Y29337
X148310Y28601
X150241Y7493
X145186Y4039
X141859Y14224
X146441Y22774
X143510Y10141
X144475Y9017
X146050Y13970
X150241Y11303
X149797Y14859
X147650Y15494
X141605Y24638
X150622Y17018
X147447Y8890
X148387Y4445
X151003Y22428
X146939Y8890
X146431Y8890
X150241Y10160
X141732Y9779
X141732Y9325
X143637Y11049
X143637Y10595
X151511Y8295
X148463Y8890
X149225Y3937
X147977Y8890
X148819Y3302
X144885Y14087
X144907Y18542
X144424Y13887
X144526Y17399
X145415Y13970
X145415Y19939
X145288Y8763
X141732Y8458
X147012Y13843
X150876Y23368
X146558Y13843
X150368Y23368
X143510Y12065
X145796Y9017
X148590Y11684
X148082Y14097
X143459Y14122
X141478Y19939
X143891Y13894
X141859Y18669
X150368Y25654
X145415Y27940
X150876Y25654
X145923Y27940
X140081Y3302
X142240Y21844
X152160Y28500
X150241Y10617
X154305Y30861
X140653Y31940
X168910Y24511
X164211Y15875
X165735Y16129
X169342Y15646
X172022Y15875
X174942Y22733
X172720Y22098
X172466Y28575
X165354Y28702
X163449Y29718
X167005Y29591
X174015Y31115
X163576Y18034
X167818Y9195
X170434Y7239
X167005Y7239
X166853Y4039
X164643Y3683
X164592Y1397
X174955Y3708
X173990Y1270
X173990Y5842
X163322Y11176
X167640Y10160
X167640Y12700
X170180Y12700
X168910Y10160
X167640Y11430
X170180Y11430
X168910Y12700
X163703Y8382
X174752Y12446
X170180Y10160
X171399Y15519
X174625Y9779
X174231Y14859
X171348Y13894
X164846Y21336
X174612Y17272
X172720Y8128
X167132Y889
X170688Y889
X166243Y13589
X166243Y8890
X171577Y9398
X168504Y13564
X166243Y11532
X165608Y14732
X167640Y19812
X167208Y18364
X165100Y24638
X174219Y32512
X172415Y32537
X165379Y32537
X163728Y32537
X164998Y26314
X172695Y25679
X174219Y23393
X174219Y27940
X168910Y23089
X172593Y16637
X173520Y17551
X169939Y20015
X168212Y24295
X170180Y27940
X174244Y28448
X167259Y27813
X166243Y29337
X171170Y28601
X173101Y7493
X168046Y4039
X164719Y14224
X169301Y22774
X166370Y10141
X167335Y9017
X168910Y13970
X173101Y11303
X172657Y14859
X170510Y15494
X164465Y24638
X173482Y17018
X170307Y8890
X171247Y4445
X173863Y22428
X169799Y8890
X169291Y8890
X173101Y10160
X164592Y9779
X164592Y9325
X166497Y11049
X166497Y10595
X174371Y8295
X171323Y8890
X172085Y3937
X170837Y8890
X171679Y3302
X167745Y14087
X167767Y18542
X167284Y13887
X167386Y17399
X168275Y13970
X168275Y19939
X168148Y8763
X164592Y8458
X169872Y13843
X173736Y23368
X169418Y13843
X173228Y23368
X166370Y12065
X168656Y9017
X171450Y11684
X170942Y14097
X166319Y14122
X164338Y19939
X166751Y13894
X164719Y18669
X173228Y25654
X168275Y27940
X173736Y25654
X168783Y27940
X162941Y3302
X165100Y21844
X175020Y28500
X173101Y10617
X177165Y30861
X163513Y31940
X8890Y63881
X4191Y55245
X5715Y55499
X9322Y55016
X12001Y55245
X14922Y62103
X12700Y61468
X12446Y67945
X5334Y68072
X3429Y69088
X6985Y68961
X13995Y70485
X3556Y57404
X7798Y48565
X10414Y46609
X6985Y46609
X6833Y43409
X4623Y43053
X4572Y40767
X14935Y43078
X13970Y40640
X13970Y45212
X3302Y50546
X7620Y49530
X7620Y52070
X10160Y52070
X8890Y49530
X7620Y50800
X10160Y50800
X8890Y52070
X3683Y47752
X14732Y51816
X10160Y49530
X11379Y54889
X14605Y49149
X14211Y54229
X11328Y53264
X4826Y60706
X14592Y56642
X12700Y47498
X7112Y40259
X10668Y40259
X6223Y52959
X6223Y48260
X11557Y48768
X8484Y52934
X6223Y50902
X5588Y54102
X7620Y59182
X7188Y57734
X5080Y64008
X14199Y71882
X12395Y71907
X5359Y71907
X3708Y71907
X4978Y65684
X12675Y65049
X14199Y62763
X14199Y67310
X8890Y62459
X12573Y56007
X13500Y56921
X9919Y59385
X8191Y63665
X10160Y67310
X14224Y67818
X7239Y67183
X6223Y68707
X11150Y67971
X13081Y46863
X8026Y43409
X4699Y53594
X9281Y62144
X6350Y49511
X7315Y48387
X8890Y53340
X13081Y50673
X12636Y54229
X10490Y54864
X4445Y64008
X13462Y56388
X10287Y48260
X11227Y43815
X13843Y61798
X9779Y48260
X9271Y48260
X13081Y49530
X4572Y49149
X4572Y48695
X6477Y50419
X6477Y49965
X14351Y47665
X11303Y48260
X12065Y43307
X10817Y48260
X11659Y42672
X7725Y53457
X7747Y57912
X7264Y53257
X7366Y56769
X8255Y53340
X8255Y59309
X8128Y48133
X4572Y47828
X9852Y53213
X13716Y62738
X9398Y53213
X13208Y62738
X6350Y51435
X8636Y48387
X11430Y51054
X10922Y53467
X6299Y53492
X4318Y59309
X6731Y53264
X4699Y58039
X13208Y65024
X8255Y67310
X13716Y65024
X8763Y67310
X2921Y42672
X5080Y61214
X15000Y67870
X13081Y49987
X17145Y70231
X3492Y71311
X31750Y63881
X27051Y55245
X28575Y55499
X32182Y55016
X34862Y55245
X37783Y62103
X35560Y61468
X35306Y67945
X28194Y68072
X26289Y69088
X29845Y68961
X36855Y70485
X26416Y57404
X30658Y48565
X33274Y46609
X29845Y46609
X29693Y43409
X27483Y43053
X27432Y40767
X37795Y43078
X36830Y40640
X36830Y45212
X26162Y50546
X30480Y49530
X30480Y52070
X33020Y52070
X31750Y49530
X30480Y50800
X33020Y50800
X31750Y52070
X26543Y47752
X37592Y51816
X33020Y49530
X34239Y54889
X37465Y49149
X37071Y54229
X34188Y53264
X27686Y60706
X37452Y56642
X35560Y47498
X29972Y40259
X33528Y40259
X29083Y52959
X29083Y48260
X34417Y48768
X31344Y52934
X29083Y50902
X28448Y54102
X30480Y59182
X30048Y57734
X27940Y64008
X37059Y71882
X35255Y71907
X28219Y71907
X26568Y71907
X27838Y65684
X35535Y65049
X37059Y62763
X37059Y67310
X31750Y62459
X35433Y56007
X36360Y56921
X32779Y59385
X31051Y63665
X33020Y67310
X37084Y67818
X30099Y67183
X29083Y68707
X34010Y67971
X35941Y46863
X30886Y43409
X27559Y53594
X32141Y62144
X29210Y49511
X30175Y48387
X31750Y53340
X35941Y50673
X35497Y54229
X33350Y54864
X27305Y64008
X36322Y56388
X33147Y48260
X34087Y43815
X36703Y61798
X32639Y48260
X32131Y48260
X35941Y49530
X27432Y49149
X27432Y48695
X29337Y50419
X29337Y49965
X37211Y47665
X34163Y48260
X34925Y43307
X33677Y48260
X34519Y42672
X30585Y53457
X30607Y57912
X30124Y53257
X30226Y56769
X31115Y53340
X31115Y59309
X30988Y48133
X27432Y47828
X32712Y53213
X36576Y62738
X32258Y53213
X36068Y62738
X29210Y51435
X31496Y48387
X34290Y51054
X33782Y53467
X29159Y53492
X27178Y59309
X29591Y53264
X27559Y58039
X36068Y65024
X31115Y67310
X36576Y65024
X31623Y67310
X25781Y42672
X27940Y61214
X37860Y67870
X35941Y49987
X40005Y70231
X26352Y71311
X54610Y63881
X49911Y55245
X51435Y55499
X55042Y55016
X57721Y55245
X60642Y62103
X58420Y61468
X58166Y67945
X51054Y68072
X49149Y69088
X52705Y68961
X59715Y70485
X49276Y57404
X53518Y48565
X56134Y46609
X52705Y46609
X52553Y43409
X50343Y43053
X50292Y40767
X60655Y43078
X59690Y40640
X59690Y45212
X49022Y50546
X53340Y49530
X53340Y52070
X55880Y52070
X54610Y49530
X53340Y50800
X55880Y50800
X54610Y52070
X49403Y47752
X60452Y51816
X55880Y49530
X57099Y54889
X60325Y49149
X59931Y54229
M30