G04 EAGLE Gerber RS-274X export*
G75*
%MOMM*%
%FSLAX34Y34*%
%LPD*%
%INSolderpaste Top*%
%IPPOS*%
%AMOC8*
5,1,8,0,0,1.08239X$1,22.5*%
G01*
%ADD10R,0.600000X0.600000*%
%ADD11C,0.300000*%
%ADD12R,1.000000X0.900000*%
%ADD13R,1.200000X2.000000*%
%ADD14R,0.600000X1.350000*%
%ADD15R,0.300000X1.000000*%
%ADD16R,0.600000X1.000000*%
%ADD17R,1.200000X1.100000*%
%ADD18R,0.850000X0.500000*%
%ADD19R,0.800000X0.800000*%
%ADD20R,0.700000X0.700000*%
%ADD21R,0.650000X0.200000*%
%ADD22R,0.200000X0.650000*%
%ADD23R,2.000000X0.800000*%

G36*
X45904Y669015D02*
X45904Y669015D01*
X45907Y669011D01*
X47015Y669181D01*
X47021Y669187D01*
X47026Y669184D01*
X48068Y669596D01*
X48072Y669603D01*
X48077Y669601D01*
X49002Y670235D01*
X49004Y670243D01*
X49010Y670242D01*
X49770Y671066D01*
X49771Y671074D01*
X49777Y671074D01*
X50334Y672046D01*
X50334Y672050D01*
X50335Y672051D01*
X50333Y672053D01*
X50333Y672054D01*
X50339Y672056D01*
X50666Y673128D01*
X50665Y673133D01*
X50667Y673134D01*
X50665Y673137D01*
X50668Y673139D01*
X50749Y674256D01*
X50748Y674259D01*
X50749Y674260D01*
X50749Y686260D01*
X50744Y686267D01*
X50748Y686271D01*
X50529Y687215D01*
X50523Y687221D01*
X50525Y687226D01*
X50102Y688098D01*
X50094Y688101D01*
X50096Y688107D01*
X49489Y688863D01*
X49481Y688865D01*
X49481Y688871D01*
X48721Y689472D01*
X48712Y689472D01*
X48711Y689478D01*
X47836Y689896D01*
X47828Y689894D01*
X47826Y689899D01*
X46880Y690112D01*
X46873Y690108D01*
X46869Y690113D01*
X45900Y690109D01*
X45899Y690109D01*
X44831Y690090D01*
X44830Y690090D01*
X44824Y690086D01*
X44820Y690089D01*
X43783Y689833D01*
X43778Y689826D01*
X43772Y689829D01*
X42818Y689348D01*
X42815Y689341D01*
X42809Y689342D01*
X41986Y688661D01*
X41984Y688653D01*
X41978Y688653D01*
X41327Y687806D01*
X41327Y687798D01*
X41321Y687797D01*
X40874Y686826D01*
X40876Y686818D01*
X40871Y686816D01*
X40652Y685770D01*
X40655Y685763D01*
X40651Y685760D01*
X40651Y673760D01*
X40654Y673755D01*
X40651Y673752D01*
X40831Y672657D01*
X40837Y672651D01*
X40834Y672646D01*
X41253Y671618D01*
X41260Y671614D01*
X41258Y671609D01*
X41896Y670700D01*
X41903Y670698D01*
X41903Y670692D01*
X42726Y669948D01*
X42734Y669947D01*
X42735Y669941D01*
X43703Y669399D01*
X43712Y669400D01*
X43714Y669394D01*
X44778Y669081D01*
X44786Y669084D01*
X44789Y669079D01*
X45897Y669011D01*
X45904Y669015D01*
G37*
G36*
X274504Y669015D02*
X274504Y669015D01*
X274507Y669011D01*
X275615Y669181D01*
X275621Y669187D01*
X275626Y669184D01*
X276668Y669596D01*
X276672Y669603D01*
X276677Y669601D01*
X277602Y670235D01*
X277604Y670243D01*
X277610Y670242D01*
X278370Y671066D01*
X278371Y671074D01*
X278377Y671074D01*
X278934Y672046D01*
X278934Y672050D01*
X278935Y672051D01*
X278933Y672053D01*
X278933Y672054D01*
X278939Y672056D01*
X279266Y673128D01*
X279265Y673133D01*
X279267Y673134D01*
X279265Y673137D01*
X279268Y673139D01*
X279349Y674256D01*
X279348Y674259D01*
X279349Y674260D01*
X279349Y686260D01*
X279344Y686267D01*
X279348Y686271D01*
X279129Y687215D01*
X279123Y687221D01*
X279125Y687226D01*
X278702Y688098D01*
X278694Y688101D01*
X278696Y688107D01*
X278089Y688863D01*
X278081Y688865D01*
X278081Y688871D01*
X277321Y689472D01*
X277312Y689472D01*
X277311Y689478D01*
X276436Y689896D01*
X276428Y689894D01*
X276426Y689899D01*
X275480Y690112D01*
X275473Y690108D01*
X275469Y690113D01*
X274500Y690109D01*
X274499Y690109D01*
X273431Y690090D01*
X273430Y690090D01*
X273424Y690086D01*
X273420Y690089D01*
X272383Y689833D01*
X272378Y689826D01*
X272372Y689829D01*
X271418Y689348D01*
X271415Y689341D01*
X271409Y689342D01*
X270586Y688661D01*
X270584Y688653D01*
X270578Y688653D01*
X269927Y687806D01*
X269927Y687798D01*
X269921Y687797D01*
X269474Y686826D01*
X269476Y686818D01*
X269471Y686816D01*
X269252Y685770D01*
X269255Y685763D01*
X269251Y685760D01*
X269251Y673760D01*
X269254Y673755D01*
X269251Y673752D01*
X269431Y672657D01*
X269437Y672651D01*
X269434Y672646D01*
X269853Y671618D01*
X269860Y671614D01*
X269858Y671609D01*
X270496Y670700D01*
X270503Y670698D01*
X270503Y670692D01*
X271326Y669948D01*
X271334Y669947D01*
X271335Y669941D01*
X272303Y669399D01*
X272312Y669400D01*
X272314Y669394D01*
X273378Y669081D01*
X273386Y669084D01*
X273389Y669079D01*
X274497Y669011D01*
X274504Y669015D01*
G37*
G36*
X503104Y669015D02*
X503104Y669015D01*
X503107Y669011D01*
X504215Y669181D01*
X504221Y669187D01*
X504226Y669184D01*
X505268Y669596D01*
X505272Y669603D01*
X505277Y669601D01*
X506202Y670235D01*
X506204Y670243D01*
X506210Y670242D01*
X506970Y671066D01*
X506971Y671074D01*
X506977Y671074D01*
X507534Y672046D01*
X507534Y672050D01*
X507535Y672051D01*
X507533Y672053D01*
X507533Y672054D01*
X507539Y672056D01*
X507866Y673128D01*
X507865Y673133D01*
X507867Y673134D01*
X507865Y673137D01*
X507868Y673139D01*
X507949Y674256D01*
X507948Y674259D01*
X507949Y674260D01*
X507949Y686260D01*
X507944Y686267D01*
X507948Y686271D01*
X507729Y687215D01*
X507723Y687221D01*
X507725Y687226D01*
X507302Y688098D01*
X507294Y688101D01*
X507296Y688107D01*
X506689Y688863D01*
X506681Y688865D01*
X506681Y688871D01*
X505921Y689472D01*
X505912Y689472D01*
X505911Y689478D01*
X505036Y689896D01*
X505028Y689894D01*
X505026Y689899D01*
X504080Y690112D01*
X504073Y690108D01*
X504069Y690113D01*
X503100Y690109D01*
X503099Y690109D01*
X502031Y690090D01*
X502030Y690090D01*
X502024Y690086D01*
X502020Y690089D01*
X500983Y689833D01*
X500978Y689826D01*
X500972Y689829D01*
X500018Y689348D01*
X500015Y689341D01*
X500009Y689342D01*
X499186Y688661D01*
X499184Y688653D01*
X499178Y688653D01*
X498527Y687806D01*
X498527Y687798D01*
X498521Y687797D01*
X498074Y686826D01*
X498076Y686818D01*
X498071Y686816D01*
X497852Y685770D01*
X497855Y685763D01*
X497851Y685760D01*
X497851Y673760D01*
X497854Y673755D01*
X497851Y673752D01*
X498031Y672657D01*
X498037Y672651D01*
X498034Y672646D01*
X498453Y671618D01*
X498460Y671614D01*
X498458Y671609D01*
X499096Y670700D01*
X499103Y670698D01*
X499103Y670692D01*
X499926Y669948D01*
X499934Y669947D01*
X499935Y669941D01*
X500903Y669399D01*
X500912Y669400D01*
X500914Y669394D01*
X501978Y669081D01*
X501986Y669084D01*
X501989Y669079D01*
X503097Y669011D01*
X503104Y669015D01*
G37*
G36*
X274504Y265155D02*
X274504Y265155D01*
X274507Y265151D01*
X275615Y265321D01*
X275621Y265327D01*
X275626Y265324D01*
X276668Y265736D01*
X276672Y265743D01*
X276677Y265741D01*
X277602Y266375D01*
X277604Y266383D01*
X277610Y266382D01*
X278370Y267206D01*
X278371Y267214D01*
X278377Y267214D01*
X278934Y268186D01*
X278934Y268190D01*
X278935Y268191D01*
X278933Y268193D01*
X278933Y268194D01*
X278939Y268196D01*
X279266Y269268D01*
X279265Y269273D01*
X279267Y269274D01*
X279265Y269277D01*
X279268Y269279D01*
X279349Y270396D01*
X279348Y270399D01*
X279349Y270400D01*
X279349Y282400D01*
X279344Y282407D01*
X279348Y282411D01*
X279129Y283355D01*
X279123Y283361D01*
X279125Y283366D01*
X278702Y284238D01*
X278694Y284241D01*
X278696Y284247D01*
X278089Y285003D01*
X278081Y285005D01*
X278081Y285011D01*
X277321Y285612D01*
X277312Y285612D01*
X277311Y285618D01*
X276436Y286036D01*
X276428Y286034D01*
X276426Y286039D01*
X275480Y286252D01*
X275473Y286248D01*
X275469Y286253D01*
X274500Y286249D01*
X274499Y286249D01*
X273431Y286230D01*
X273430Y286230D01*
X273424Y286226D01*
X273420Y286229D01*
X272383Y285973D01*
X272378Y285966D01*
X272372Y285969D01*
X271418Y285488D01*
X271415Y285481D01*
X271409Y285482D01*
X270586Y284801D01*
X270584Y284793D01*
X270578Y284793D01*
X269927Y283946D01*
X269927Y283938D01*
X269921Y283937D01*
X269474Y282966D01*
X269476Y282958D01*
X269471Y282956D01*
X269252Y281910D01*
X269255Y281903D01*
X269251Y281900D01*
X269251Y269900D01*
X269254Y269895D01*
X269251Y269892D01*
X269431Y268797D01*
X269437Y268791D01*
X269434Y268786D01*
X269853Y267758D01*
X269860Y267754D01*
X269858Y267749D01*
X270496Y266840D01*
X270503Y266838D01*
X270503Y266832D01*
X271326Y266088D01*
X271334Y266087D01*
X271335Y266081D01*
X272303Y265539D01*
X272312Y265540D01*
X272314Y265534D01*
X273378Y265221D01*
X273386Y265224D01*
X273389Y265219D01*
X274497Y265151D01*
X274504Y265155D01*
G37*
G36*
X503104Y265155D02*
X503104Y265155D01*
X503107Y265151D01*
X504215Y265321D01*
X504221Y265327D01*
X504226Y265324D01*
X505268Y265736D01*
X505272Y265743D01*
X505277Y265741D01*
X506202Y266375D01*
X506204Y266383D01*
X506210Y266382D01*
X506970Y267206D01*
X506971Y267214D01*
X506977Y267214D01*
X507534Y268186D01*
X507534Y268190D01*
X507535Y268191D01*
X507533Y268193D01*
X507533Y268194D01*
X507539Y268196D01*
X507866Y269268D01*
X507865Y269273D01*
X507867Y269274D01*
X507865Y269277D01*
X507868Y269279D01*
X507949Y270396D01*
X507948Y270399D01*
X507949Y270400D01*
X507949Y282400D01*
X507944Y282407D01*
X507948Y282411D01*
X507729Y283355D01*
X507723Y283361D01*
X507725Y283366D01*
X507302Y284238D01*
X507294Y284241D01*
X507296Y284247D01*
X506689Y285003D01*
X506681Y285005D01*
X506681Y285011D01*
X505921Y285612D01*
X505912Y285612D01*
X505911Y285618D01*
X505036Y286036D01*
X505028Y286034D01*
X505026Y286039D01*
X504080Y286252D01*
X504073Y286248D01*
X504069Y286253D01*
X503100Y286249D01*
X503099Y286249D01*
X502031Y286230D01*
X502030Y286230D01*
X502024Y286226D01*
X502020Y286229D01*
X500983Y285973D01*
X500978Y285966D01*
X500972Y285969D01*
X500018Y285488D01*
X500015Y285481D01*
X500009Y285482D01*
X499186Y284801D01*
X499184Y284793D01*
X499178Y284793D01*
X498527Y283946D01*
X498527Y283938D01*
X498521Y283937D01*
X498074Y282966D01*
X498076Y282958D01*
X498071Y282956D01*
X497852Y281910D01*
X497855Y281903D01*
X497851Y281900D01*
X497851Y269900D01*
X497854Y269895D01*
X497851Y269892D01*
X498031Y268797D01*
X498037Y268791D01*
X498034Y268786D01*
X498453Y267758D01*
X498460Y267754D01*
X498458Y267749D01*
X499096Y266840D01*
X499103Y266838D01*
X499103Y266832D01*
X499926Y266088D01*
X499934Y266087D01*
X499935Y266081D01*
X500903Y265539D01*
X500912Y265540D01*
X500914Y265534D01*
X501978Y265221D01*
X501986Y265224D01*
X501989Y265219D01*
X503097Y265151D01*
X503104Y265155D01*
G37*
G36*
X45904Y265155D02*
X45904Y265155D01*
X45907Y265151D01*
X47015Y265321D01*
X47021Y265327D01*
X47026Y265324D01*
X48068Y265736D01*
X48072Y265743D01*
X48077Y265741D01*
X49002Y266375D01*
X49004Y266383D01*
X49010Y266382D01*
X49770Y267206D01*
X49771Y267214D01*
X49777Y267214D01*
X50334Y268186D01*
X50334Y268190D01*
X50335Y268191D01*
X50333Y268193D01*
X50333Y268194D01*
X50339Y268196D01*
X50666Y269268D01*
X50665Y269273D01*
X50667Y269274D01*
X50665Y269277D01*
X50668Y269279D01*
X50749Y270396D01*
X50748Y270399D01*
X50749Y270400D01*
X50749Y282400D01*
X50744Y282407D01*
X50748Y282411D01*
X50529Y283355D01*
X50523Y283361D01*
X50525Y283366D01*
X50102Y284238D01*
X50094Y284241D01*
X50096Y284247D01*
X49489Y285003D01*
X49481Y285005D01*
X49481Y285011D01*
X48721Y285612D01*
X48712Y285612D01*
X48711Y285618D01*
X47836Y286036D01*
X47828Y286034D01*
X47826Y286039D01*
X46880Y286252D01*
X46873Y286248D01*
X46869Y286253D01*
X45900Y286249D01*
X45899Y286249D01*
X44831Y286230D01*
X44830Y286230D01*
X44824Y286226D01*
X44820Y286229D01*
X43783Y285973D01*
X43778Y285966D01*
X43772Y285969D01*
X42818Y285488D01*
X42815Y285481D01*
X42809Y285482D01*
X41986Y284801D01*
X41984Y284793D01*
X41978Y284793D01*
X41327Y283946D01*
X41327Y283938D01*
X41321Y283937D01*
X40874Y282966D01*
X40876Y282958D01*
X40871Y282956D01*
X40652Y281910D01*
X40655Y281903D01*
X40651Y281900D01*
X40651Y269900D01*
X40654Y269895D01*
X40651Y269892D01*
X40831Y268797D01*
X40837Y268791D01*
X40834Y268786D01*
X41253Y267758D01*
X41260Y267754D01*
X41258Y267749D01*
X41896Y266840D01*
X41903Y266838D01*
X41903Y266832D01*
X42726Y266088D01*
X42734Y266087D01*
X42735Y266081D01*
X43703Y265539D01*
X43712Y265540D01*
X43714Y265534D01*
X44778Y265221D01*
X44786Y265224D01*
X44789Y265219D01*
X45897Y265151D01*
X45904Y265155D01*
G37*
G36*
X132402Y669014D02*
X132402Y669014D01*
X132406Y669011D01*
X133451Y669129D01*
X133457Y669135D01*
X133462Y669131D01*
X134456Y669479D01*
X134460Y669486D01*
X134465Y669484D01*
X135357Y670044D01*
X135360Y670051D01*
X135365Y670051D01*
X136109Y670795D01*
X136111Y670803D01*
X136116Y670803D01*
X136676Y671695D01*
X136676Y671702D01*
X136677Y671703D01*
X136681Y671704D01*
X137029Y672698D01*
X137026Y672706D01*
X137031Y672709D01*
X137149Y673755D01*
X137147Y673758D01*
X137149Y673760D01*
X137149Y685760D01*
X137146Y685765D01*
X137149Y685768D01*
X136991Y686764D01*
X136985Y686770D01*
X136988Y686775D01*
X136613Y687711D01*
X136606Y687715D01*
X136608Y687721D01*
X136034Y688550D01*
X136026Y688553D01*
X136027Y688558D01*
X135283Y689239D01*
X135274Y689240D01*
X135274Y689246D01*
X134397Y689744D01*
X134389Y689743D01*
X134386Y689748D01*
X133421Y690039D01*
X133413Y690036D01*
X133410Y690041D01*
X132403Y690109D01*
X132401Y690108D01*
X132400Y690109D01*
X131319Y690100D01*
X131312Y690095D01*
X131308Y690099D01*
X130256Y689850D01*
X130251Y689843D01*
X130246Y689846D01*
X129276Y689369D01*
X129273Y689361D01*
X129267Y689363D01*
X128428Y688682D01*
X128426Y688674D01*
X128420Y688674D01*
X127754Y687824D01*
X127753Y687815D01*
X127748Y687814D01*
X127287Y686837D01*
X127289Y686829D01*
X127284Y686826D01*
X127052Y685771D01*
X127055Y685763D01*
X127051Y685760D01*
X127051Y673760D01*
X127055Y673755D01*
X127051Y673752D01*
X127244Y672646D01*
X127250Y672641D01*
X127247Y672636D01*
X127680Y671601D01*
X127687Y671597D01*
X127685Y671592D01*
X128338Y670679D01*
X128346Y670677D01*
X128345Y670671D01*
X129184Y669927D01*
X129193Y669926D01*
X129193Y669921D01*
X130177Y669382D01*
X130185Y669383D01*
X130187Y669378D01*
X131266Y669071D01*
X131274Y669074D01*
X131277Y669069D01*
X132397Y669011D01*
X132402Y669014D01*
G37*
G36*
X361002Y669014D02*
X361002Y669014D01*
X361006Y669011D01*
X362051Y669129D01*
X362057Y669135D01*
X362062Y669131D01*
X363056Y669479D01*
X363060Y669486D01*
X363065Y669484D01*
X363957Y670044D01*
X363960Y670051D01*
X363965Y670051D01*
X364709Y670795D01*
X364711Y670803D01*
X364716Y670803D01*
X365276Y671695D01*
X365276Y671702D01*
X365277Y671703D01*
X365281Y671704D01*
X365629Y672698D01*
X365626Y672706D01*
X365631Y672709D01*
X365749Y673755D01*
X365747Y673758D01*
X365749Y673760D01*
X365749Y685760D01*
X365746Y685765D01*
X365749Y685768D01*
X365591Y686764D01*
X365585Y686770D01*
X365588Y686775D01*
X365213Y687711D01*
X365206Y687715D01*
X365208Y687721D01*
X364634Y688550D01*
X364626Y688553D01*
X364627Y688558D01*
X363883Y689239D01*
X363874Y689240D01*
X363874Y689246D01*
X362997Y689744D01*
X362989Y689743D01*
X362986Y689748D01*
X362021Y690039D01*
X362013Y690036D01*
X362010Y690041D01*
X361003Y690109D01*
X361001Y690108D01*
X361000Y690109D01*
X359919Y690100D01*
X359912Y690095D01*
X359908Y690099D01*
X358856Y689850D01*
X358851Y689843D01*
X358846Y689846D01*
X357876Y689369D01*
X357873Y689361D01*
X357867Y689363D01*
X357028Y688682D01*
X357026Y688674D01*
X357020Y688674D01*
X356354Y687824D01*
X356353Y687815D01*
X356348Y687814D01*
X355887Y686837D01*
X355889Y686829D01*
X355884Y686826D01*
X355652Y685771D01*
X355655Y685763D01*
X355651Y685760D01*
X355651Y673760D01*
X355655Y673755D01*
X355651Y673752D01*
X355844Y672646D01*
X355850Y672641D01*
X355847Y672636D01*
X356280Y671601D01*
X356287Y671597D01*
X356285Y671592D01*
X356938Y670679D01*
X356946Y670677D01*
X356945Y670671D01*
X357784Y669927D01*
X357793Y669926D01*
X357793Y669921D01*
X358777Y669382D01*
X358785Y669383D01*
X358787Y669378D01*
X359866Y669071D01*
X359874Y669074D01*
X359877Y669069D01*
X360997Y669011D01*
X361002Y669014D01*
G37*
G36*
X589602Y669014D02*
X589602Y669014D01*
X589606Y669011D01*
X590651Y669129D01*
X590657Y669135D01*
X590662Y669131D01*
X591656Y669479D01*
X591660Y669486D01*
X591665Y669484D01*
X592557Y670044D01*
X592560Y670051D01*
X592565Y670051D01*
X593309Y670795D01*
X593311Y670803D01*
X593316Y670803D01*
X593876Y671695D01*
X593876Y671702D01*
X593877Y671703D01*
X593881Y671704D01*
X594229Y672698D01*
X594226Y672706D01*
X594231Y672709D01*
X594349Y673755D01*
X594347Y673758D01*
X594349Y673760D01*
X594349Y685760D01*
X594346Y685765D01*
X594349Y685768D01*
X594191Y686764D01*
X594185Y686770D01*
X594188Y686775D01*
X593813Y687711D01*
X593806Y687715D01*
X593808Y687721D01*
X593234Y688550D01*
X593226Y688553D01*
X593227Y688558D01*
X592483Y689239D01*
X592474Y689240D01*
X592474Y689246D01*
X591597Y689744D01*
X591589Y689743D01*
X591586Y689748D01*
X590621Y690039D01*
X590613Y690036D01*
X590610Y690041D01*
X589603Y690109D01*
X589601Y690108D01*
X589600Y690109D01*
X588519Y690100D01*
X588512Y690095D01*
X588508Y690099D01*
X587456Y689850D01*
X587451Y689843D01*
X587446Y689846D01*
X586476Y689369D01*
X586473Y689361D01*
X586467Y689363D01*
X585628Y688682D01*
X585626Y688674D01*
X585620Y688674D01*
X584954Y687824D01*
X584953Y687815D01*
X584948Y687814D01*
X584487Y686837D01*
X584489Y686829D01*
X584484Y686826D01*
X584252Y685771D01*
X584255Y685763D01*
X584251Y685760D01*
X584251Y673760D01*
X584255Y673755D01*
X584251Y673752D01*
X584444Y672646D01*
X584450Y672641D01*
X584447Y672636D01*
X584880Y671601D01*
X584887Y671597D01*
X584885Y671592D01*
X585538Y670679D01*
X585546Y670677D01*
X585545Y670671D01*
X586384Y669927D01*
X586393Y669926D01*
X586393Y669921D01*
X587377Y669382D01*
X587385Y669383D01*
X587387Y669378D01*
X588466Y669071D01*
X588474Y669074D01*
X588477Y669069D01*
X589597Y669011D01*
X589602Y669014D01*
G37*
G36*
X132402Y265154D02*
X132402Y265154D01*
X132406Y265151D01*
X133451Y265269D01*
X133457Y265275D01*
X133462Y265271D01*
X134456Y265619D01*
X134460Y265626D01*
X134465Y265624D01*
X135357Y266184D01*
X135360Y266191D01*
X135365Y266191D01*
X136109Y266935D01*
X136111Y266943D01*
X136116Y266943D01*
X136676Y267835D01*
X136676Y267842D01*
X136677Y267843D01*
X136681Y267844D01*
X137029Y268838D01*
X137026Y268846D01*
X137031Y268849D01*
X137149Y269895D01*
X137147Y269898D01*
X137149Y269900D01*
X137149Y281900D01*
X137146Y281905D01*
X137149Y281908D01*
X136991Y282904D01*
X136985Y282910D01*
X136988Y282915D01*
X136613Y283851D01*
X136606Y283855D01*
X136608Y283861D01*
X136034Y284690D01*
X136026Y284693D01*
X136027Y284698D01*
X135283Y285379D01*
X135274Y285380D01*
X135274Y285386D01*
X134397Y285884D01*
X134389Y285883D01*
X134386Y285888D01*
X133421Y286179D01*
X133413Y286176D01*
X133410Y286181D01*
X132403Y286249D01*
X132401Y286248D01*
X132400Y286249D01*
X131319Y286240D01*
X131312Y286235D01*
X131308Y286239D01*
X130256Y285990D01*
X130251Y285983D01*
X130246Y285986D01*
X129276Y285509D01*
X129273Y285501D01*
X129267Y285503D01*
X128428Y284822D01*
X128426Y284814D01*
X128420Y284814D01*
X127754Y283964D01*
X127753Y283955D01*
X127748Y283954D01*
X127287Y282977D01*
X127289Y282969D01*
X127284Y282966D01*
X127052Y281911D01*
X127055Y281903D01*
X127051Y281900D01*
X127051Y269900D01*
X127055Y269895D01*
X127051Y269892D01*
X127244Y268786D01*
X127250Y268781D01*
X127247Y268776D01*
X127680Y267741D01*
X127687Y267737D01*
X127685Y267732D01*
X128338Y266819D01*
X128346Y266817D01*
X128345Y266811D01*
X129184Y266067D01*
X129193Y266066D01*
X129193Y266061D01*
X130177Y265522D01*
X130185Y265523D01*
X130187Y265518D01*
X131266Y265211D01*
X131274Y265214D01*
X131277Y265209D01*
X132397Y265151D01*
X132402Y265154D01*
G37*
G36*
X589602Y265154D02*
X589602Y265154D01*
X589606Y265151D01*
X590651Y265269D01*
X590657Y265275D01*
X590662Y265271D01*
X591656Y265619D01*
X591660Y265626D01*
X591665Y265624D01*
X592557Y266184D01*
X592560Y266191D01*
X592565Y266191D01*
X593309Y266935D01*
X593311Y266943D01*
X593316Y266943D01*
X593876Y267835D01*
X593876Y267842D01*
X593877Y267843D01*
X593881Y267844D01*
X594229Y268838D01*
X594226Y268846D01*
X594231Y268849D01*
X594349Y269895D01*
X594347Y269898D01*
X594349Y269900D01*
X594349Y281900D01*
X594346Y281905D01*
X594349Y281908D01*
X594191Y282904D01*
X594185Y282910D01*
X594188Y282915D01*
X593813Y283851D01*
X593806Y283855D01*
X593808Y283861D01*
X593234Y284690D01*
X593226Y284693D01*
X593227Y284698D01*
X592483Y285379D01*
X592474Y285380D01*
X592474Y285386D01*
X591597Y285884D01*
X591589Y285883D01*
X591586Y285888D01*
X590621Y286179D01*
X590613Y286176D01*
X590610Y286181D01*
X589603Y286249D01*
X589601Y286248D01*
X589600Y286249D01*
X588519Y286240D01*
X588512Y286235D01*
X588508Y286239D01*
X587456Y285990D01*
X587451Y285983D01*
X587446Y285986D01*
X586476Y285509D01*
X586473Y285501D01*
X586467Y285503D01*
X585628Y284822D01*
X585626Y284814D01*
X585620Y284814D01*
X584954Y283964D01*
X584953Y283955D01*
X584948Y283954D01*
X584487Y282977D01*
X584489Y282969D01*
X584484Y282966D01*
X584252Y281911D01*
X584255Y281903D01*
X584251Y281900D01*
X584251Y269900D01*
X584255Y269895D01*
X584251Y269892D01*
X584444Y268786D01*
X584450Y268781D01*
X584447Y268776D01*
X584880Y267741D01*
X584887Y267737D01*
X584885Y267732D01*
X585538Y266819D01*
X585546Y266817D01*
X585545Y266811D01*
X586384Y266067D01*
X586393Y266066D01*
X586393Y266061D01*
X587377Y265522D01*
X587385Y265523D01*
X587387Y265518D01*
X588466Y265211D01*
X588474Y265214D01*
X588477Y265209D01*
X589597Y265151D01*
X589602Y265154D01*
G37*
G36*
X361002Y265154D02*
X361002Y265154D01*
X361006Y265151D01*
X362051Y265269D01*
X362057Y265275D01*
X362062Y265271D01*
X363056Y265619D01*
X363060Y265626D01*
X363065Y265624D01*
X363957Y266184D01*
X363960Y266191D01*
X363965Y266191D01*
X364709Y266935D01*
X364711Y266943D01*
X364716Y266943D01*
X365276Y267835D01*
X365276Y267842D01*
X365277Y267843D01*
X365281Y267844D01*
X365629Y268838D01*
X365626Y268846D01*
X365631Y268849D01*
X365749Y269895D01*
X365747Y269898D01*
X365749Y269900D01*
X365749Y281900D01*
X365746Y281905D01*
X365749Y281908D01*
X365591Y282904D01*
X365585Y282910D01*
X365588Y282915D01*
X365213Y283851D01*
X365206Y283855D01*
X365208Y283861D01*
X364634Y284690D01*
X364626Y284693D01*
X364627Y284698D01*
X363883Y285379D01*
X363874Y285380D01*
X363874Y285386D01*
X362997Y285884D01*
X362989Y285883D01*
X362986Y285888D01*
X362021Y286179D01*
X362013Y286176D01*
X362010Y286181D01*
X361003Y286249D01*
X361001Y286248D01*
X361000Y286249D01*
X359919Y286240D01*
X359912Y286235D01*
X359908Y286239D01*
X358856Y285990D01*
X358851Y285983D01*
X358846Y285986D01*
X357876Y285509D01*
X357873Y285501D01*
X357867Y285503D01*
X357028Y284822D01*
X357026Y284814D01*
X357020Y284814D01*
X356354Y283964D01*
X356353Y283955D01*
X356348Y283954D01*
X355887Y282977D01*
X355889Y282969D01*
X355884Y282966D01*
X355652Y281911D01*
X355655Y281903D01*
X355651Y281900D01*
X355651Y269900D01*
X355655Y269895D01*
X355651Y269892D01*
X355844Y268786D01*
X355850Y268781D01*
X355847Y268776D01*
X356280Y267741D01*
X356287Y267737D01*
X356285Y267732D01*
X356938Y266819D01*
X356946Y266817D01*
X356945Y266811D01*
X357784Y266067D01*
X357793Y266066D01*
X357793Y266061D01*
X358777Y265522D01*
X358785Y265523D01*
X358787Y265518D01*
X359866Y265211D01*
X359874Y265214D01*
X359877Y265209D01*
X360997Y265151D01*
X361002Y265154D01*
G37*
G36*
X503104Y713516D02*
X503104Y713516D01*
X503109Y713512D01*
X504246Y713719D01*
X504252Y713725D01*
X504257Y713722D01*
X505319Y714177D01*
X505323Y714184D01*
X505329Y714182D01*
X506264Y714862D01*
X506266Y714870D01*
X506272Y714869D01*
X507032Y715740D01*
X507032Y715748D01*
X507038Y715749D01*
X507585Y716768D01*
X507584Y716776D01*
X507589Y716778D01*
X507595Y716797D01*
X507608Y716846D01*
X507622Y716896D01*
X507635Y716945D01*
X507649Y716994D01*
X507662Y717043D01*
X507663Y717043D01*
X507662Y717043D01*
X507676Y717093D01*
X507690Y717142D01*
X507703Y717191D01*
X507717Y717240D01*
X507730Y717290D01*
X507744Y717339D01*
X507757Y717388D01*
X507771Y717437D01*
X507785Y717487D01*
X507798Y717536D01*
X507812Y717585D01*
X507896Y717892D01*
X507893Y717900D01*
X507898Y717903D01*
X507949Y719058D01*
X507948Y719059D01*
X507949Y719060D01*
X507949Y725060D01*
X507945Y725066D01*
X507948Y725069D01*
X507736Y726150D01*
X507730Y726155D01*
X507733Y726160D01*
X507286Y727166D01*
X507279Y727170D01*
X507281Y727176D01*
X506621Y728057D01*
X506613Y728060D01*
X506613Y728065D01*
X505774Y728778D01*
X505766Y728778D01*
X505765Y728784D01*
X504788Y729292D01*
X504780Y729291D01*
X504778Y729296D01*
X503713Y729574D01*
X503705Y729571D01*
X503702Y729575D01*
X502602Y729609D01*
X502596Y729606D01*
X502593Y729609D01*
X501518Y729454D01*
X501512Y729448D01*
X501507Y729451D01*
X500493Y729061D01*
X500489Y729054D01*
X500483Y729056D01*
X499581Y728449D01*
X499579Y728441D01*
X499573Y728442D01*
X498829Y727650D01*
X498828Y727642D01*
X498822Y727642D01*
X498273Y726704D01*
X498274Y726696D01*
X498268Y726694D01*
X497941Y725658D01*
X497944Y725650D01*
X497939Y725647D01*
X497851Y724564D01*
X497853Y724561D01*
X497851Y724560D01*
X497851Y718560D01*
X497854Y718556D01*
X497851Y718554D01*
X498001Y717421D01*
X498007Y717415D01*
X498004Y717410D01*
X498402Y716340D01*
X498409Y716336D01*
X498407Y716330D01*
X499034Y715375D01*
X499042Y715372D01*
X499041Y715367D01*
X499864Y714575D01*
X499872Y714574D01*
X499873Y714568D01*
X500852Y713979D01*
X500860Y713980D01*
X500862Y713975D01*
X501947Y713619D01*
X501955Y713622D01*
X501958Y713617D01*
X503095Y713511D01*
X503104Y713516D01*
G37*
G36*
X274504Y713516D02*
X274504Y713516D01*
X274509Y713512D01*
X275646Y713719D01*
X275652Y713725D01*
X275657Y713722D01*
X276719Y714177D01*
X276723Y714184D01*
X276729Y714182D01*
X277664Y714862D01*
X277666Y714870D01*
X277672Y714869D01*
X278432Y715740D01*
X278432Y715748D01*
X278438Y715749D01*
X278985Y716768D01*
X278984Y716776D01*
X278989Y716778D01*
X278995Y716797D01*
X279008Y716846D01*
X279022Y716896D01*
X279035Y716945D01*
X279049Y716994D01*
X279062Y717043D01*
X279063Y717043D01*
X279062Y717043D01*
X279076Y717093D01*
X279090Y717142D01*
X279103Y717191D01*
X279117Y717240D01*
X279130Y717290D01*
X279144Y717339D01*
X279157Y717388D01*
X279171Y717437D01*
X279185Y717487D01*
X279198Y717536D01*
X279212Y717585D01*
X279296Y717892D01*
X279293Y717900D01*
X279298Y717903D01*
X279349Y719058D01*
X279348Y719059D01*
X279349Y719060D01*
X279349Y725060D01*
X279345Y725066D01*
X279348Y725069D01*
X279136Y726150D01*
X279130Y726155D01*
X279133Y726160D01*
X278686Y727166D01*
X278679Y727170D01*
X278681Y727176D01*
X278021Y728057D01*
X278013Y728060D01*
X278013Y728065D01*
X277174Y728778D01*
X277166Y728778D01*
X277165Y728784D01*
X276188Y729292D01*
X276180Y729291D01*
X276178Y729296D01*
X275113Y729574D01*
X275105Y729571D01*
X275102Y729575D01*
X274002Y729609D01*
X273996Y729606D01*
X273993Y729609D01*
X272918Y729454D01*
X272912Y729448D01*
X272907Y729451D01*
X271893Y729061D01*
X271889Y729054D01*
X271883Y729056D01*
X270981Y728449D01*
X270979Y728441D01*
X270973Y728442D01*
X270229Y727650D01*
X270228Y727642D01*
X270222Y727642D01*
X269673Y726704D01*
X269674Y726696D01*
X269668Y726694D01*
X269341Y725658D01*
X269344Y725650D01*
X269339Y725647D01*
X269251Y724564D01*
X269253Y724561D01*
X269251Y724560D01*
X269251Y718560D01*
X269254Y718556D01*
X269251Y718554D01*
X269401Y717421D01*
X269407Y717415D01*
X269404Y717410D01*
X269802Y716340D01*
X269809Y716336D01*
X269807Y716330D01*
X270434Y715375D01*
X270442Y715372D01*
X270441Y715367D01*
X271264Y714575D01*
X271272Y714574D01*
X271273Y714568D01*
X272252Y713979D01*
X272260Y713980D01*
X272262Y713975D01*
X273347Y713619D01*
X273355Y713622D01*
X273358Y713617D01*
X274495Y713511D01*
X274504Y713516D01*
G37*
G36*
X45904Y713516D02*
X45904Y713516D01*
X45909Y713512D01*
X47046Y713719D01*
X47052Y713725D01*
X47057Y713722D01*
X48119Y714177D01*
X48123Y714184D01*
X48129Y714182D01*
X49064Y714862D01*
X49066Y714870D01*
X49072Y714869D01*
X49832Y715740D01*
X49832Y715748D01*
X49838Y715749D01*
X50385Y716768D01*
X50384Y716776D01*
X50389Y716778D01*
X50395Y716797D01*
X50408Y716846D01*
X50422Y716896D01*
X50435Y716945D01*
X50449Y716994D01*
X50462Y717043D01*
X50463Y717043D01*
X50462Y717043D01*
X50476Y717093D01*
X50490Y717142D01*
X50503Y717191D01*
X50517Y717240D01*
X50530Y717290D01*
X50544Y717339D01*
X50557Y717388D01*
X50571Y717437D01*
X50585Y717487D01*
X50598Y717536D01*
X50612Y717585D01*
X50696Y717892D01*
X50693Y717900D01*
X50698Y717903D01*
X50749Y719058D01*
X50748Y719059D01*
X50749Y719060D01*
X50749Y725060D01*
X50745Y725066D01*
X50748Y725069D01*
X50536Y726150D01*
X50530Y726155D01*
X50533Y726160D01*
X50086Y727166D01*
X50079Y727170D01*
X50081Y727176D01*
X49421Y728057D01*
X49413Y728060D01*
X49413Y728065D01*
X48574Y728778D01*
X48566Y728778D01*
X48565Y728784D01*
X47588Y729292D01*
X47580Y729291D01*
X47578Y729296D01*
X46513Y729574D01*
X46505Y729571D01*
X46502Y729575D01*
X45402Y729609D01*
X45396Y729606D01*
X45393Y729609D01*
X44318Y729454D01*
X44312Y729448D01*
X44307Y729451D01*
X43293Y729061D01*
X43289Y729054D01*
X43283Y729056D01*
X42381Y728449D01*
X42379Y728441D01*
X42373Y728442D01*
X41629Y727650D01*
X41628Y727642D01*
X41622Y727642D01*
X41073Y726704D01*
X41074Y726696D01*
X41068Y726694D01*
X40741Y725658D01*
X40744Y725650D01*
X40739Y725647D01*
X40651Y724564D01*
X40653Y724561D01*
X40651Y724560D01*
X40651Y718560D01*
X40654Y718556D01*
X40651Y718554D01*
X40801Y717421D01*
X40807Y717415D01*
X40804Y717410D01*
X41202Y716340D01*
X41209Y716336D01*
X41207Y716330D01*
X41834Y715375D01*
X41842Y715372D01*
X41841Y715367D01*
X42664Y714575D01*
X42672Y714574D01*
X42673Y714568D01*
X43652Y713979D01*
X43660Y713980D01*
X43662Y713975D01*
X44747Y713619D01*
X44755Y713622D01*
X44758Y713617D01*
X45895Y713511D01*
X45904Y713516D01*
G37*
G36*
X503104Y309656D02*
X503104Y309656D01*
X503109Y309652D01*
X504246Y309859D01*
X504252Y309865D01*
X504257Y309862D01*
X505319Y310317D01*
X505323Y310324D01*
X505329Y310322D01*
X506264Y311002D01*
X506266Y311010D01*
X506272Y311009D01*
X507032Y311880D01*
X507032Y311888D01*
X507038Y311889D01*
X507585Y312908D01*
X507584Y312916D01*
X507589Y312918D01*
X507595Y312937D01*
X507608Y312986D01*
X507622Y313036D01*
X507635Y313085D01*
X507649Y313134D01*
X507662Y313183D01*
X507663Y313183D01*
X507662Y313183D01*
X507676Y313233D01*
X507690Y313282D01*
X507703Y313331D01*
X507717Y313380D01*
X507730Y313430D01*
X507744Y313479D01*
X507757Y313528D01*
X507771Y313577D01*
X507785Y313627D01*
X507798Y313676D01*
X507812Y313725D01*
X507896Y314032D01*
X507893Y314040D01*
X507898Y314043D01*
X507949Y315198D01*
X507948Y315199D01*
X507949Y315200D01*
X507949Y321200D01*
X507945Y321206D01*
X507948Y321209D01*
X507736Y322290D01*
X507730Y322295D01*
X507733Y322300D01*
X507286Y323306D01*
X507279Y323310D01*
X507281Y323316D01*
X506621Y324197D01*
X506613Y324200D01*
X506613Y324205D01*
X505774Y324918D01*
X505766Y324918D01*
X505765Y324924D01*
X504788Y325432D01*
X504780Y325431D01*
X504778Y325436D01*
X503713Y325714D01*
X503705Y325711D01*
X503702Y325715D01*
X502602Y325749D01*
X502596Y325746D01*
X502593Y325749D01*
X501518Y325594D01*
X501512Y325588D01*
X501507Y325591D01*
X500493Y325201D01*
X500489Y325194D01*
X500483Y325196D01*
X499581Y324589D01*
X499579Y324581D01*
X499573Y324582D01*
X498829Y323790D01*
X498828Y323782D01*
X498822Y323782D01*
X498273Y322844D01*
X498274Y322836D01*
X498268Y322834D01*
X497941Y321798D01*
X497944Y321790D01*
X497939Y321787D01*
X497851Y320704D01*
X497853Y320701D01*
X497851Y320700D01*
X497851Y314700D01*
X497854Y314696D01*
X497851Y314694D01*
X498001Y313561D01*
X498007Y313555D01*
X498004Y313550D01*
X498402Y312480D01*
X498409Y312476D01*
X498407Y312470D01*
X499034Y311515D01*
X499042Y311512D01*
X499041Y311507D01*
X499864Y310715D01*
X499872Y310714D01*
X499873Y310708D01*
X500852Y310119D01*
X500860Y310120D01*
X500862Y310115D01*
X501947Y309759D01*
X501955Y309762D01*
X501958Y309757D01*
X503095Y309651D01*
X503104Y309656D01*
G37*
G36*
X274504Y309656D02*
X274504Y309656D01*
X274509Y309652D01*
X275646Y309859D01*
X275652Y309865D01*
X275657Y309862D01*
X276719Y310317D01*
X276723Y310324D01*
X276729Y310322D01*
X277664Y311002D01*
X277666Y311010D01*
X277672Y311009D01*
X278432Y311880D01*
X278432Y311888D01*
X278438Y311889D01*
X278985Y312908D01*
X278984Y312916D01*
X278989Y312918D01*
X278995Y312937D01*
X279008Y312986D01*
X279022Y313036D01*
X279035Y313085D01*
X279049Y313134D01*
X279062Y313183D01*
X279063Y313183D01*
X279062Y313183D01*
X279076Y313233D01*
X279090Y313282D01*
X279103Y313331D01*
X279117Y313380D01*
X279130Y313430D01*
X279144Y313479D01*
X279157Y313528D01*
X279171Y313577D01*
X279185Y313627D01*
X279198Y313676D01*
X279212Y313725D01*
X279296Y314032D01*
X279293Y314040D01*
X279298Y314043D01*
X279349Y315198D01*
X279348Y315199D01*
X279349Y315200D01*
X279349Y321200D01*
X279345Y321206D01*
X279348Y321209D01*
X279136Y322290D01*
X279130Y322295D01*
X279133Y322300D01*
X278686Y323306D01*
X278679Y323310D01*
X278681Y323316D01*
X278021Y324197D01*
X278013Y324200D01*
X278013Y324205D01*
X277174Y324918D01*
X277166Y324918D01*
X277165Y324924D01*
X276188Y325432D01*
X276180Y325431D01*
X276178Y325436D01*
X275113Y325714D01*
X275105Y325711D01*
X275102Y325715D01*
X274002Y325749D01*
X273996Y325746D01*
X273993Y325749D01*
X272918Y325594D01*
X272912Y325588D01*
X272907Y325591D01*
X271893Y325201D01*
X271889Y325194D01*
X271883Y325196D01*
X270981Y324589D01*
X270979Y324581D01*
X270973Y324582D01*
X270229Y323790D01*
X270228Y323782D01*
X270222Y323782D01*
X269673Y322844D01*
X269674Y322836D01*
X269668Y322834D01*
X269341Y321798D01*
X269344Y321790D01*
X269339Y321787D01*
X269251Y320704D01*
X269253Y320701D01*
X269251Y320700D01*
X269251Y314700D01*
X269254Y314696D01*
X269251Y314694D01*
X269401Y313561D01*
X269407Y313555D01*
X269404Y313550D01*
X269802Y312480D01*
X269809Y312476D01*
X269807Y312470D01*
X270434Y311515D01*
X270442Y311512D01*
X270441Y311507D01*
X271264Y310715D01*
X271272Y310714D01*
X271273Y310708D01*
X272252Y310119D01*
X272260Y310120D01*
X272262Y310115D01*
X273347Y309759D01*
X273355Y309762D01*
X273358Y309757D01*
X274495Y309651D01*
X274504Y309656D01*
G37*
G36*
X45904Y309656D02*
X45904Y309656D01*
X45909Y309652D01*
X47046Y309859D01*
X47052Y309865D01*
X47057Y309862D01*
X48119Y310317D01*
X48123Y310324D01*
X48129Y310322D01*
X49064Y311002D01*
X49066Y311010D01*
X49072Y311009D01*
X49832Y311880D01*
X49832Y311888D01*
X49838Y311889D01*
X50385Y312908D01*
X50384Y312916D01*
X50389Y312918D01*
X50395Y312937D01*
X50408Y312986D01*
X50422Y313036D01*
X50435Y313085D01*
X50449Y313134D01*
X50462Y313183D01*
X50463Y313183D01*
X50462Y313183D01*
X50476Y313233D01*
X50490Y313282D01*
X50503Y313331D01*
X50517Y313380D01*
X50530Y313430D01*
X50544Y313479D01*
X50557Y313528D01*
X50571Y313577D01*
X50585Y313627D01*
X50598Y313676D01*
X50612Y313725D01*
X50696Y314032D01*
X50693Y314040D01*
X50698Y314043D01*
X50749Y315198D01*
X50748Y315199D01*
X50749Y315200D01*
X50749Y321200D01*
X50745Y321206D01*
X50748Y321209D01*
X50536Y322290D01*
X50530Y322295D01*
X50533Y322300D01*
X50086Y323306D01*
X50079Y323310D01*
X50081Y323316D01*
X49421Y324197D01*
X49413Y324200D01*
X49413Y324205D01*
X48574Y324918D01*
X48566Y324918D01*
X48565Y324924D01*
X47588Y325432D01*
X47580Y325431D01*
X47578Y325436D01*
X46513Y325714D01*
X46505Y325711D01*
X46502Y325715D01*
X45402Y325749D01*
X45396Y325746D01*
X45393Y325749D01*
X44318Y325594D01*
X44312Y325588D01*
X44307Y325591D01*
X43293Y325201D01*
X43289Y325194D01*
X43283Y325196D01*
X42381Y324589D01*
X42379Y324581D01*
X42373Y324582D01*
X41629Y323790D01*
X41628Y323782D01*
X41622Y323782D01*
X41073Y322844D01*
X41074Y322836D01*
X41068Y322834D01*
X40741Y321798D01*
X40744Y321790D01*
X40739Y321787D01*
X40651Y320704D01*
X40653Y320701D01*
X40651Y320700D01*
X40651Y314700D01*
X40654Y314696D01*
X40651Y314694D01*
X40801Y313561D01*
X40807Y313555D01*
X40804Y313550D01*
X41202Y312480D01*
X41209Y312476D01*
X41207Y312470D01*
X41834Y311515D01*
X41842Y311512D01*
X41841Y311507D01*
X42664Y310715D01*
X42672Y310714D01*
X42673Y310708D01*
X43652Y310119D01*
X43660Y310120D01*
X43662Y310115D01*
X44747Y309759D01*
X44755Y309762D01*
X44758Y309757D01*
X45895Y309651D01*
X45904Y309656D01*
G37*
G36*
X133042Y713617D02*
X133042Y713617D01*
X133048Y713622D01*
X133053Y713619D01*
X134138Y713975D01*
X134143Y713982D01*
X134148Y713979D01*
X135127Y714568D01*
X135130Y714576D01*
X135136Y714575D01*
X135959Y715367D01*
X135960Y715375D01*
X135966Y715375D01*
X136593Y716330D01*
X136592Y716338D01*
X136598Y716340D01*
X136996Y717410D01*
X136994Y717418D01*
X136999Y717421D01*
X137149Y718554D01*
X137146Y718558D01*
X137149Y718560D01*
X137149Y724560D01*
X137146Y724564D01*
X137149Y724566D01*
X136999Y725699D01*
X136993Y725705D01*
X136996Y725710D01*
X136598Y726780D01*
X136591Y726784D01*
X136593Y726790D01*
X135966Y727745D01*
X135958Y727748D01*
X135959Y727753D01*
X135136Y728545D01*
X135128Y728546D01*
X135127Y728552D01*
X134148Y729141D01*
X134140Y729140D01*
X134138Y729145D01*
X133053Y729501D01*
X133045Y729499D01*
X133042Y729503D01*
X131905Y729609D01*
X131898Y729605D01*
X131894Y729609D01*
X130806Y729464D01*
X130800Y729458D01*
X130795Y729461D01*
X129767Y729078D01*
X129762Y729071D01*
X129757Y729073D01*
X128840Y728470D01*
X128837Y728462D01*
X128831Y728463D01*
X128071Y727671D01*
X128070Y727663D01*
X128064Y727662D01*
X127500Y726721D01*
X127501Y726713D01*
X127495Y726711D01*
X127154Y725668D01*
X127156Y725660D01*
X127152Y725657D01*
X127051Y724565D01*
X127053Y724562D01*
X127051Y724560D01*
X127051Y718560D01*
X127053Y718557D01*
X127051Y718556D01*
X127152Y717463D01*
X127157Y717457D01*
X127154Y717452D01*
X127495Y716409D01*
X127502Y716404D01*
X127500Y716399D01*
X128064Y715458D01*
X128072Y715455D01*
X128071Y715449D01*
X128831Y714657D01*
X128839Y714656D01*
X128840Y714650D01*
X129757Y714048D01*
X129765Y714048D01*
X129767Y714043D01*
X130795Y713659D01*
X130803Y713661D01*
X130806Y713656D01*
X131894Y713511D01*
X131901Y713515D01*
X131905Y713511D01*
X133042Y713617D01*
G37*
G36*
X361642Y713617D02*
X361642Y713617D01*
X361648Y713622D01*
X361653Y713619D01*
X362738Y713975D01*
X362743Y713982D01*
X362748Y713979D01*
X363727Y714568D01*
X363730Y714576D01*
X363736Y714575D01*
X364559Y715367D01*
X364560Y715375D01*
X364566Y715375D01*
X365193Y716330D01*
X365192Y716338D01*
X365198Y716340D01*
X365596Y717410D01*
X365594Y717418D01*
X365599Y717421D01*
X365749Y718554D01*
X365746Y718558D01*
X365749Y718560D01*
X365749Y724560D01*
X365746Y724564D01*
X365749Y724566D01*
X365599Y725699D01*
X365593Y725705D01*
X365596Y725710D01*
X365198Y726780D01*
X365191Y726784D01*
X365193Y726790D01*
X364566Y727745D01*
X364558Y727748D01*
X364559Y727753D01*
X363736Y728545D01*
X363728Y728546D01*
X363727Y728552D01*
X362748Y729141D01*
X362740Y729140D01*
X362738Y729145D01*
X361653Y729501D01*
X361645Y729499D01*
X361642Y729503D01*
X360505Y729609D01*
X360498Y729605D01*
X360494Y729609D01*
X359406Y729464D01*
X359400Y729458D01*
X359395Y729461D01*
X358367Y729078D01*
X358362Y729071D01*
X358357Y729073D01*
X357440Y728470D01*
X357437Y728462D01*
X357431Y728463D01*
X356671Y727671D01*
X356670Y727663D01*
X356664Y727662D01*
X356100Y726721D01*
X356101Y726713D01*
X356095Y726711D01*
X355754Y725668D01*
X355756Y725660D01*
X355752Y725657D01*
X355651Y724565D01*
X355653Y724562D01*
X355651Y724560D01*
X355651Y718560D01*
X355653Y718557D01*
X355651Y718556D01*
X355752Y717463D01*
X355757Y717457D01*
X355754Y717452D01*
X356095Y716409D01*
X356102Y716404D01*
X356100Y716399D01*
X356664Y715458D01*
X356672Y715455D01*
X356671Y715449D01*
X357431Y714657D01*
X357439Y714656D01*
X357440Y714650D01*
X358357Y714048D01*
X358365Y714048D01*
X358367Y714043D01*
X359395Y713659D01*
X359403Y713661D01*
X359406Y713656D01*
X360494Y713511D01*
X360501Y713515D01*
X360505Y713511D01*
X361642Y713617D01*
G37*
G36*
X590242Y713617D02*
X590242Y713617D01*
X590248Y713622D01*
X590253Y713619D01*
X591338Y713975D01*
X591343Y713982D01*
X591348Y713979D01*
X592327Y714568D01*
X592330Y714576D01*
X592336Y714575D01*
X593159Y715367D01*
X593160Y715375D01*
X593166Y715375D01*
X593793Y716330D01*
X593792Y716338D01*
X593798Y716340D01*
X594196Y717410D01*
X594194Y717418D01*
X594199Y717421D01*
X594349Y718554D01*
X594346Y718558D01*
X594349Y718560D01*
X594349Y724560D01*
X594346Y724564D01*
X594349Y724566D01*
X594199Y725699D01*
X594193Y725705D01*
X594196Y725710D01*
X593798Y726780D01*
X593791Y726784D01*
X593793Y726790D01*
X593166Y727745D01*
X593158Y727748D01*
X593159Y727753D01*
X592336Y728545D01*
X592328Y728546D01*
X592327Y728552D01*
X591348Y729141D01*
X591340Y729140D01*
X591338Y729145D01*
X590253Y729501D01*
X590245Y729499D01*
X590242Y729503D01*
X589105Y729609D01*
X589098Y729605D01*
X589094Y729609D01*
X588006Y729464D01*
X588000Y729458D01*
X587995Y729461D01*
X586967Y729078D01*
X586962Y729071D01*
X586957Y729073D01*
X586040Y728470D01*
X586037Y728462D01*
X586031Y728463D01*
X585271Y727671D01*
X585270Y727663D01*
X585264Y727662D01*
X584700Y726721D01*
X584701Y726713D01*
X584695Y726711D01*
X584354Y725668D01*
X584356Y725660D01*
X584352Y725657D01*
X584251Y724565D01*
X584253Y724562D01*
X584251Y724560D01*
X584251Y718560D01*
X584253Y718557D01*
X584251Y718556D01*
X584352Y717463D01*
X584357Y717457D01*
X584354Y717452D01*
X584695Y716409D01*
X584702Y716404D01*
X584700Y716399D01*
X585264Y715458D01*
X585272Y715455D01*
X585271Y715449D01*
X586031Y714657D01*
X586039Y714656D01*
X586040Y714650D01*
X586957Y714048D01*
X586965Y714048D01*
X586967Y714043D01*
X587995Y713659D01*
X588003Y713661D01*
X588006Y713656D01*
X589094Y713511D01*
X589101Y713515D01*
X589105Y713511D01*
X590242Y713617D01*
G37*
G36*
X361642Y309757D02*
X361642Y309757D01*
X361648Y309762D01*
X361653Y309759D01*
X362738Y310115D01*
X362743Y310122D01*
X362748Y310119D01*
X363727Y310708D01*
X363730Y310716D01*
X363736Y310715D01*
X364559Y311507D01*
X364560Y311515D01*
X364566Y311515D01*
X365193Y312470D01*
X365192Y312478D01*
X365198Y312480D01*
X365596Y313550D01*
X365594Y313558D01*
X365599Y313561D01*
X365749Y314694D01*
X365746Y314698D01*
X365749Y314700D01*
X365749Y320700D01*
X365746Y320704D01*
X365749Y320706D01*
X365599Y321839D01*
X365593Y321845D01*
X365596Y321850D01*
X365198Y322920D01*
X365191Y322924D01*
X365193Y322930D01*
X364566Y323885D01*
X364558Y323888D01*
X364559Y323893D01*
X363736Y324685D01*
X363728Y324686D01*
X363727Y324692D01*
X362748Y325281D01*
X362740Y325280D01*
X362738Y325285D01*
X361653Y325641D01*
X361645Y325639D01*
X361642Y325643D01*
X360505Y325749D01*
X360498Y325745D01*
X360494Y325749D01*
X359406Y325604D01*
X359400Y325598D01*
X359395Y325601D01*
X358367Y325218D01*
X358362Y325211D01*
X358357Y325213D01*
X357440Y324610D01*
X357437Y324602D01*
X357431Y324603D01*
X356671Y323811D01*
X356670Y323803D01*
X356664Y323802D01*
X356100Y322861D01*
X356101Y322853D01*
X356095Y322851D01*
X355754Y321808D01*
X355756Y321800D01*
X355752Y321797D01*
X355651Y320705D01*
X355653Y320702D01*
X355651Y320700D01*
X355651Y314700D01*
X355653Y314697D01*
X355651Y314696D01*
X355752Y313603D01*
X355757Y313597D01*
X355754Y313592D01*
X356095Y312549D01*
X356102Y312544D01*
X356100Y312539D01*
X356664Y311598D01*
X356672Y311595D01*
X356671Y311589D01*
X357431Y310797D01*
X357439Y310796D01*
X357440Y310790D01*
X358357Y310188D01*
X358365Y310188D01*
X358367Y310183D01*
X359395Y309799D01*
X359403Y309801D01*
X359406Y309796D01*
X360494Y309651D01*
X360501Y309655D01*
X360505Y309651D01*
X361642Y309757D01*
G37*
G36*
X133042Y309757D02*
X133042Y309757D01*
X133048Y309762D01*
X133053Y309759D01*
X134138Y310115D01*
X134143Y310122D01*
X134148Y310119D01*
X135127Y310708D01*
X135130Y310716D01*
X135136Y310715D01*
X135959Y311507D01*
X135960Y311515D01*
X135966Y311515D01*
X136593Y312470D01*
X136592Y312478D01*
X136598Y312480D01*
X136996Y313550D01*
X136994Y313558D01*
X136999Y313561D01*
X137149Y314694D01*
X137146Y314698D01*
X137149Y314700D01*
X137149Y320700D01*
X137146Y320704D01*
X137149Y320706D01*
X136999Y321839D01*
X136993Y321845D01*
X136996Y321850D01*
X136598Y322920D01*
X136591Y322924D01*
X136593Y322930D01*
X135966Y323885D01*
X135958Y323888D01*
X135959Y323893D01*
X135136Y324685D01*
X135128Y324686D01*
X135127Y324692D01*
X134148Y325281D01*
X134140Y325280D01*
X134138Y325285D01*
X133053Y325641D01*
X133045Y325639D01*
X133042Y325643D01*
X131905Y325749D01*
X131898Y325745D01*
X131894Y325749D01*
X130806Y325604D01*
X130800Y325598D01*
X130795Y325601D01*
X129767Y325218D01*
X129762Y325211D01*
X129757Y325213D01*
X128840Y324610D01*
X128837Y324602D01*
X128831Y324603D01*
X128071Y323811D01*
X128070Y323803D01*
X128064Y323802D01*
X127500Y322861D01*
X127501Y322853D01*
X127495Y322851D01*
X127154Y321808D01*
X127156Y321800D01*
X127152Y321797D01*
X127051Y320705D01*
X127053Y320702D01*
X127051Y320700D01*
X127051Y314700D01*
X127053Y314697D01*
X127051Y314696D01*
X127152Y313603D01*
X127157Y313597D01*
X127154Y313592D01*
X127495Y312549D01*
X127502Y312544D01*
X127500Y312539D01*
X128064Y311598D01*
X128072Y311595D01*
X128071Y311589D01*
X128831Y310797D01*
X128839Y310796D01*
X128840Y310790D01*
X129757Y310188D01*
X129765Y310188D01*
X129767Y310183D01*
X130795Y309799D01*
X130803Y309801D01*
X130806Y309796D01*
X131894Y309651D01*
X131901Y309655D01*
X131905Y309651D01*
X133042Y309757D01*
G37*
G36*
X590242Y309757D02*
X590242Y309757D01*
X590248Y309762D01*
X590253Y309759D01*
X591338Y310115D01*
X591343Y310122D01*
X591348Y310119D01*
X592327Y310708D01*
X592330Y310716D01*
X592336Y310715D01*
X593159Y311507D01*
X593160Y311515D01*
X593166Y311515D01*
X593793Y312470D01*
X593792Y312478D01*
X593798Y312480D01*
X594196Y313550D01*
X594194Y313558D01*
X594199Y313561D01*
X594349Y314694D01*
X594346Y314698D01*
X594349Y314700D01*
X594349Y320700D01*
X594346Y320704D01*
X594349Y320706D01*
X594199Y321839D01*
X594193Y321845D01*
X594196Y321850D01*
X593798Y322920D01*
X593791Y322924D01*
X593793Y322930D01*
X593166Y323885D01*
X593158Y323888D01*
X593159Y323893D01*
X592336Y324685D01*
X592328Y324686D01*
X592327Y324692D01*
X591348Y325281D01*
X591340Y325280D01*
X591338Y325285D01*
X590253Y325641D01*
X590245Y325639D01*
X590242Y325643D01*
X589105Y325749D01*
X589098Y325745D01*
X589094Y325749D01*
X588006Y325604D01*
X588000Y325598D01*
X587995Y325601D01*
X586967Y325218D01*
X586962Y325211D01*
X586957Y325213D01*
X586040Y324610D01*
X586037Y324602D01*
X586031Y324603D01*
X585271Y323811D01*
X585270Y323803D01*
X585264Y323802D01*
X584700Y322861D01*
X584701Y322853D01*
X584695Y322851D01*
X584354Y321808D01*
X584356Y321800D01*
X584352Y321797D01*
X584251Y320705D01*
X584253Y320702D01*
X584251Y320700D01*
X584251Y314700D01*
X584253Y314697D01*
X584251Y314696D01*
X584352Y313603D01*
X584357Y313597D01*
X584354Y313592D01*
X584695Y312549D01*
X584702Y312544D01*
X584700Y312539D01*
X585264Y311598D01*
X585272Y311595D01*
X585271Y311589D01*
X586031Y310797D01*
X586039Y310796D01*
X586040Y310790D01*
X586957Y310188D01*
X586965Y310188D01*
X586967Y310183D01*
X587995Y309799D01*
X588003Y309801D01*
X588006Y309796D01*
X589094Y309651D01*
X589101Y309655D01*
X589105Y309651D01*
X590242Y309757D01*
G37*
D10*
X38180Y259080D03*
X48180Y259080D03*
D11*
X24320Y308920D02*
X24320Y315920D01*
X31320Y315920D01*
X31320Y308920D01*
X24320Y308920D01*
X24320Y311770D02*
X31320Y311770D01*
X31320Y314620D02*
X24320Y314620D01*
X6780Y315920D02*
X6780Y308920D01*
X6780Y315920D02*
X13780Y315920D01*
X13780Y308920D01*
X6780Y308920D01*
X6780Y311770D02*
X13780Y311770D01*
X13780Y314620D02*
X6780Y314620D01*
D10*
X137160Y68660D03*
X137160Y78660D03*
X83740Y254000D03*
X73740Y254000D03*
X94060Y254000D03*
X104060Y254000D03*
D12*
X131700Y48440D03*
X147700Y48440D03*
X147700Y7440D03*
X131700Y7440D03*
D13*
X60900Y14050D03*
X116900Y14050D03*
D14*
X73900Y50800D03*
X83900Y50800D03*
X93900Y50800D03*
X103900Y50800D03*
D10*
X105490Y78740D03*
X115490Y78740D03*
X105490Y68580D03*
X115490Y68580D03*
D15*
X81400Y270100D03*
X86400Y270100D03*
D16*
X56650Y270100D03*
X64400Y270100D03*
D15*
X71400Y270100D03*
X76400Y270100D03*
X96400Y270100D03*
X91400Y270100D03*
D16*
X121150Y270100D03*
X113400Y270100D03*
D15*
X106400Y270100D03*
X101400Y270100D03*
D10*
X62310Y68580D03*
X72310Y68580D03*
X35640Y88900D03*
X45640Y88900D03*
X83820Y68660D03*
X83820Y78660D03*
X39370Y114220D03*
X39370Y104220D03*
X72310Y78740D03*
X62310Y78740D03*
X83740Y173990D03*
X73740Y173990D03*
X127000Y78660D03*
X127000Y68660D03*
X39370Y153750D03*
X39370Y163750D03*
X142240Y155020D03*
X142240Y165020D03*
X93980Y78660D03*
X93980Y68660D03*
X39370Y134540D03*
X39370Y124540D03*
X139700Y250110D03*
X139700Y240110D03*
X129540Y250110D03*
X129540Y240110D03*
X128270Y200580D03*
X128270Y190580D03*
X104220Y175260D03*
X114220Y175260D03*
X142240Y175340D03*
X142240Y185340D03*
X132080Y175180D03*
X132080Y165180D03*
D17*
X46640Y76950D03*
X29640Y76950D03*
X29640Y62950D03*
X46640Y62950D03*
D10*
X105490Y224790D03*
X115490Y224790D03*
D18*
X35750Y224790D03*
X35750Y212090D03*
X35750Y199390D03*
X35750Y186690D03*
X91250Y199390D03*
X91250Y186690D03*
X91250Y212090D03*
X91250Y224790D03*
D19*
X63500Y205740D03*
D10*
X38100Y248840D03*
X38100Y238840D03*
X48260Y238840D03*
X48260Y248840D03*
D12*
X30100Y48440D03*
X46100Y48440D03*
X46100Y7440D03*
X30100Y7440D03*
D20*
X150500Y324150D03*
X161500Y324150D03*
X161500Y305850D03*
X150500Y305850D03*
D21*
X54650Y131000D03*
D10*
X78900Y137000D03*
D21*
X54650Y135000D03*
X54650Y139000D03*
X54650Y143000D03*
X54650Y147000D03*
X54650Y151000D03*
X54650Y155000D03*
X54650Y103000D03*
X54650Y107000D03*
X54650Y111000D03*
X54650Y115000D03*
X54650Y119000D03*
X54650Y123000D03*
X54650Y127000D03*
D22*
X84900Y92750D03*
X80900Y92750D03*
X76900Y92750D03*
X72900Y92750D03*
X68900Y92750D03*
X64900Y92750D03*
X60900Y92750D03*
X112900Y92750D03*
X108900Y92750D03*
X104900Y92750D03*
X100900Y92750D03*
X96900Y92750D03*
X92900Y92750D03*
X88900Y92750D03*
D21*
X123150Y123000D03*
X123150Y119000D03*
X123150Y115000D03*
X123150Y111000D03*
X123150Y107000D03*
X123150Y103000D03*
X123150Y99000D03*
X123150Y151000D03*
X123150Y147000D03*
X123150Y143000D03*
X123150Y139000D03*
X123150Y135000D03*
X123150Y131000D03*
X123150Y127000D03*
D22*
X92900Y161250D03*
X96900Y161250D03*
X100900Y161250D03*
X104900Y161250D03*
X108900Y161250D03*
X112900Y161250D03*
X116900Y161250D03*
X64900Y161250D03*
X68900Y161250D03*
X72900Y161250D03*
X76900Y161250D03*
X80900Y161250D03*
X84900Y161250D03*
X88900Y161250D03*
D10*
X78900Y117000D03*
X98900Y117000D03*
X98900Y137000D03*
X88900Y127000D03*
D22*
X60900Y161250D03*
X116900Y92750D03*
D21*
X54650Y99000D03*
X123150Y155000D03*
D10*
X138430Y127080D03*
X138430Y137080D03*
D23*
X111760Y204580D03*
X111760Y186580D03*
D10*
X138430Y116760D03*
X138430Y106760D03*
X266780Y259080D03*
X276780Y259080D03*
D11*
X252920Y308920D02*
X252920Y315920D01*
X259920Y315920D01*
X259920Y308920D01*
X252920Y308920D01*
X252920Y311770D02*
X259920Y311770D01*
X259920Y314620D02*
X252920Y314620D01*
X235380Y315920D02*
X235380Y308920D01*
X235380Y315920D02*
X242380Y315920D01*
X242380Y308920D01*
X235380Y308920D01*
X235380Y311770D02*
X242380Y311770D01*
X242380Y314620D02*
X235380Y314620D01*
D10*
X365760Y68660D03*
X365760Y78660D03*
X312340Y254000D03*
X302340Y254000D03*
X322660Y254000D03*
X332660Y254000D03*
D12*
X360300Y48440D03*
X376300Y48440D03*
X376300Y7440D03*
X360300Y7440D03*
D13*
X289500Y14050D03*
X345500Y14050D03*
D14*
X302500Y50800D03*
X312500Y50800D03*
X322500Y50800D03*
X332500Y50800D03*
D10*
X334090Y78740D03*
X344090Y78740D03*
X334090Y68580D03*
X344090Y68580D03*
D15*
X310000Y270100D03*
X315000Y270100D03*
D16*
X285250Y270100D03*
X293000Y270100D03*
D15*
X300000Y270100D03*
X305000Y270100D03*
X325000Y270100D03*
X320000Y270100D03*
D16*
X349750Y270100D03*
X342000Y270100D03*
D15*
X335000Y270100D03*
X330000Y270100D03*
D10*
X290910Y68580D03*
X300910Y68580D03*
X264240Y88900D03*
X274240Y88900D03*
X312420Y68660D03*
X312420Y78660D03*
X267970Y114220D03*
X267970Y104220D03*
X300910Y78740D03*
X290910Y78740D03*
X312340Y173990D03*
X302340Y173990D03*
X355600Y78660D03*
X355600Y68660D03*
X267970Y153750D03*
X267970Y163750D03*
X370840Y155020D03*
X370840Y165020D03*
X322580Y78660D03*
X322580Y68660D03*
X267970Y134540D03*
X267970Y124540D03*
X368300Y250110D03*
X368300Y240110D03*
X358140Y250110D03*
X358140Y240110D03*
X356870Y200580D03*
X356870Y190580D03*
X332820Y175260D03*
X342820Y175260D03*
X370840Y175340D03*
X370840Y185340D03*
X360680Y175180D03*
X360680Y165180D03*
D17*
X275240Y76950D03*
X258240Y76950D03*
X258240Y62950D03*
X275240Y62950D03*
D10*
X334090Y224790D03*
X344090Y224790D03*
D18*
X264350Y224790D03*
X264350Y212090D03*
X264350Y199390D03*
X264350Y186690D03*
X319850Y199390D03*
X319850Y186690D03*
X319850Y212090D03*
X319850Y224790D03*
D19*
X292100Y205740D03*
D10*
X266700Y248840D03*
X266700Y238840D03*
X276860Y238840D03*
X276860Y248840D03*
D12*
X258700Y48440D03*
X274700Y48440D03*
X274700Y7440D03*
X258700Y7440D03*
D20*
X379100Y324150D03*
X390100Y324150D03*
X390100Y305850D03*
X379100Y305850D03*
D21*
X283250Y131000D03*
D10*
X307500Y137000D03*
D21*
X283250Y135000D03*
X283250Y139000D03*
X283250Y143000D03*
X283250Y147000D03*
X283250Y151000D03*
X283250Y155000D03*
X283250Y103000D03*
X283250Y107000D03*
X283250Y111000D03*
X283250Y115000D03*
X283250Y119000D03*
X283250Y123000D03*
X283250Y127000D03*
D22*
X313500Y92750D03*
X309500Y92750D03*
X305500Y92750D03*
X301500Y92750D03*
X297500Y92750D03*
X293500Y92750D03*
X289500Y92750D03*
X341500Y92750D03*
X337500Y92750D03*
X333500Y92750D03*
X329500Y92750D03*
X325500Y92750D03*
X321500Y92750D03*
X317500Y92750D03*
D21*
X351750Y123000D03*
X351750Y119000D03*
X351750Y115000D03*
X351750Y111000D03*
X351750Y107000D03*
X351750Y103000D03*
X351750Y99000D03*
X351750Y151000D03*
X351750Y147000D03*
X351750Y143000D03*
X351750Y139000D03*
X351750Y135000D03*
X351750Y131000D03*
X351750Y127000D03*
D22*
X321500Y161250D03*
X325500Y161250D03*
X329500Y161250D03*
X333500Y161250D03*
X337500Y161250D03*
X341500Y161250D03*
X345500Y161250D03*
X293500Y161250D03*
X297500Y161250D03*
X301500Y161250D03*
X305500Y161250D03*
X309500Y161250D03*
X313500Y161250D03*
X317500Y161250D03*
D10*
X307500Y117000D03*
X327500Y117000D03*
X327500Y137000D03*
X317500Y127000D03*
D22*
X289500Y161250D03*
X345500Y92750D03*
D21*
X283250Y99000D03*
X351750Y155000D03*
D10*
X367030Y127080D03*
X367030Y137080D03*
D23*
X340360Y204580D03*
X340360Y186580D03*
D10*
X367030Y116760D03*
X367030Y106760D03*
X495380Y259080D03*
X505380Y259080D03*
D11*
X481520Y308920D02*
X481520Y315920D01*
X488520Y315920D01*
X488520Y308920D01*
X481520Y308920D01*
X481520Y311770D02*
X488520Y311770D01*
X488520Y314620D02*
X481520Y314620D01*
X463980Y315920D02*
X463980Y308920D01*
X463980Y315920D02*
X470980Y315920D01*
X470980Y308920D01*
X463980Y308920D01*
X463980Y311770D02*
X470980Y311770D01*
X470980Y314620D02*
X463980Y314620D01*
D10*
X594360Y68660D03*
X594360Y78660D03*
X540940Y254000D03*
X530940Y254000D03*
X551260Y254000D03*
X561260Y254000D03*
D12*
X588900Y48440D03*
X604900Y48440D03*
X604900Y7440D03*
X588900Y7440D03*
D13*
X518100Y14050D03*
X574100Y14050D03*
D14*
X531100Y50800D03*
X541100Y50800D03*
X551100Y50800D03*
X561100Y50800D03*
D10*
X562690Y78740D03*
X572690Y78740D03*
X562690Y68580D03*
X572690Y68580D03*
D15*
X538600Y270100D03*
X543600Y270100D03*
D16*
X513850Y270100D03*
X521600Y270100D03*
D15*
X528600Y270100D03*
X533600Y270100D03*
X553600Y270100D03*
X548600Y270100D03*
D16*
X578350Y270100D03*
X570600Y270100D03*
D15*
X563600Y270100D03*
X558600Y270100D03*
D10*
X519510Y68580D03*
X529510Y68580D03*
X492840Y88900D03*
X502840Y88900D03*
X541020Y68660D03*
X541020Y78660D03*
X496570Y114220D03*
X496570Y104220D03*
X529510Y78740D03*
X519510Y78740D03*
X540940Y173990D03*
X530940Y173990D03*
X584200Y78660D03*
X584200Y68660D03*
X496570Y153750D03*
X496570Y163750D03*
X599440Y155020D03*
X599440Y165020D03*
X551180Y78660D03*
X551180Y68660D03*
X496570Y134540D03*
X496570Y124540D03*
X596900Y250110D03*
X596900Y240110D03*
X586740Y250110D03*
X586740Y240110D03*
X585470Y200580D03*
X585470Y190580D03*
X561420Y175260D03*
X571420Y175260D03*
X599440Y175340D03*
X599440Y185340D03*
X589280Y175180D03*
X589280Y165180D03*
D17*
X503840Y76950D03*
X486840Y76950D03*
X486840Y62950D03*
X503840Y62950D03*
D10*
X562690Y224790D03*
X572690Y224790D03*
D18*
X492950Y224790D03*
X492950Y212090D03*
X492950Y199390D03*
X492950Y186690D03*
X548450Y199390D03*
X548450Y186690D03*
X548450Y212090D03*
X548450Y224790D03*
D19*
X520700Y205740D03*
D10*
X495300Y248840D03*
X495300Y238840D03*
X505460Y238840D03*
X505460Y248840D03*
D12*
X487300Y48440D03*
X503300Y48440D03*
X503300Y7440D03*
X487300Y7440D03*
D20*
X607700Y324150D03*
X618700Y324150D03*
X618700Y305850D03*
X607700Y305850D03*
D21*
X511850Y131000D03*
D10*
X536100Y137000D03*
D21*
X511850Y135000D03*
X511850Y139000D03*
X511850Y143000D03*
X511850Y147000D03*
X511850Y151000D03*
X511850Y155000D03*
X511850Y103000D03*
X511850Y107000D03*
X511850Y111000D03*
X511850Y115000D03*
X511850Y119000D03*
X511850Y123000D03*
X511850Y127000D03*
D22*
X542100Y92750D03*
X538100Y92750D03*
X534100Y92750D03*
X530100Y92750D03*
X526100Y92750D03*
X522100Y92750D03*
X518100Y92750D03*
X570100Y92750D03*
X566100Y92750D03*
X562100Y92750D03*
X558100Y92750D03*
X554100Y92750D03*
X550100Y92750D03*
X546100Y92750D03*
D21*
X580350Y123000D03*
X580350Y119000D03*
X580350Y115000D03*
X580350Y111000D03*
X580350Y107000D03*
X580350Y103000D03*
X580350Y99000D03*
X580350Y151000D03*
X580350Y147000D03*
X580350Y143000D03*
X580350Y139000D03*
X580350Y135000D03*
X580350Y131000D03*
X580350Y127000D03*
D22*
X550100Y161250D03*
X554100Y161250D03*
X558100Y161250D03*
X562100Y161250D03*
X566100Y161250D03*
X570100Y161250D03*
X574100Y161250D03*
X522100Y161250D03*
X526100Y161250D03*
X530100Y161250D03*
X534100Y161250D03*
X538100Y161250D03*
X542100Y161250D03*
X546100Y161250D03*
D10*
X536100Y117000D03*
X556100Y117000D03*
X556100Y137000D03*
X546100Y127000D03*
D22*
X518100Y161250D03*
X574100Y92750D03*
D21*
X511850Y99000D03*
X580350Y155000D03*
D10*
X595630Y127080D03*
X595630Y137080D03*
D23*
X568960Y204580D03*
X568960Y186580D03*
D10*
X595630Y116760D03*
X595630Y106760D03*
X38180Y662940D03*
X48180Y662940D03*
D11*
X24320Y712780D02*
X24320Y719780D01*
X31320Y719780D01*
X31320Y712780D01*
X24320Y712780D01*
X24320Y715630D02*
X31320Y715630D01*
X31320Y718480D02*
X24320Y718480D01*
X6780Y719780D02*
X6780Y712780D01*
X6780Y719780D02*
X13780Y719780D01*
X13780Y712780D01*
X6780Y712780D01*
X6780Y715630D02*
X13780Y715630D01*
X13780Y718480D02*
X6780Y718480D01*
D10*
X137160Y472520D03*
X137160Y482520D03*
X83740Y657860D03*
X73740Y657860D03*
X94060Y657860D03*
X104060Y657860D03*
D12*
X131700Y452300D03*
X147700Y452300D03*
X147700Y411300D03*
X131700Y411300D03*
D13*
X60900Y417910D03*
X116900Y417910D03*
D14*
X73900Y454660D03*
X83900Y454660D03*
X93900Y454660D03*
X103900Y454660D03*
D10*
X105490Y482600D03*
X115490Y482600D03*
X105490Y472440D03*
X115490Y472440D03*
D15*
X81400Y673960D03*
X86400Y673960D03*
D16*
X56650Y673960D03*
X64400Y673960D03*
D15*
X71400Y673960D03*
X76400Y673960D03*
X96400Y673960D03*
X91400Y673960D03*
D16*
X121150Y673960D03*
X113400Y673960D03*
D15*
X106400Y673960D03*
X101400Y673960D03*
D10*
X62310Y472440D03*
X72310Y472440D03*
X35640Y492760D03*
X45640Y492760D03*
X83820Y472520D03*
X83820Y482520D03*
X39370Y518080D03*
X39370Y508080D03*
X72310Y482600D03*
X62310Y482600D03*
X83740Y577850D03*
X73740Y577850D03*
X127000Y482520D03*
X127000Y472520D03*
X39370Y557610D03*
X39370Y567610D03*
X142240Y558880D03*
X142240Y568880D03*
X93980Y482520D03*
X93980Y472520D03*
X39370Y538400D03*
X39370Y528400D03*
X139700Y653970D03*
X139700Y643970D03*
X129540Y653970D03*
X129540Y643970D03*
X128270Y604440D03*
X128270Y594440D03*
X104220Y579120D03*
X114220Y579120D03*
X142240Y579200D03*
X142240Y589200D03*
X132080Y579040D03*
X132080Y569040D03*
D17*
X46640Y480810D03*
X29640Y480810D03*
X29640Y466810D03*
X46640Y466810D03*
D10*
X105490Y628650D03*
X115490Y628650D03*
D18*
X35750Y628650D03*
X35750Y615950D03*
X35750Y603250D03*
X35750Y590550D03*
X91250Y603250D03*
X91250Y590550D03*
X91250Y615950D03*
X91250Y628650D03*
D19*
X63500Y609600D03*
D10*
X38100Y652700D03*
X38100Y642700D03*
X48260Y642700D03*
X48260Y652700D03*
D12*
X30100Y452300D03*
X46100Y452300D03*
X46100Y411300D03*
X30100Y411300D03*
D20*
X150500Y728010D03*
X161500Y728010D03*
X161500Y709710D03*
X150500Y709710D03*
D21*
X54650Y534860D03*
D10*
X78900Y540860D03*
D21*
X54650Y538860D03*
X54650Y542860D03*
X54650Y546860D03*
X54650Y550860D03*
X54650Y554860D03*
X54650Y558860D03*
X54650Y506860D03*
X54650Y510860D03*
X54650Y514860D03*
X54650Y518860D03*
X54650Y522860D03*
X54650Y526860D03*
X54650Y530860D03*
D22*
X84900Y496610D03*
X80900Y496610D03*
X76900Y496610D03*
X72900Y496610D03*
X68900Y496610D03*
X64900Y496610D03*
X60900Y496610D03*
X112900Y496610D03*
X108900Y496610D03*
X104900Y496610D03*
X100900Y496610D03*
X96900Y496610D03*
X92900Y496610D03*
X88900Y496610D03*
D21*
X123150Y526860D03*
X123150Y522860D03*
X123150Y518860D03*
X123150Y514860D03*
X123150Y510860D03*
X123150Y506860D03*
X123150Y502860D03*
X123150Y554860D03*
X123150Y550860D03*
X123150Y546860D03*
X123150Y542860D03*
X123150Y538860D03*
X123150Y534860D03*
X123150Y530860D03*
D22*
X92900Y565110D03*
X96900Y565110D03*
X100900Y565110D03*
X104900Y565110D03*
X108900Y565110D03*
X112900Y565110D03*
X116900Y565110D03*
X64900Y565110D03*
X68900Y565110D03*
X72900Y565110D03*
X76900Y565110D03*
X80900Y565110D03*
X84900Y565110D03*
X88900Y565110D03*
D10*
X78900Y520860D03*
X98900Y520860D03*
X98900Y540860D03*
X88900Y530860D03*
D22*
X60900Y565110D03*
X116900Y496610D03*
D21*
X54650Y502860D03*
X123150Y558860D03*
D10*
X138430Y530940D03*
X138430Y540940D03*
D23*
X111760Y608440D03*
X111760Y590440D03*
D10*
X138430Y520620D03*
X138430Y510620D03*
X266780Y662940D03*
X276780Y662940D03*
D11*
X252920Y712780D02*
X252920Y719780D01*
X259920Y719780D01*
X259920Y712780D01*
X252920Y712780D01*
X252920Y715630D02*
X259920Y715630D01*
X259920Y718480D02*
X252920Y718480D01*
X235380Y719780D02*
X235380Y712780D01*
X235380Y719780D02*
X242380Y719780D01*
X242380Y712780D01*
X235380Y712780D01*
X235380Y715630D02*
X242380Y715630D01*
X242380Y718480D02*
X235380Y718480D01*
D10*
X365760Y472520D03*
X365760Y482520D03*
X312340Y657860D03*
X302340Y657860D03*
X322660Y657860D03*
X332660Y657860D03*
D12*
X360300Y452300D03*
X376300Y452300D03*
X376300Y411300D03*
X360300Y411300D03*
D13*
X289500Y417910D03*
X345500Y417910D03*
D14*
X302500Y454660D03*
X312500Y454660D03*
X322500Y454660D03*
X332500Y454660D03*
D10*
X334090Y482600D03*
X344090Y482600D03*
X334090Y472440D03*
X344090Y472440D03*
D15*
X310000Y673960D03*
X315000Y673960D03*
D16*
X285250Y673960D03*
X293000Y673960D03*
D15*
X300000Y673960D03*
X305000Y673960D03*
X325000Y673960D03*
X320000Y673960D03*
D16*
X349750Y673960D03*
X342000Y673960D03*
D15*
X335000Y673960D03*
X330000Y673960D03*
D10*
X290910Y472440D03*
X300910Y472440D03*
X264240Y492760D03*
X274240Y492760D03*
X312420Y472520D03*
X312420Y482520D03*
X267970Y518080D03*
X267970Y508080D03*
X300910Y482600D03*
X290910Y482600D03*
X312340Y577850D03*
X302340Y577850D03*
X355600Y482520D03*
X355600Y472520D03*
X267970Y557610D03*
X267970Y567610D03*
X370840Y558880D03*
X370840Y568880D03*
X322580Y482520D03*
X322580Y472520D03*
X267970Y538400D03*
X267970Y528400D03*
X368300Y653970D03*
X368300Y643970D03*
X358140Y653970D03*
X358140Y643970D03*
X356870Y604440D03*
X356870Y594440D03*
X332820Y579120D03*
X342820Y579120D03*
X370840Y579200D03*
X370840Y589200D03*
X360680Y579040D03*
X360680Y569040D03*
D17*
X275240Y480810D03*
X258240Y480810D03*
X258240Y466810D03*
X275240Y466810D03*
D10*
X334090Y628650D03*
X344090Y628650D03*
D18*
X264350Y628650D03*
X264350Y615950D03*
X264350Y603250D03*
X264350Y590550D03*
X319850Y603250D03*
X319850Y590550D03*
X319850Y615950D03*
X319850Y628650D03*
D19*
X292100Y609600D03*
D10*
X266700Y652700D03*
X266700Y642700D03*
X276860Y642700D03*
X276860Y652700D03*
D12*
X258700Y452300D03*
X274700Y452300D03*
X274700Y411300D03*
X258700Y411300D03*
D20*
X379100Y728010D03*
X390100Y728010D03*
X390100Y709710D03*
X379100Y709710D03*
D21*
X283250Y534860D03*
D10*
X307500Y540860D03*
D21*
X283250Y538860D03*
X283250Y542860D03*
X283250Y546860D03*
X283250Y550860D03*
X283250Y554860D03*
X283250Y558860D03*
X283250Y506860D03*
X283250Y510860D03*
X283250Y514860D03*
X283250Y518860D03*
X283250Y522860D03*
X283250Y526860D03*
X283250Y530860D03*
D22*
X313500Y496610D03*
X309500Y496610D03*
X305500Y496610D03*
X301500Y496610D03*
X297500Y496610D03*
X293500Y496610D03*
X289500Y496610D03*
X341500Y496610D03*
X337500Y496610D03*
X333500Y496610D03*
X329500Y496610D03*
X325500Y496610D03*
X321500Y496610D03*
X317500Y496610D03*
D21*
X351750Y526860D03*
X351750Y522860D03*
X351750Y518860D03*
X351750Y514860D03*
X351750Y510860D03*
X351750Y506860D03*
X351750Y502860D03*
X351750Y554860D03*
X351750Y550860D03*
X351750Y546860D03*
X351750Y542860D03*
X351750Y538860D03*
X351750Y534860D03*
X351750Y530860D03*
D22*
X321500Y565110D03*
X325500Y565110D03*
X329500Y565110D03*
X333500Y565110D03*
X337500Y565110D03*
X341500Y565110D03*
X345500Y565110D03*
X293500Y565110D03*
X297500Y565110D03*
X301500Y565110D03*
X305500Y565110D03*
X309500Y565110D03*
X313500Y565110D03*
X317500Y565110D03*
D10*
X307500Y520860D03*
X327500Y520860D03*
X327500Y540860D03*
X317500Y530860D03*
D22*
X289500Y565110D03*
X345500Y496610D03*
D21*
X283250Y502860D03*
X351750Y558860D03*
D10*
X367030Y530940D03*
X367030Y540940D03*
D23*
X340360Y608440D03*
X340360Y590440D03*
D10*
X367030Y520620D03*
X367030Y510620D03*
X495380Y662940D03*
X505380Y662940D03*
D11*
X481520Y712780D02*
X481520Y719780D01*
X488520Y719780D01*
X488520Y712780D01*
X481520Y712780D01*
X481520Y715630D02*
X488520Y715630D01*
X488520Y718480D02*
X481520Y718480D01*
X463980Y719780D02*
X463980Y712780D01*
X463980Y719780D02*
X470980Y719780D01*
X470980Y712780D01*
X463980Y712780D01*
X463980Y715630D02*
X470980Y715630D01*
X470980Y718480D02*
X463980Y718480D01*
D10*
X594360Y472520D03*
X594360Y482520D03*
X540940Y657860D03*
X530940Y657860D03*
X551260Y657860D03*
X561260Y657860D03*
D12*
X588900Y452300D03*
X604900Y452300D03*
X604900Y411300D03*
X588900Y411300D03*
D13*
X518100Y417910D03*
X574100Y417910D03*
D14*
X531100Y454660D03*
X541100Y454660D03*
X551100Y454660D03*
X561100Y454660D03*
D10*
X562690Y482600D03*
X572690Y482600D03*
X562690Y472440D03*
X572690Y472440D03*
D15*
X538600Y673960D03*
X543600Y673960D03*
D16*
X513850Y673960D03*
X521600Y673960D03*
D15*
X528600Y673960D03*
X533600Y673960D03*
X553600Y673960D03*
X548600Y673960D03*
D16*
X578350Y673960D03*
X570600Y673960D03*
D15*
X563600Y673960D03*
X558600Y673960D03*
D10*
X519510Y472440D03*
X529510Y472440D03*
X492840Y492760D03*
X502840Y492760D03*
X541020Y472520D03*
X541020Y482520D03*
X496570Y518080D03*
X496570Y508080D03*
X529510Y482600D03*
X519510Y482600D03*
X540940Y577850D03*
X530940Y577850D03*
X584200Y482520D03*
X584200Y472520D03*
X496570Y557610D03*
X496570Y567610D03*
X599440Y558880D03*
X599440Y568880D03*
X551180Y482520D03*
X551180Y472520D03*
X496570Y538400D03*
X496570Y528400D03*
X596900Y653970D03*
X596900Y643970D03*
X586740Y653970D03*
X586740Y643970D03*
X585470Y604440D03*
X585470Y594440D03*
X561420Y579120D03*
X571420Y579120D03*
X599440Y579200D03*
X599440Y589200D03*
X589280Y579040D03*
X589280Y569040D03*
D17*
X503840Y480810D03*
X486840Y480810D03*
X486840Y466810D03*
X503840Y466810D03*
D10*
X562690Y628650D03*
X572690Y628650D03*
D18*
X492950Y628650D03*
X492950Y615950D03*
X492950Y603250D03*
X492950Y590550D03*
X548450Y603250D03*
X548450Y590550D03*
X548450Y615950D03*
X548450Y628650D03*
D19*
X520700Y609600D03*
D10*
X495300Y652700D03*
X495300Y642700D03*
X505460Y642700D03*
X505460Y652700D03*
D12*
X487300Y452300D03*
X503300Y452300D03*
X503300Y411300D03*
X487300Y411300D03*
D20*
X607700Y728010D03*
X618700Y728010D03*
X618700Y709710D03*
X607700Y709710D03*
D21*
X511850Y534860D03*
D10*
X536100Y540860D03*
D21*
X511850Y538860D03*
X511850Y542860D03*
X511850Y546860D03*
X511850Y550860D03*
X511850Y554860D03*
X511850Y558860D03*
X511850Y506860D03*
X511850Y510860D03*
X511850Y514860D03*
X511850Y518860D03*
X511850Y522860D03*
X511850Y526860D03*
X511850Y530860D03*
D22*
X542100Y496610D03*
X538100Y496610D03*
X534100Y496610D03*
X530100Y496610D03*
X526100Y496610D03*
X522100Y496610D03*
X518100Y496610D03*
X570100Y496610D03*
X566100Y496610D03*
X562100Y496610D03*
X558100Y496610D03*
X554100Y496610D03*
X550100Y496610D03*
X546100Y496610D03*
D21*
X580350Y526860D03*
X580350Y522860D03*
X580350Y518860D03*
X580350Y514860D03*
X580350Y510860D03*
X580350Y506860D03*
X580350Y502860D03*
X580350Y554860D03*
X580350Y550860D03*
X580350Y546860D03*
X580350Y542860D03*
X580350Y538860D03*
X580350Y534860D03*
X580350Y530860D03*
D22*
X550100Y565110D03*
X554100Y565110D03*
X558100Y565110D03*
X562100Y565110D03*
X566100Y565110D03*
X570100Y565110D03*
X574100Y565110D03*
X522100Y565110D03*
X526100Y565110D03*
X530100Y565110D03*
X534100Y565110D03*
X538100Y565110D03*
X542100Y565110D03*
X546100Y565110D03*
D10*
X536100Y520860D03*
X556100Y520860D03*
X556100Y540860D03*
X546100Y530860D03*
D22*
X518100Y565110D03*
X574100Y496610D03*
D21*
X511850Y502860D03*
X580350Y558860D03*
D10*
X595630Y530940D03*
X595630Y540940D03*
D23*
X568960Y608440D03*
X568960Y590440D03*
D10*
X595630Y520620D03*
X595630Y510620D03*
M02*
