M48
;GenerationSoftware,Autodesk,EAGLE,9.6.2*%
;CreationDate,2024-03-15T16:14:40Z*%
FMAT,2
ICI,OFF
METRIC,TZ,000.000
T5C0.200
T4C0.400
T3C0.650
T2C0.850
T1C1.700
%
G90
M71
T1
X-300Y46736
X18080Y56896
X18080Y54356
X18080Y51816
X18080Y49276
X18080Y46736
X18080Y44196
X18080Y41656
X-300Y41656
X-300Y44196
X-300Y49276
X-300Y51816
X-300Y54356
X45420Y29210
X45420Y26670
X45420Y24130
X45420Y21590
X45420Y19050
X45420Y16510
X45420Y13970
X45420Y11430
X45420Y8890
X45420Y6350
X40940Y1270
X40940Y3810
X-300Y29210
X-300Y26670
X-300Y24130
X-300Y21590
X-300Y19050
X-300Y16510
X-300Y13970
X-300Y11430
X-300Y8890
X-300Y6350
X-300Y3810
X-300Y1270
X40940Y6350
X40940Y8890
X40940Y11430
X22560Y21590
X40940Y13970
X40940Y16510
X40940Y19050
X40940Y21590
X40940Y24130
X40940Y26670
X40940Y29210
X-300Y67056
X18080Y1270
X18080Y3810
X18080Y6350
X18080Y8890
X18080Y11430
X18080Y13970
X18080Y16510
X18080Y19050
X18080Y21590
X18080Y24130
X18080Y26670
X18080Y29210
X-300Y56896
X-300Y59436
X-300Y61976
X-300Y64516
X-300Y69596
X63800Y29210
X63800Y26670
X45420Y3810
X45420Y1270
X63800Y16510
X63800Y19050
X63800Y21590
X63800Y24130
X63800Y1270
X63800Y3810
X63800Y6350
X22560Y29210
X22560Y26670
X22560Y24130
X63800Y8890
X22560Y19050
X22560Y16510
X22560Y13970
X22560Y11430
X22560Y8890
X22560Y6350
X22560Y3810
X22560Y1270
X63800Y11430
X63800Y13970
X18080Y59436
X18080Y61976
X18080Y64516
X18080Y67056
X18080Y69596
X22560Y69596
X22560Y67056
X22560Y64516
X22560Y61976
X22560Y59436
X22560Y56896
X22560Y54356
X22560Y51816
X22560Y49276
X22560Y46736
X22560Y44196
X22560Y41656
X40940Y41656
X40940Y44196
X40940Y46736
X40940Y49276
X40940Y51816
X40940Y54356
X40940Y56896
X40940Y59436
X40940Y61976
X40940Y64516
X40940Y67056
X40940Y69596
X45420Y69596
X45420Y67056
X45420Y64516
X45420Y61976
X45420Y59436
X45420Y56896
X45420Y54356
X45420Y51816
X45420Y49276
X45420Y46736
X45420Y44196
X45420Y41656
X63800Y41656
X63800Y44196
X63800Y46736
X63800Y49276
X63800Y51816
X63800Y54356
X63800Y56896
X63800Y59436
X63800Y61976
X63800Y64516
X63800Y67056
X63800Y69596
T2
X46990Y29210
X46990Y11430
X46990Y6350
X46990Y8890
X46990Y3810
X46990Y1270
X62230Y13970
X62230Y11430
X62230Y16510
X62230Y6350
X62230Y3810
X62230Y8890
X62230Y1270
X62230Y19050
X62230Y24130
X62230Y21590
X62230Y26670
X62230Y29210
X46990Y21590
X1270Y56896
X1270Y59436
X1270Y54356
X1270Y64516
X1270Y67056
X1270Y61976
X1270Y69596
X1270Y51816
X1270Y46736
X1270Y49276
X1270Y44196
X1270Y41656
X16510Y54356
X16510Y51816
X16510Y56896
X16510Y46736
X16510Y44196
X16510Y49276
X16510Y41656
X16510Y59436
X16510Y64516
X16510Y61976
X16510Y67056
X16510Y69596
X1270Y16510
X1270Y19050
X1270Y13970
X1270Y24130
X1270Y26670
X24130Y56896
X24130Y59436
X24130Y54356
X24130Y64516
X24130Y67056
X24130Y61976
X24130Y69596
X24130Y51816
X24130Y46736
X24130Y49276
X24130Y44196
X24130Y41656
X1270Y21590
X1270Y29210
X1270Y11430
X1270Y6350
X1270Y8890
X1270Y3810
X1270Y1270
X16510Y13970
X16510Y11430
X16510Y16510
X16510Y3810
X16510Y8890
X39370Y54356
X39370Y51816
X39370Y56896
X39370Y46736
X39370Y44196
X39370Y49276
X39370Y41656
X39370Y59436
X39370Y64516
X39370Y61976
X39370Y67056
X39370Y69596
X16510Y1270
X16510Y19050
X16510Y24130
X16510Y21590
X16510Y26670
X16510Y29210
X24130Y16510
X24130Y19050
X24130Y13970
X24130Y24130
X24130Y26670
X24130Y21590
X46990Y56896
X46990Y59436
X46990Y54356
X46990Y64516
X46990Y67056
X46990Y61976
X46990Y69596
X46990Y51816
X46990Y46736
X46990Y49276
X46990Y44196
X46990Y41656
X24130Y29210
X24130Y11430
X24130Y6350
X24130Y8890
X24130Y3810
X24130Y1270
X16510Y6350
X39370Y13970
X39370Y11430
X39370Y16510
X39370Y6350
X39370Y3810
X62230Y54356
X62230Y51816
X62230Y56896
X62230Y46736
X62230Y44196
X62230Y49276
X62230Y41656
X62230Y59436
X62230Y64516
X62230Y61976
X62230Y67056
X62230Y69596
X39370Y8890
X39370Y1270
X39370Y19050
X39370Y24130
X39370Y21590
X39370Y26670
X39370Y29210
X46990Y16510
X46990Y19050
X46990Y13970
X46990Y24130
X46990Y26670
T3
X34640Y68501
X51720Y68501
X57500Y68501
X28860Y68501
X11780Y68501
X51720Y28115
X57500Y28115
X28860Y28115
X34640Y28115
X6000Y28115
X11780Y28115
X6000Y68501
T4
X4572Y31765
X13208Y31765
X36068Y72151
X27432Y72151
X27432Y67971
X36068Y67971
X13208Y27585
X4572Y27585
X13208Y72151
X4572Y72151
X4572Y67971
X13208Y67971
X36068Y27585
X27432Y27585
X58928Y31765
X50292Y31765
X50292Y27585
X58928Y27585
X27432Y31765
X36068Y31765
X58928Y72151
X50292Y72151
X50292Y67971
X58928Y67971
T5
X53035Y10287
X54483Y15367
X58801Y12573
X58966Y15418
X56210Y16891
X60198Y19685
X52832Y22225
X50165Y17780
X56718Y21946
X51689Y23622
X56007Y10160
X58903Y5766
X59563Y22428
X55499Y10160
X54991Y10160
X58801Y11430
X50292Y11049
X50292Y10595
X52197Y12319
X52197Y11865
X60452Y8295
X53445Y15357
X53594Y19812
X52984Y15157
X53086Y18415
X53975Y15240
X53975Y21209
X55445Y15113
X59436Y23368
X54991Y15113
X58928Y23368
X52070Y13335
X54356Y10287
X57150Y12954
X56337Y15138
X52019Y15392
X50038Y21209
X52451Y15164
X50419Y19939
X58928Y25654
X53975Y27940
X59436Y25654
X54483Y27940
X48692Y3658
X49530Y23063
X60720Y28500
X58801Y11887
X62865Y30861
X49212Y31940
X52832Y19558
X57861Y9474
X4191Y57531
X5715Y57531
X9322Y57302
X12001Y57785
X15303Y63119
X12700Y62484
X12446Y68961
X5334Y69088
X3429Y70104
X6985Y69977
X13995Y71501
X3556Y59690
X7798Y50851
X7747Y46609
X6833Y44425
X4623Y44069
X4572Y41910
X15189Y43586
X13970Y41656
X13970Y45847
X3302Y52832
X7620Y51816
X7620Y54356
X10160Y54356
X8890Y51816
X7620Y53086
X10160Y53086
X8890Y54356
X3683Y50038
X14605Y54229
X10160Y51816
X11379Y57302
X14605Y50800
X11328Y55550
X4826Y62992
X13081Y49657
X7112Y41275
X10668Y41275
X6223Y55245
X6223Y50546
X11557Y51054
X7849Y55220
X6223Y53188
X5588Y56388
X14199Y72898
X12395Y72923
X5359Y72923
X3708Y72923
X5664Y66573
X12675Y66065
X14199Y63779
X14199Y68326
X9017Y63475
X12573Y58547
X13221Y56286
X8903Y62179
X5182Y61087
X7620Y61976
X9322Y58064
X10160Y55245
X9322Y59588
X4801Y58928
X13462Y58674
X15113Y60579
X5512Y47396
X6858Y48895
X5334Y49022
X7620Y65024
X11150Y68987
X6153Y66110
X12827Y48958
X8026Y44425
X4699Y55880
X6350Y51797
X7315Y50673
X8763Y55753
X13081Y52959
X13246Y55804
X10490Y57277
X14478Y60071
X7112Y62611
X4445Y58166
X10998Y62332
X5969Y64008
X10287Y50546
X13183Y46152
X13843Y62814
X9779Y50546
X9271Y50546
X13081Y51816
X4572Y51435
X4572Y50981
X6477Y52705
X6477Y52251
X14732Y48681
X7725Y55743
X7874Y60198
X7264Y55543
X7366Y58801
X8255Y55626
X8255Y61595
X9725Y55499
X13716Y63754
X9271Y55499
X13208Y63754
X6350Y53721
X8636Y50673
X11430Y53340
X10617Y55524
X6299Y55778
X4318Y61595
X6731Y55550
X4699Y60325
X13208Y66040
X8255Y68326
X13716Y66040
X8763Y68326
X2972Y44044
X3810Y63449
X15000Y68886
X13081Y52273
X17145Y71247
X3492Y72327
X7112Y59944
X12141Y49860
X27051Y57531
X28575Y57531
X32182Y57302
X34862Y57785
X38164Y63119
X35560Y62484
X35306Y68961
X28194Y69088
X26289Y70104
X29845Y69977
X36855Y71501
X26416Y59690
X30658Y50851
X30607Y46609
X29693Y44425
X27483Y44069
X27432Y41910
X38049Y43586
X36830Y41656
X36830Y45847
X26162Y52832
X30480Y51816
X30480Y54356
X33020Y54356
X31750Y51816
X30480Y53086
X33020Y53086
X31750Y54356
X26543Y50038
X37465Y54229
X33020Y51816
X34239Y57302
X37465Y50800
X34188Y55550
X27686Y62992
X35941Y49657
X29972Y41275
X29845Y29591
X29083Y55245
X29083Y50546
X34417Y51054
X30709Y55220
X29083Y53188
X28448Y56388
X37059Y72898
X35255Y72923
X28219Y72923
X26568Y72923
X28524Y66573
X35535Y66065
X37059Y63779
X37059Y68326
X31877Y63475
X35433Y58547
X36081Y56286
X31763Y62179
X28042Y61087
X30480Y61976
X32182Y58064
X33020Y55245
X32182Y59588
X27661Y58928
X36322Y58674
X37973Y60579
X28372Y47396
X29718Y48895
X28194Y49022
X30480Y65024
X34010Y68987
X29013Y66110
X35687Y48958
X30886Y44425
X27559Y55880
X29210Y51797
X30175Y50673
X31623Y55753
X35941Y52959
X36106Y55804
X33350Y57277
X37338Y60071
X29972Y62611
X27305Y58166
X33858Y62332
X28829Y64008
X33147Y50546
X36043Y46152
X36703Y62814
X32639Y50546
X32131Y50546
X35941Y51816
X27432Y51435
X27432Y50981
X29337Y52705
X29337Y52251
X37592Y48681
X30585Y55743
X30734Y60198
X30124Y55543
X30226Y58801
X31115Y55626
X31115Y61595
X32585Y55499
X36576Y63754
X32131Y55499
X36068Y63754
X29210Y53721
X31496Y50673
X34290Y53340
X33477Y55524
X29159Y55778
X27178Y61595
X29591Y55550
X27559Y60325
X36068Y66040
X31115Y68326
X36576Y66040
X31623Y68326
X25832Y44044
X26670Y63449
X37860Y68886
X35941Y52273
X40005Y71247
X26352Y72327
X29972Y59944
X35001Y49860
X49911Y57531
X51435Y57531
X55042Y57302
X57721Y57785
X61023Y63119
X58420Y62484
X58166Y68961
X51054Y69088
X49149Y70104
X52705Y69977
X59715Y71501
X49276Y59690
X53518Y50851
X53467Y46609
X52553Y44425
X50343Y44069
X50292Y41910
X60909Y43586
X59690Y41656
X59690Y45847
X49022Y52832
X53340Y51816
X53340Y54356
X55880Y54356
X54610Y51816
X53340Y53086
X55880Y53086
X54610Y54356
X49403Y50038
X60325Y54229
X55880Y51816
X57099Y57302
X60325Y50800
X57048Y55550
X50546Y62992
X58801Y49657
X52832Y41275
X56388Y41275
X51943Y55245
X51943Y50546
X57277Y51054
X53569Y55220
X51943Y53188
X51308Y56388
X59919Y72898
X58115Y72923
X51079Y72923
X49428Y72923
X51384Y66573
X58395Y66065
X59919Y63779
X59919Y68326
X54737Y63475
X58293Y58547
X58941Y56286
X54623Y62179
X50902Y61087
X53340Y61976
X55042Y58064
X55880Y55245
X55042Y59588
X50521Y58928
X59182Y58674
X60833Y60579
X51232Y47396
X52578Y48895
X51054Y49022
X53340Y65024
X56870Y68987
X51873Y66110
X58547Y48958
X53746Y44425
X50419Y55880
X52070Y51797
X53035Y50673
X54483Y55753
X58801Y52959
X58966Y55804
X56210Y57277
X60198Y60071
X52832Y62611
X50165Y58166
X56718Y62332
X51689Y64008
X56007Y50546
X58903Y46152
X59563Y62814
X55499Y50546
X54991Y50546
X58801Y51816
X50292Y51435
X50292Y50981
X52197Y52705
X52197Y52251
X60452Y48681
X53445Y55743
X53594Y60198
X52984Y55543
X53086Y58801
X53975Y55626
X53975Y61595
X55445Y55499
X59436Y63754
X54991Y55499
X58928Y63754
X52070Y53721
X54356Y50673
X57150Y53340
X56337Y55524
X52019Y55778
X50038Y61595
X52451Y55550
X50419Y60325
X58928Y66040
X53975Y68326
X59436Y66040
X54483Y68326
X48692Y44044
X49530Y63449
X60720Y68886
X58801Y52273
X62865Y71247
X49212Y72327
X52832Y59944
X57861Y49860
X4191Y17145
X5715Y17145
X9322Y16916
X12001Y17399
X15303Y22733
X12700Y22098
X12446Y28575
X5334Y28702
X3429Y29718
X6985Y29591
X13995Y31115
X3556Y19304
X7798Y10465
X7747Y6223
X6833Y4039
X4623Y3683
X4572Y1524
X15189Y3200
X13970Y1270
X13970Y5461
X3302Y12446
X7620Y11430
X7620Y13970
X10160Y13970
X8890Y11430
X7620Y12700
X10160Y12700
X8890Y13970
X3683Y9652
X14605Y13843
X10160Y11430
X11379Y16916
X14605Y10414
X11328Y15164
X4826Y22606
X13081Y9271
X7112Y889
X10668Y889
X6223Y14859
X6223Y10160
X11557Y10668
X7849Y14834
X6223Y12802
X5588Y16002
X14199Y32512
X12395Y32537
X5359Y32537
X3708Y32537
X5664Y26187
X12675Y25679
X14199Y23393
X14199Y27940
X9017Y23089
X12573Y18161
X13221Y15900
X8903Y21793
X5182Y20701
X7620Y21590
X9322Y17678
X10160Y14859
X9322Y19202
X4801Y18542
X13462Y18288
X15113Y20193
X5512Y7010
X6858Y8509
X5334Y8636
X7620Y24638
X11150Y28601
X6153Y25724
X12827Y8573
X8026Y4039
X4699Y15494
X6350Y11411
X7315Y10287
X8763Y15367
X13081Y12573
X13246Y15418
X10490Y16891
X14478Y19685
X7112Y22225
X4445Y17780
X10998Y21946
X5969Y23622
X10287Y10160
X13183Y5766
X13843Y22428
X9779Y10160
X9271Y10160
X13081Y11430
X4572Y11049
X4572Y10595
X6477Y12319
X6477Y11865
X14732Y8295
X7725Y15357
X7874Y19812
X7264Y15157
X7366Y18415
X8255Y15240
X8255Y21209
X9725Y15113
X13716Y23368
X9271Y15113
X13208Y23368
X6350Y13335
X8636Y10287
X11430Y12954
X10617Y15138
X6299Y15392
X4318Y21209
X6731Y15164
X4699Y19939
X13208Y25654
X8255Y27940
X13716Y25654
X8763Y27940
X2972Y3658
X3810Y23063
X15000Y28500
X13081Y11887
X17145Y30861
X3492Y31940
X7112Y19558
X12141Y9474
X27051Y17145
X28575Y17145
X32182Y16916
X34862Y17399
X38164Y22733
X35560Y22098
X35306Y28575
X28194Y28702
X26289Y29718
X36855Y31115
X26416Y19304
X30658Y10465
X30607Y6223
X29693Y4039
X27483Y3683
X27432Y1524
X38049Y3200
X36830Y1270
X36830Y5461
X26162Y12446
X30480Y11430
X30480Y13970
X33020Y13970
X31750Y11430
X30480Y12700
X33020Y12700
X31750Y13970
X26543Y9652
X37465Y13843
X33020Y11430
X34239Y16916
X37465Y10414
X34188Y15164
X27686Y22606
X35941Y9271
X29972Y889
X33528Y889
X29083Y14859
X29083Y10160
X34417Y10668
X30709Y14834
X29083Y12802
X28448Y16002
X37059Y32512
X35255Y32537
X28219Y32537
X26568Y32537
X28524Y26187
X35535Y25679
X37059Y23393
X37059Y27940
X31877Y23089
X35433Y18161
X36081Y15900
X31763Y21793
X28042Y20701
X30480Y21590
X32182Y17678
X33020Y14859
X32182Y19202
X27661Y18542
X36322Y18288
X37973Y20193
X28372Y7010
X33528Y41275
X29718Y8509
X28194Y8636
X30480Y24638
X34010Y28601
X29013Y25724
X35687Y8573
X30886Y4039
X27559Y15494
X29210Y11411
X30175Y10287
X31623Y15367
X35941Y12573
X36106Y15418
X33350Y16891
X37338Y19685
X29972Y22225
X27305Y17780
X33858Y21946
X28829Y23622
X33147Y10160
X36043Y5766
X36703Y22428
X32639Y10160
X32131Y10160
X35941Y11430
X27432Y11049
X27432Y10595
X29337Y12319
X29337Y11865
X37592Y8295
X30585Y15357
X30734Y19812
X30124Y15157
X30226Y18415
X31115Y15240
X31115Y21209
X32585Y15113
X36576Y23368
X32131Y15113
X36068Y23368
X29210Y13335
X31496Y10287
X34290Y12954
X33477Y15138
X29159Y15392
X27178Y21209
X29591Y15164
X27559Y19939
X36068Y25654
X31115Y27940
X36576Y25654
X31623Y27940
X25832Y3658
X26670Y23063
X37860Y28500
X35941Y11887
X40005Y30861
X26352Y31940
X29972Y19558
X35001Y9474
X49911Y17145
X51435Y17145
X55042Y16916
X57721Y17399
X61023Y22733
X58420Y22098
X58166Y28575
X51054Y28702
X49149Y29718
X52705Y29591
X59715Y31115
X49276Y19304
X53518Y10465
X53467Y6223
X52553Y4039
X50343Y3683
X50292Y1524
X60909Y3200
X59690Y1270
X59690Y5461
X49022Y12446
X53340Y11430
X53340Y13970
X55880Y13970
X54610Y11430
X53340Y12700
X55880Y12700
X54610Y13970
X49403Y9652
X60325Y13843
X55880Y11430
X57099Y16916
X60325Y10414
X57048Y15164
X50546Y22606
X58801Y9271
X52832Y889
X56388Y889
X51943Y14859
X51943Y10160
X57277Y10668
X53569Y14834
X51943Y12802
X51308Y16002
X59919Y32512
X58115Y32537
X51079Y32537
X49428Y32537
X51384Y26187
X58395Y25679
X59919Y23393
X59919Y27940
X54737Y23089
X58293Y18161
X58941Y15900
X54623Y21793
X50902Y20701
X53340Y21590
X55042Y17678
X55880Y14859
X55042Y19202
X50521Y18542
X59182Y18288
X60833Y20193
X51232Y7010
X52578Y8509
X51054Y8636
X53340Y24638
X56870Y28601
X51873Y25724
X58547Y8573
X53746Y4039
X50419Y15494
X52070Y11411
M30