M48
;GenerationSoftware,Autodesk,EAGLE,9.6.2*%
;CreationDate,2024-06-06T20:37:55Z*%
FMAT,2
ICI,OFF
METRIC,TZ,000.000
T5C0.200
T4C0.400
T3C0.650
T2C0.850
T1C1.700
%
G90
M71
T1
X114000Y21590
X159720Y50800
X159720Y53340
X159720Y55880
X159720Y58420
X159720Y60960
X159720Y63500
X159720Y66040
X159720Y68580
X155240Y68580
X155240Y66040
X155240Y63500
X155240Y60960
X155240Y58420
X155240Y55880
X155240Y53340
X155240Y50800
X155240Y48260
X155240Y45720
X155240Y43180
X155240Y40640
X136860Y40640
X136860Y43180
X136860Y45720
X136860Y48260
X136860Y50800
X136860Y53340
X136860Y55880
X136860Y58420
X136860Y60960
X136860Y63500
X136860Y66040
X136860Y68580
X132380Y68580
X132380Y66040
X132380Y63500
X132380Y60960
X132380Y58420
X132380Y55880
X132380Y53340
X132380Y50800
X132380Y48260
X132380Y45720
X132380Y43180
X132380Y40640
X114000Y40640
X114000Y43180
X114000Y45720
X114000Y48260
X45420Y48260
X45420Y45720
X45420Y43180
X45420Y40640
X136860Y29210
X136860Y26670
X136860Y24130
X136860Y21590
X136860Y19050
X136860Y16510
X136860Y13970
X136860Y11430
X-300Y29210
X-300Y26670
X-300Y24130
X-300Y21590
X-300Y19050
X-300Y16510
X-300Y13970
X-300Y11430
X-300Y8890
X-300Y6350
X-300Y3810
X-300Y1270
X136860Y8890
X136860Y6350
X136860Y3810
X136860Y1270
X68280Y68580
X68280Y66040
X68280Y63500
X68280Y60960
X22560Y68580
X22560Y66040
X22560Y63500
X22560Y60960
X18080Y1270
X18080Y3810
X18080Y6350
X18080Y8890
X18080Y11430
X18080Y13970
X18080Y16510
X18080Y19050
X18080Y21590
X18080Y24130
X18080Y26670
X18080Y29210
X114000Y50800
X114000Y53340
X114000Y55880
X114000Y58420
X22560Y58420
X22560Y55880
X22560Y53340
X22560Y50800
X155240Y1270
X155240Y3810
X155240Y6350
X155240Y8890
X155240Y11430
X155240Y13970
X155240Y16510
X155240Y19050
X22560Y29210
X22560Y26670
X22560Y24130
X22560Y21590
X22560Y19050
X22560Y16510
X22560Y13970
X22560Y11430
X22560Y8890
X22560Y6350
X22560Y3810
X22560Y1270
X155240Y21590
X155240Y24130
X155240Y26670
X155240Y29210
X91140Y50800
X91140Y53340
X91140Y55880
X91140Y58420
X22560Y48260
X22560Y45720
X22560Y43180
X22560Y40640
X40940Y1270
X40940Y3810
X40940Y6350
X40940Y8890
X40940Y11430
X40940Y13970
X40940Y16510
X40940Y19050
X40940Y21590
X40940Y24130
X40940Y26670
X40940Y29210
X114000Y60960
X114000Y63500
X114000Y66040
X114000Y68580
X68280Y58420
X68280Y55880
X68280Y53340
X68280Y50800
X68280Y48260
X68280Y45720
X68280Y43180
X68280Y40640
X159720Y29210
X109520Y102870
X159720Y26670
X159720Y24130
X45420Y29210
X45420Y26670
X45420Y24130
X45420Y21590
X45420Y19050
X45420Y16510
X45420Y13970
X45420Y11430
X45420Y8890
X45420Y6350
X45420Y3810
X45420Y1270
X159720Y21590
X159720Y19050
X159720Y16510
X159720Y13970
X159720Y11430
X159720Y8890
X159720Y6350
X159720Y3810
X159720Y1270
X63800Y40640
X63800Y43180
X63800Y45720
X63800Y1270
X63800Y3810
X63800Y6350
X63800Y8890
X63800Y11430
X63800Y13970
X63800Y16510
X63800Y19050
X63800Y21590
X63800Y24130
X63800Y26670
X63800Y29210
X109520Y68580
X109520Y66040
X109520Y63500
X109520Y60960
X63800Y48260
X40940Y40640
X40940Y43180
X40940Y45720
X40940Y48260
X40940Y50800
X40940Y53340
X40940Y55880
X40940Y58420
X178100Y1270
X178100Y3810
X178100Y6350
X68280Y29210
X68280Y26670
X68280Y24130
X68280Y21590
X68280Y19050
X68280Y16510
X68280Y13970
X68280Y11430
X68280Y8890
X68280Y6350
X68280Y3810
X68280Y1270
X178100Y8890
X178100Y11430
X178100Y13970
X178100Y16510
X178100Y19050
X178100Y21590
X178100Y24130
X178100Y26670
X178100Y29210
X91140Y60960
X91140Y63500
X91140Y66040
X86660Y1270
X86660Y3810
X86660Y6350
X86660Y8890
X86660Y11430
X86660Y13970
X86660Y16510
X86660Y19050
X86660Y21590
X86660Y24130
X86660Y26670
X86660Y29210
X109520Y58420
X109520Y55880
X109520Y53340
X109520Y50800
X91140Y68580
X40940Y60960
X40940Y63500
X40940Y66040
X40940Y68580
X86660Y58420
X86660Y55880
X86660Y53340
X86660Y50800
X63800Y50800
X63800Y53340
X63800Y55880
X91140Y29210
X91140Y26670
X91140Y24130
X91140Y21590
X91140Y19050
X91140Y16510
X91140Y13970
X91140Y11430
X91140Y8890
X91140Y6350
X91140Y3810
X91140Y1270
X63800Y58420
X-300Y68580
X-300Y66040
X-300Y63500
X-300Y60960
X-300Y58420
X-300Y55880
X-300Y53340
X-300Y50800
X-300Y48260
X-300Y45720
X-300Y43180
X109520Y1270
X109520Y3810
X109520Y6350
X109520Y8890
X109520Y11430
X109520Y13970
X109520Y16510
X109520Y19050
X109520Y21590
X109520Y24130
X109520Y26670
X109520Y29210
X109520Y48260
X109520Y45720
X109520Y43180
X109520Y40640
X-300Y40640
X63800Y60960
X63800Y63500
X63800Y66040
X63800Y68580
X86660Y48260
X86660Y45720
X86660Y43180
X86660Y40640
X45420Y68580
X45420Y66040
X45420Y63500
X114000Y29210
X114000Y26670
X114000Y24130
X45420Y60960
X114000Y19050
X114000Y16510
X114000Y13970
X114000Y11430
X114000Y8890
X114000Y6350
X114000Y3810
X114000Y1270
X18080Y40640
X18080Y43180
X18080Y45720
X18080Y48260
X18080Y50800
X18080Y53340
X18080Y55880
X18080Y58420
X18080Y60960
X18080Y63500
X18080Y66040
X18080Y68580
X132380Y1270
X132380Y3810
X132380Y6350
X132380Y8890
X132380Y11430
X132380Y13970
X132380Y16510
X132380Y19050
X132380Y21590
X132380Y24130
X132380Y26670
X132380Y29210
X91140Y40640
X91140Y43180
X91140Y45720
X91140Y48260
X86660Y68580
X86660Y66040
X86660Y63500
X86660Y60960
X45420Y58420
X45420Y55880
X45420Y53340
X45420Y50800
X159720Y48260
X159720Y45720
X159720Y43180
X159720Y40640
X178100Y40640
X178100Y43180
X178100Y45720
X178100Y48260
X178100Y50800
X178100Y53340
X178100Y55880
X178100Y58420
X178100Y60960
X178100Y63500
X178100Y66040
X178100Y68580
X-300Y107950
X-300Y105410
X-300Y102870
X-300Y100330
X-300Y97790
X-300Y95250
X-300Y92710
X-300Y90170
X-300Y87630
X-300Y85090
X-300Y82550
X-300Y80010
X18080Y80010
X18080Y82550
X18080Y85090
X18080Y87630
X18080Y90170
X18080Y92710
X18080Y95250
X18080Y97790
X18080Y100330
X18080Y102870
X18080Y105410
X18080Y107950
X22560Y107950
X22560Y105410
X22560Y102870
X22560Y100330
X22560Y97790
X22560Y95250
X22560Y92710
X22560Y90170
X22560Y87630
X22560Y85090
X22560Y82550
X22560Y80010
X40940Y80010
X40940Y82550
X40940Y85090
X40940Y87630
X40940Y90170
X40940Y92710
X40940Y95250
X40940Y97790
X40940Y100330
X40940Y102870
X40940Y105410
X40940Y107950
X45420Y107950
X45420Y105410
X45420Y102870
X45420Y100330
X45420Y97790
X45420Y95250
X45420Y92710
X45420Y90170
X45420Y87630
X45420Y85090
X45420Y82550
X45420Y80010
X63800Y80010
X63800Y82550
X63800Y85090
X63800Y87630
X63800Y90170
X63800Y92710
X63800Y95250
X63800Y97790
X63800Y100330
X63800Y102870
X63800Y105410
X63800Y107950
X68280Y107950
X68280Y105410
X68280Y102870
X68280Y100330
X68280Y97790
X68280Y95250
X68280Y92710
X68280Y90170
X68280Y87630
X68280Y85090
X68280Y82550
X68280Y80010
X86660Y80010
X86660Y82550
X86660Y85090
X86660Y87630
X86660Y90170
X86660Y92710
X86660Y95250
X86660Y97790
X86660Y100330
X86660Y102870
X86660Y105410
X86660Y107950
X91140Y107950
X91140Y105410
X91140Y102870
X91140Y100330
X91140Y97790
X91140Y95250
X91140Y92710
X91140Y90170
X91140Y87630
X91140Y85090
X91140Y82550
X91140Y80010
X109520Y80010
X109520Y82550
X109520Y85090
X109520Y87630
X109520Y90170
X109520Y92710
X109520Y95250
X109520Y97790
X109520Y100330
X109520Y105410
X109520Y107950
X114000Y107950
X114000Y105410
X114000Y102870
X114000Y100330
X114000Y97790
X114000Y95250
X114000Y92710
X114000Y90170
X114000Y87630
X114000Y85090
X114000Y82550
X114000Y80010
X132380Y80010
X132380Y82550
X132380Y85090
X132380Y87630
X132380Y90170
X132380Y92710
X132380Y95250
X132380Y97790
X132380Y100330
X132380Y102870
X132380Y105410
X132380Y107950
X136860Y107950
X136860Y105410
X136860Y102870
X136860Y100330
X136860Y97790
X136860Y95250
X136860Y92710
X136860Y90170
X136860Y87630
X136860Y85090
X136860Y82550
X136860Y80010
X155240Y80010
X155240Y82550
X155240Y85090
X155240Y87630
X155240Y90170
X155240Y92710
X155240Y95250
X155240Y97790
X155240Y100330
X155240Y102870
X155240Y105410
X155240Y107950
X159720Y107950
X159720Y105410
X159720Y102870
X159720Y100330
X159720Y97790
X159720Y95250
X159720Y92710
X159720Y90170
X159720Y87630
X159720Y85090
X159720Y82550
X159720Y80010
X178100Y80010
X178100Y82550
X178100Y85090
X178100Y87630
X178100Y90170
X178100Y92710
X178100Y95250
X178100Y97790
X178100Y100330
X178100Y102870
X178100Y105410
X178100Y107950
T2
X16510Y45720
X16510Y43180
X16510Y48260
X16510Y40640
X16510Y58420
X16510Y63500
X16510Y60960
X16510Y66040
X16510Y68580
X24130Y55880
X24130Y58420
X24130Y53340
X24130Y63500
X24130Y66040
X24130Y60960
X24130Y68580
X24130Y50800
X24130Y45720
X24130Y48260
X24130Y43180
X24130Y40640
X39370Y53340
X39370Y50800
X39370Y55880
X39370Y45720
X39370Y43180
X39370Y48260
X39370Y40640
X39370Y58420
X39370Y63500
X39370Y60960
X39370Y66040
X39370Y68580
X46990Y55880
X46990Y58420
X46990Y53340
X46990Y63500
X46990Y66040
X46990Y60960
X46990Y68580
X46990Y50800
X46990Y45720
X46990Y48260
X46990Y43180
X46990Y40640
X62230Y53340
X62230Y50800
X62230Y55880
X62230Y45720
X62230Y43180
X62230Y48260
X62230Y40640
X62230Y58420
X62230Y63500
X62230Y60960
X62230Y66040
X62230Y68580
X69850Y55880
X69850Y58420
X69850Y53340
X69850Y63500
X69850Y66040
X69850Y60960
X69850Y68580
X69850Y50800
X69850Y45720
X69850Y48260
X69850Y43180
X69850Y40640
X85090Y53340
X85090Y50800
X85090Y55880
X130810Y66040
X85090Y43180
X85090Y48260
X85090Y40640
X85090Y58420
X85090Y63500
X85090Y60960
X85090Y66040
X85090Y68580
X92710Y55880
X92710Y58420
X92710Y53340
X92710Y63500
X92710Y66040
X92710Y60960
X92710Y68580
X92710Y50800
X92710Y45720
X92710Y48260
X92710Y43180
X92710Y40640
X107950Y53340
X107950Y50800
X107950Y55880
X107950Y45720
X107950Y43180
X107950Y48260
X107950Y40640
X107950Y58420
X107950Y63500
X107950Y60960
X107950Y66040
X107950Y68580
X115570Y55880
X115570Y58420
X115570Y53340
X115570Y63500
X115570Y66040
X115570Y60960
X115570Y68580
X115570Y50800
X115570Y45720
X115570Y48260
X115570Y43180
X115570Y40640
X130810Y53340
X130810Y50800
X130810Y55880
X130810Y45720
X130810Y43180
X130810Y48260
X130810Y40640
X130810Y58420
X130810Y63500
X130810Y60960
X130810Y68580
X138430Y55880
X138430Y58420
X138430Y53340
X138430Y63500
X138430Y66040
X138430Y60960
X138430Y68580
X138430Y50800
X138430Y45720
X138430Y48260
X138430Y43180
X138430Y40640
X153670Y53340
X153670Y50800
X153670Y55880
X153670Y45720
X153670Y43180
X153670Y48260
X153670Y40640
X153670Y58420
X153670Y63500
X153670Y60960
X153670Y66040
X153670Y68580
X161290Y55880
X161290Y58420
X161290Y53340
X161290Y63500
X161290Y66040
X161290Y60960
X161290Y68580
X161290Y50800
X161290Y45720
X161290Y48260
X161290Y43180
X161290Y40640
X1270Y16510
X1270Y19050
X1270Y13970
X1270Y24130
X176530Y53340
X176530Y50800
X176530Y55880
X176530Y45720
X176530Y43180
X176530Y48260
X176530Y40640
X176530Y58420
X176530Y63500
X176530Y60960
X176530Y66040
X176530Y68580
X1270Y26670
X1270Y21590
X1270Y29210
X1270Y11430
X1270Y6350
X1270Y8890
X1270Y3810
X1270Y1270
X16510Y13970
X16510Y11430
X16510Y16510
X16510Y6350
X1270Y95250
X1270Y97790
X1270Y92710
X1270Y102870
X1270Y105410
X1270Y100330
X1270Y107950
X1270Y90170
X1270Y85090
X1270Y87630
X1270Y82550
X1270Y80010
X16510Y3810
X16510Y8890
X16510Y1270
X16510Y19050
X16510Y24130
X16510Y21590
X16510Y26670
X16510Y29210
X24130Y16510
X24130Y19050
X24130Y13970
X24130Y24130
X16510Y92710
X16510Y90170
X16510Y95250
X16510Y85090
X16510Y82550
X16510Y87630
X16510Y80010
X16510Y97790
X16510Y102870
X16510Y100330
X16510Y105410
X16510Y107950
X24130Y26670
X24130Y21590
X24130Y29210
X24130Y11430
X24130Y6350
X24130Y8890
X24130Y3810
X24130Y1270
X39370Y13970
X39370Y11430
X39370Y16510
X39370Y6350
X24130Y95250
X24130Y97790
X24130Y92710
X24130Y102870
X24130Y105410
X24130Y100330
X24130Y107950
X24130Y90170
X24130Y85090
X24130Y87630
X24130Y82550
X24130Y80010
X39370Y3810
X39370Y8890
X39370Y1270
X39370Y19050
X39370Y24130
X39370Y21590
X39370Y26670
X39370Y29210
X46990Y16510
X46990Y19050
X46990Y13970
X46990Y24130
X39370Y92710
X39370Y90170
X39370Y95250
X39370Y85090
X39370Y82550
X39370Y87630
X39370Y80010
X39370Y97790
X39370Y102870
X39370Y100330
X39370Y105410
X39370Y107950
X46990Y26670
X46990Y21590
X46990Y29210
X46990Y11430
X46990Y6350
X46990Y3810
X46990Y1270
X62230Y13970
X62230Y11430
X62230Y16510
X62230Y6350
X62230Y3810
X46990Y95250
X46990Y97790
X46990Y92710
X46990Y102870
X46990Y105410
X46990Y100330
X46990Y107950
X46990Y90170
X46990Y85090
X46990Y87630
X46990Y82550
X46990Y80010
X62230Y8890
X62230Y1270
X62230Y19050
X62230Y24130
X62230Y21590
X62230Y26670
X62230Y29210
X69850Y16510
X69850Y19050
X69850Y13970
X69850Y24130
X69850Y26670
X62230Y92710
X62230Y90170
X62230Y95250
X62230Y85090
X62230Y82550
X62230Y87630
X62230Y80010
X62230Y97790
X62230Y102870
X62230Y100330
X62230Y105410
X62230Y107950
X69850Y21590
X69850Y29210
X69850Y11430
X69850Y6350
X69850Y8890
X69850Y3810
X69850Y1270
X85090Y13970
X85090Y11430
X85090Y16510
X85090Y6350
X85090Y3810
X69850Y95250
X69850Y97790
X69850Y92710
X69850Y102870
X69850Y105410
X69850Y100330
X69850Y107950
X69850Y90170
X69850Y85090
X69850Y87630
X69850Y82550
X69850Y80010
X85090Y8890
X85090Y1270
X85090Y19050
X85090Y24130
X85090Y21590
X85090Y26670
X85090Y29210
X92710Y16510
X92710Y19050
X92710Y13970
X92710Y24130
X92710Y26670
X85090Y92710
X85090Y90170
X85090Y95250
X85090Y85090
X85090Y82550
X85090Y87630
X85090Y80010
X85090Y97790
X85090Y102870
X85090Y100330
X85090Y105410
X85090Y107950
X92710Y21590
X92710Y29210
X92710Y11430
X92710Y6350
X92710Y8890
X92710Y3810
X92710Y1270
X107950Y13970
X107950Y11430
X107950Y16510
X107950Y6350
X107950Y3810
X92710Y95250
X92710Y97790
X92710Y92710
X92710Y102870
X92710Y105410
X92710Y100330
X92710Y107950
X92710Y90170
X92710Y85090
X92710Y87630
X92710Y82550
X92710Y80010
X107950Y8890
X107950Y1270
X107950Y19050
X107950Y24130
X107950Y21590
X107950Y26670
X107950Y29210
X115570Y16510
X115570Y19050
X115570Y13970
X115570Y24130
X115570Y26670
X107950Y92710
X107950Y90170
X107950Y95250
X107950Y85090
X107950Y82550
X107950Y87630
X107950Y80010
X107950Y97790
X107950Y102870
X107950Y100330
X107950Y105410
X107950Y107950
X115570Y21590
X115570Y29210
X115570Y11430
X115570Y6350
X115570Y8890
X115570Y3810
X115570Y1270
X46990Y8890
X130810Y13970
X85090Y45720
X130810Y11430
X130810Y16510
X115570Y95250
X115570Y97790
X115570Y92710
X115570Y102870
X115570Y105410
X115570Y100330
X115570Y107950
X115570Y90170
X115570Y85090
X115570Y87630
X115570Y82550
X115570Y80010
X130810Y6350
X130810Y3810
X130810Y8890
X130810Y1270
X130810Y19050
X130810Y24130
X130810Y21590
X130810Y26670
X130810Y29210
X138430Y16510
X138430Y19050
X138430Y13970
X130810Y92710
X130810Y90170
X130810Y95250
X130810Y85090
X130810Y82550
X130810Y87630
X130810Y80010
X130810Y97790
X130810Y102870
X130810Y100330
X130810Y105410
X130810Y107950
X138430Y24130
X138430Y26670
X138430Y21590
X138430Y29210
X138430Y11430
X138430Y6350
X138430Y8890
X138430Y3810
X138430Y1270
X153670Y13970
X153670Y11430
X153670Y16510
X138430Y95250
X138430Y97790
X138430Y92710
X138430Y102870
X138430Y105410
X138430Y100330
X138430Y107950
X138430Y90170
X138430Y85090
X138430Y87630
X138430Y82550
X138430Y80010
X153670Y6350
X153670Y3810
X153670Y8890
X153670Y1270
X153670Y19050
X153670Y24130
X153670Y21590
X153670Y26670
X153670Y29210
X161290Y16510
X161290Y19050
X161290Y13970
X153670Y92710
X153670Y90170
X153670Y95250
X153670Y85090
X153670Y82550
X153670Y87630
X153670Y80010
X153670Y97790
X153670Y102870
X153670Y100330
X153670Y105410
X153670Y107950
X161290Y24130
X161290Y26670
X161290Y21590
X161290Y29210
X161290Y11430
X161290Y6350
X161290Y8890
X161290Y3810
X161290Y1270
X176530Y13970
X176530Y11430
X176530Y16510
X161290Y95250
X161290Y97790
X161290Y92710
X161290Y102870
X161290Y105410
X161290Y100330
X161290Y107950
X161290Y90170
X161290Y85090
X161290Y87630
X161290Y82550
X161290Y80010
X176530Y6350
X176530Y3810
X176530Y8890
X176530Y1270
X176530Y19050
X176530Y24130
X176530Y21590
X176530Y26670
X176530Y29210
X1270Y55880
X1270Y58420
X1270Y53340
X176530Y92710
X176530Y90170
X176530Y95250
X176530Y85090
X176530Y82550
X176530Y87630
X176530Y80010
X176530Y97790
X176530Y102870
X176530Y100330
X176530Y105410
X176530Y107950
X1270Y63500
X1270Y66040
X1270Y60960
X1270Y68580
X1270Y50800
X1270Y45720
X1270Y48260
X1270Y43180
X1270Y40640
X16510Y53340
X16510Y50800
X16510Y55880
T3
X166020Y67485
X171800Y67485
X143160Y67485
X148940Y67485
X120300Y67485
X126080Y67485
X97440Y67485
X103220Y67485
X74580Y67485
X80360Y67485
X51720Y67485
X57500Y67485
X34640Y67485
X6000Y67485
X11780Y67485
X126080Y28115
X97440Y28115
X103220Y28115
X51720Y28115
X28860Y28115
X57500Y28115
X74580Y28115
X80360Y28115
X166020Y28115
X171800Y28115
X143160Y28115
X148940Y28115
X120300Y28115
X28860Y67485
X34640Y28115
X6000Y28115
X11780Y28115
X166020Y106855
X171800Y106855
X143160Y106855
X148940Y106855
X120300Y106855
X126080Y106855
X97440Y106855
X103220Y106855
X74580Y106855
X80360Y106855
X51720Y106855
X57500Y106855
X28860Y106855
X34640Y106855
X6000Y106855
X11780Y106855
T4
X13208Y106325
X127508Y110505
X118872Y110505
X118872Y106325
X127508Y106325
X150368Y71135
X141732Y71135
X141732Y66955
X150368Y66955
X13208Y71135
X173228Y27585
X164592Y31765
X173228Y31765
X150368Y27585
X141732Y27585
X141732Y31765
X150368Y31765
X36068Y27585
X27432Y27585
X27432Y31765
X81788Y110505
X73152Y110505
X73152Y106325
X81788Y106325
X164592Y27585
X58928Y110505
X50292Y110505
X50292Y106325
X36068Y31765
X13208Y27585
X4572Y27585
X4572Y31765
X13208Y31765
X58928Y106325
X81788Y31765
X58928Y27585
X50292Y27585
X127508Y27585
X118872Y27585
X118872Y31765
X150368Y110505
X141732Y110505
X141732Y106325
X150368Y106325
X127508Y31765
X81788Y71135
X73152Y71135
X73152Y66955
X36068Y110505
X27432Y110505
X27432Y106325
X36068Y106325
X81788Y66955
X58928Y66955
X50292Y66955
X50292Y71135
X50292Y31765
X58928Y31765
X104648Y71135
X96012Y71135
X96012Y66955
X104648Y66955
X13208Y66955
X4572Y66955
X173228Y71135
X164592Y71135
X164592Y66955
X173228Y66955
X4572Y71135
X13208Y110505
X4572Y110505
X4572Y106325
X127508Y71135
X118872Y71135
X118872Y66955
X127508Y66955
X104648Y110505
X96012Y110505
X96012Y106325
X104648Y106325
X58928Y71135
X36068Y66955
X27432Y66955
X27432Y71135
X36068Y71135
X104648Y27585
X96012Y27585
X96012Y31765
X104648Y31765
X81788Y27585
X73152Y27585
X73152Y31765
X173228Y110505
X164592Y110505
X164592Y106325
X173228Y106325
T5
X51079Y71907
X49428Y71907
X51384Y65557
X58395Y65049
X59919Y62763
X59919Y67310
X54737Y62459
X58293Y57531
X58941Y55270
X54623Y61163
X50902Y60071
X53340Y60960
X55042Y57048
X55880Y54229
X55042Y58572
X50521Y57912
X59182Y57658
X60833Y59563
X51232Y46380
X52578Y47879
X51054Y48006
X53340Y64008
X56870Y67971
X51873Y65094
X58547Y47942
X53746Y43409
X50419Y54864
X52070Y50781
X53035Y49657
X54483Y54737
X58801Y51943
X58966Y54788
X56210Y56261
X60198Y59055
X52832Y61595
X50165Y57150
X56718Y61316
X51689Y62992
X56007Y49530
X58903Y45136
X59563Y61798
X55499Y49530
X54991Y49530
X58801Y50800
X50292Y50419
X50292Y49965
X52197Y51689
X52197Y51235
X60452Y47665
X53445Y54727
X53594Y59182
X52984Y54527
X53086Y57785
X53975Y54610
X53975Y60579
X55445Y54483
X59436Y62738
X54991Y54483
X58928Y62738
X52070Y52705
X54356Y49657
X57150Y52324
X56337Y54508
X52019Y54762
X50038Y60579
X52451Y54534
X50419Y59309
X58928Y65024
X53975Y67310
X59436Y65024
X54483Y67310
X48692Y43028
X49530Y62433
X60720Y67870
X58801Y51257
X62865Y70231
X49212Y71311
X52832Y58928
X57861Y48844
X72771Y56515
X74295Y56515
X77902Y56286
X80582Y56769
X83884Y62103
X81280Y61468
X81026Y67945
X73914Y68072
X72009Y69088
X75565Y68961
X82575Y70485
X72136Y58674
X76378Y49835
X76327Y45593
X75413Y43409
X73203Y43053
X73152Y40894
X83769Y42570
X82550Y40640
X82550Y44831
X71882Y51816
X76200Y50800
X76200Y53340
X78740Y53340
X77470Y50800
X76200Y52070
X78740Y52070
X77470Y53340
X72263Y49022
X83185Y53213
X78740Y50800
X79959Y56286
X83185Y49784
X79908Y54534
X73406Y61976
X81661Y48641
X75692Y40259
X79248Y40259
X74803Y54229
X74803Y49530
X80137Y50038
X76429Y54204
X74803Y52172
X74168Y55372
X82779Y71882
X80975Y71907
X73939Y71907
X72288Y71907
X74244Y65557
X81255Y65049
X82779Y62763
X82779Y67310
X77597Y62459
X81153Y57531
X81801Y55270
X77483Y61163
X73762Y60071
X76200Y60960
X77902Y57048
X78740Y54229
X77902Y58572
X73381Y57912
X82042Y57658
X83693Y59563
X74092Y46380
X75438Y47879
X73914Y48006
X76200Y64008
X79730Y67971
X74733Y65094
X81407Y47942
X76606Y43409
X73279Y54864
X74930Y50781
X75895Y49657
X77343Y54737
X81661Y51943
X81826Y54788
X79070Y56261
X83058Y59055
X75692Y61595
X73025Y57150
X79578Y61316
X74549Y62992
X78867Y49530
X81763Y45136
X82423Y61798
X78359Y49530
X77851Y49530
X81661Y50800
X73152Y50419
X73152Y49965
X75057Y51689
X75057Y51235
X83312Y47665
X76305Y54727
X76454Y59182
X75844Y54527
X75946Y57785
X76835Y54610
X76835Y60579
X78305Y54483
X82296Y62738
X77851Y54483
X81788Y62738
X74930Y52705
X77216Y49657
X80010Y52324
X79197Y54508
X74879Y54762
X72898Y60579
X75311Y54534
X73279Y59309
X81788Y65024
X76835Y67310
X82296Y65024
X77343Y67310
X71552Y43028
X72390Y62433
X83580Y67870
X81661Y51257
X85725Y70231
X72073Y71311
X75692Y58928
X80721Y48844
X95631Y56515
X97155Y56515
X100762Y56286
X103441Y56769
X106743Y62103
X104140Y61468
X103886Y67945
X96774Y68072
X94869Y69088
X98425Y68961
X105435Y70485
X94996Y58674
X99238Y49835
X99187Y45593
X98273Y43409
X96063Y43053
X96012Y40894
X106629Y42570
X105410Y40640
X105410Y44831
X94742Y51816
X99060Y50800
X99060Y53340
X101600Y53340
X100330Y50800
X99060Y52070
X101600Y52070
X100330Y53340
X95123Y49022
X106045Y53213
X101600Y50800
X102819Y56286
X106045Y49784
X102768Y54534
X96266Y61976
X104521Y48641
X98552Y40259
X102108Y40259
X97663Y54229
X97663Y49530
X102997Y50038
X99289Y54204
X97663Y52172
X97028Y55372
X105639Y71882
X103835Y71907
X96799Y71907
X95148Y71907
X97104Y65557
X104115Y65049
X105639Y62763
X105639Y67310
X100457Y62459
X104013Y57531
X104661Y55270
X100343Y61163
X96622Y60071
X99060Y60960
X100762Y57048
X101600Y54229
X100762Y58572
X96241Y57912
X104902Y57658
X106553Y59563
X96952Y46380
X98298Y47879
X96774Y48006
X99060Y64008
X102590Y67971
X97593Y65094
X104267Y47942
X99466Y43409
X96139Y54864
X97790Y50781
X98755Y49657
X100203Y54737
X104521Y51943
X104686Y54788
X101930Y56261
X105918Y59055
X98552Y61595
X95885Y57150
X102438Y61316
X97409Y62992
X101727Y49530
X104623Y45136
X105283Y61798
X101219Y49530
X100711Y49530
X104521Y50800
X96012Y50419
X96012Y49965
X97917Y51689
X97917Y51235
X106172Y47665
X99165Y54727
X99314Y59182
X98704Y54527
X98806Y57785
X99695Y54610
X99695Y60579
X101165Y54483
X105156Y62738
X100711Y54483
X104648Y62738
X97790Y52705
X100076Y49657
X102870Y52324
X102057Y54508
X97739Y54762
X95758Y60579
X98171Y54534
X96139Y59309
X104648Y65024
X99695Y67310
X105156Y65024
X100203Y67310
X94412Y43028
X95250Y62433
X106440Y67870
X104521Y51257
X108585Y70231
X94932Y71311
X98552Y58928
X103581Y48844
X118491Y56515
X120015Y56515
X123622Y56286
X126301Y56769
X129603Y62103
X127000Y61468
X126746Y67945
X119634Y68072
X117729Y69088
X121285Y68961
X128295Y70485
X117856Y58674
X122098Y49835
X122047Y45593
X121133Y43409
X118923Y43053
X118872Y40894
X129489Y42570
X128270Y40640
X128270Y44831
X117602Y51816
X121920Y50800
X121920Y53340
X124460Y53340
X123190Y50800
X121920Y52070
X124460Y52070
X123190Y53340
X117983Y49022
X128905Y53213
X124460Y50800
X125679Y56286
X128905Y49784
X125628Y54534
X119126Y61976
X127381Y48641
X121412Y40259
X124968Y40259
X120523Y54229
X120523Y49530
X125857Y50038
X122149Y54204
X120523Y52172
X119888Y55372
X128499Y71882
X126695Y71907
X119659Y71907
X118008Y71907
X119964Y65557
X126975Y65049
X128499Y62763
X128499Y67310
X123317Y62459
X126873Y57531
X127521Y55270
X123203Y61163
X119482Y60071
X121920Y60960
X123622Y57048
X124460Y54229
X123622Y58572
X119101Y57912
X127762Y57658
X129413Y59563
X119812Y46380
X121158Y47879
X119634Y48006
X121920Y64008
X125450Y67971
X120453Y65094
X127127Y47942
X122326Y43409
X118999Y54864
X120650Y50781
X121615Y49657
X123063Y54737
X127381Y51943
X127546Y54788
X124790Y56261
X128778Y59055
X121412Y61595
X118745Y57150
X125298Y61316
X120269Y62992
X124587Y49530
X127483Y45136
X128143Y61798
X124079Y49530
X123571Y49530
X127381Y50800
X118872Y50419
X118872Y49965
X120777Y51689
X120777Y51235
X129032Y47665
X122025Y54727
X122174Y59182
X121564Y54527
X121666Y57785
X122555Y54610
X122555Y60579
X124025Y54483
X128016Y62738
X123571Y54483
X127508Y62738
X120650Y52705
X122936Y49657
X125730Y52324
X124917Y54508
X120599Y54762
X118618Y60579
X121031Y54534
X118999Y59309
X127508Y65024
X122555Y67310
X128016Y65024
X123063Y67310
X117272Y43028
X118110Y62433
X129300Y67870
X127381Y51257
X131445Y70231
X117792Y71311
X121412Y58928
X126441Y48844
X141351Y56515
X142875Y56515
X146482Y56286
X149162Y56769
X152464Y62103
X149860Y61468
X149606Y67945
X142494Y68072
X140589Y69088
X144145Y68961
X151155Y70485
X140716Y58674
X144958Y49835
X144907Y45593
X143993Y43409
X141783Y43053
X141732Y40894
X152349Y42570
X151130Y40640
X151130Y44831
X140462Y51816
X144780Y50800
X144780Y53340
X147320Y53340
X146050Y50800
X144780Y52070
X147320Y52070
X146050Y53340
X140843Y49022
X151765Y53213
X147320Y50800
X148539Y56286
X151765Y49784
X148488Y54534
X141986Y61976
X150241Y48641
X144272Y40259
X147828Y40259
X143383Y54229
X143383Y49530
X148717Y50038
X145009Y54204
X143383Y52172
X142748Y55372
X151359Y71882
X149555Y71907
X142519Y71907
X140868Y71907
X142824Y65557
X149835Y65049
X151359Y62763
X151359Y67310
X146177Y62459
X149733Y57531
X150381Y55270
X146063Y61163
X142342Y60071
X144780Y60960
X146482Y57048
X147320Y54229
X146482Y58572
X141961Y57912
X150622Y57658
X152273Y59563
X142672Y46380
X144018Y47879
X142494Y48006
X144780Y64008
X148310Y67971
X143313Y65094
X149987Y47942
X145186Y43409
X141859Y54864
X143510Y50781
X144475Y49657
X145923Y54737
X150241Y51943
X150406Y54788
X147650Y56261
X151638Y59055
X144272Y61595
X141605Y57150
X148158Y61316
X143129Y62992
X147447Y49530
X150343Y45136
X151003Y61798
X146939Y49530
X146431Y49530
X150241Y50800
X141732Y50419
X141732Y49965
X143637Y51689
X143637Y51235
X151892Y47665
X144885Y54727
X145034Y59182
X144424Y54527
X144526Y57785
X145415Y54610
X145415Y60579
X146885Y54483
X150876Y62738
X146431Y54483
X150368Y62738
X143510Y52705
X145796Y49657
X148590Y52324
X147777Y54508
X143459Y54762
X141478Y60579
X143891Y54534
X141859Y59309
X150368Y65024
X145415Y67310
X150876Y65024
X145923Y67310
X140132Y43028
X140970Y62433
X152160Y67870
X150241Y51257
X154305Y70231
X140653Y71311
X144272Y58928
X149301Y48844
X164211Y56515
X165735Y56515
X169342Y56286
X172022Y56769
X175323Y62103
X172720Y61468
X172466Y67945
X165354Y68072
X163449Y69088
X167005Y68961
X174015Y70485
X163576Y58674
X167818Y49835
X167767Y45593
X166853Y43409
X164643Y43053
X164592Y40894
X175209Y42570
X173990Y40640
X173990Y44831
X163322Y51816
X167640Y50800
X167640Y53340
X170180Y53340
X168910Y50800
X167640Y52070
X170180Y52070
X168910Y53340
X163703Y49022
X174625Y53213
X170180Y50800
X171399Y56286
X174625Y49784
X171348Y54534
X164846Y61976
X173101Y48641
X167132Y40259
X170688Y40259
X166243Y54229
X166243Y49530
X171577Y50038
X167869Y54204
X166243Y52172
X165608Y55372
X174219Y71882
X172415Y71907
X165379Y71907
X163728Y71907
X165684Y65557
X172695Y65049
X174219Y62763
X174219Y67310
X169037Y62459
X172593Y57531
X173241Y55270
X168923Y61163
X165202Y60071
X167640Y60960
X169342Y57048
X170180Y54229
X169342Y58572
X164821Y57912
X173482Y57658
X175133Y59563
X165532Y46380
X166878Y47879
X165354Y48006
X167640Y64008
X171170Y67971
X166173Y65094
X172847Y47942
X168046Y43409
X164719Y54864
X166370Y50781
X167335Y49657
X168783Y54737
X173101Y51943
X173266Y54788
X170510Y56261
X174498Y59055
X167132Y61595
X164465Y57150
X171018Y61316
X165989Y62992
X170307Y49530
X173203Y45136
X173863Y61798
X169799Y49530
X169291Y49530
X173101Y50800
X164592Y50419
X164592Y49965
X166497Y51689
X166497Y51235
X174752Y47665
X167745Y54727
X167894Y59182
X167284Y54527
X167386Y57785
X168275Y54610
X168275Y60579
X169745Y54483
X173736Y62738
X169291Y54483
X173228Y62738
X166370Y52705
X168656Y49657
X171450Y52324
X170637Y54508
X166319Y54762
X164338Y60579
X166751Y54534
X164719Y59309
X173228Y65024
X168275Y67310
X173736Y65024
X168783Y67310
X162992Y43028
X163830Y62433
X175020Y67870
X173101Y51257
X177165Y70231
X163513Y71311
X167132Y58928
X172161Y48844
X4191Y95885
X5715Y95885
X9322Y95656
X12001Y96139
X15303Y101473
X12700Y100838
X12446Y107315
X5334Y107442
X3429Y108458
X6985Y108331
X13995Y109855
X3556Y98044
X7798Y89205
X7747Y84963
X6833Y82779
X4623Y82423
X4572Y80264
X15189Y81940
X13970Y80010
X13970Y84201
X3302Y91186
X7620Y90170
X7620Y92710
X10160Y92710
X8890Y90170
X7620Y91440
X10160Y91440
X8890Y92710
X3683Y88392
X14605Y92583
X10160Y90170
X11379Y95656
X14605Y89154
X11328Y93904
X4826Y101346
X13081Y88011
X7112Y79629
X10668Y79629
X6223Y93599
X6223Y88900
X11557Y89408
X7849Y93574
X6223Y91542
X5588Y94742
X14199Y111252
X12395Y111277
X5359Y111277
X3708Y111277
X5664Y104927
X12675Y104419
X14199Y102133
X14199Y106680
X9017Y101829
X12573Y96901
X13221Y94640
X8903Y100533
X5182Y99441
X7620Y100330
X9322Y96418
X10160Y93599
X9322Y97942
X4801Y97282
X13462Y97028
X15113Y98933
X5512Y85750
X6858Y87249
X5334Y87376
X7620Y103378
X11150Y107341
X6153Y104464
X12827Y87313
X8026Y82779
X4699Y94234
X6350Y90151
X7315Y89027
X8763Y94107
X13081Y91313
X13246Y94158
X10490Y95631
X14478Y98425
X7112Y100965
X4445Y96520
X10998Y100686
X5969Y102362
X10287Y88900
X13183Y84506
X13843Y101168
X9779Y88900
X9271Y88900
X13081Y90170
X4572Y89789
X4572Y89335
X6477Y91059
X6477Y90605
X14732Y87035
X7725Y94097
X7874Y98552
X7264Y93897
X7366Y97155
X8255Y93980
X8255Y99949
X9725Y93853
X13716Y102108
X9271Y93853
X13208Y102108
X6350Y92075
X8636Y89027
X11430Y91694
X10617Y93878
X6299Y94132
X4318Y99949
X6731Y93904
X4699Y98679
X13208Y104394
X8255Y106680
X13716Y104394
X8763Y106680
X2972Y82398
X3810Y101803
X15000Y107240
X13081Y90627
X17145Y109601
X3492Y110680
X7112Y98298
X12141Y88214
X27051Y95885
X28575Y95885
X32182Y95656
X34862Y96139
X38164Y101473
X35560Y100838
X35306Y107315
X28194Y107442
X26289Y108458
X29845Y108331
X36855Y109855
X26416Y98044
X30658Y89205
X30607Y84963
X29693Y82779
X27483Y82423
X27432Y80264
X38049Y81940
X36830Y80010
X36830Y84201
X26162Y91186
X30480Y90170
X30480Y92710
X102108Y889
X31750Y90170
X30480Y91440
X33020Y91440
X31750Y92710
X26543Y88392
X37465Y92583
X33020Y90170
X34239Y95656
X37465Y89154
X34188Y93904
X27686Y101346
X35941Y88011
X29972Y79629
X33528Y79629
X29083Y93599
X29083Y88900
X34417Y89408
X30709Y93574
X29083Y91542
X28448Y94742
X37059Y111252
X35255Y111277
X28219Y111277
X26568Y111277
X28524Y104927
X35535Y104419
X37059Y102133
X37059Y106680
X31877Y101829
X35433Y96901
X36081Y94640
X31763Y100533
X28042Y99441
X30480Y100330
X32182Y96418
X33020Y93599
X32182Y97942
X27661Y97282
X36322Y97028
X37973Y98933
X28372Y85750
X29718Y87249
X28194Y87376
X30480Y103378
X34010Y107341
X29013Y104464
X35687Y87313
X30886Y82779
X27559Y94234
X29210Y90151
X30175Y89027
X31623Y94107
X35941Y91313
X36106Y94158
X33350Y95631
X37338Y98425
X29972Y100965
X27305Y96520
X33858Y100686
X28829Y102362
X33147Y88900
X36043Y84506
X36703Y101168
X32639Y88900
X32131Y88900
X35941Y90170
X27432Y89789
X27432Y89335
X29337Y91059
X29337Y90605
X37592Y87035
X30585Y94097
X30734Y98552
X30124Y93897
X30226Y97155
X31115Y93980
X31115Y99949
X32585Y93853
X36576Y102108
X32131Y93853
X36068Y102108
X29210Y92075
X31496Y89027
X34290Y91694
X33477Y93878
X29159Y94132
X27178Y99949
X29591Y93904
X27559Y98679
X36068Y104394
X31115Y106680
X36576Y104394
X31623Y106680
X25832Y82398
X26670Y101803
X37860Y107240
X35941Y90627
X40005Y109601
X26352Y110680
X29972Y98298
X35001Y88214
X49911Y95885
X51435Y95885
X55042Y95656
X57721Y96139
X61023Y101473
X58420Y100838
X58166Y107315
X51054Y107442
X49149Y108458
X52705Y108331
X59715Y109855
X49276Y98044
X53518Y89205
X53467Y84963
X52553Y82779
X50343Y82423
X50292Y80264
X60909Y81940
X59690Y80010
X59690Y84201
X49022Y91186
X53340Y90170
X53340Y92710
X55880Y92710
X54610Y90170
X53340Y91440
X55880Y91440
X54610Y92710
X49403Y88392
X60325Y92583
X55880Y90170
X57099Y95656
X60325Y89154
X57048Y93904
X50546Y101346
X58801Y88011
X52832Y79629
X56388Y79629
X51943Y93599
X51943Y88900
X57277Y89408
X53569Y93574
X51943Y91542
X51308Y94742
X59919Y111252
X58115Y111277
X51079Y111277
X49428Y111277
X51384Y104927
X58395Y104419
X59919Y102133
X59919Y106680
X54737Y101829
X58293Y96901
X58941Y94640
X54623Y100533
X50902Y99441
X53340Y100330
X55042Y96418
X55880Y93599
X55042Y97942
X50521Y97282
X59182Y97028
X60833Y98933
X51232Y85750
X52578Y87249
X51054Y87376
X53340Y103378
X56870Y107341
X51873Y104464
X58547Y87313
X53746Y82779
X50419Y94234
X52070Y90151
X53035Y89027
X54483Y94107
X58801Y91313
X58966Y94158
X56210Y95631
X60198Y98425
X52832Y100965
X50165Y96520
X56718Y100686
X51689Y102362
X56007Y88900
X58903Y84506
X59563Y101168
X55499Y88900
X54991Y88900
X58801Y90170
X50292Y89789
X50292Y89335
X52197Y91059
X52197Y90605
X60452Y87035
X53445Y94097
X53594Y98552
X52984Y93897
X53086Y97155
X53975Y93980
X53975Y99949
X55445Y93853
X59436Y102108
X54991Y93853
X58928Y102108
X52070Y92075
X54356Y89027
X57150Y91694
X56337Y93878
X52019Y94132
X50038Y99949
X52451Y93904
X50419Y98679
X58928Y104394
X53975Y106680
X59436Y104394
X54483Y106680
X48692Y82398
X49530Y101803
X60720Y107240
X58801Y90627
X62865Y109601
X49212Y110680
X52832Y98298
X57861Y88214
X72771Y95885
X74295Y95885
X77902Y95656
X80582Y96139
X83884Y101473
X81280Y100838
X81026Y107315
X73914Y107442
X72009Y108458
X75565Y108331
X82575Y109855
X72136Y98044
X76378Y89205
X76327Y84963
X75413Y82779
X73203Y82423
X73152Y80264
X83769Y81940
X82550Y80010
X82550Y84201
X71882Y91186
X76200Y90170
X76200Y92710
X78740Y92710
X77470Y90170
X76200Y91440
X78740Y91440
X77470Y92710
X72263Y88392
X83185Y92583
X78740Y90170
X79959Y95656
X83185Y89154
X79908Y93904
X73406Y101346
X81661Y88011
X75692Y79629
X79248Y79629
X74803Y93599
X74803Y88900
X80137Y89408
X76429Y93574
X74803Y91542
X74168Y94742
X82779Y111252
X80975Y111277
X73939Y111277
X72288Y111277
X74244Y104927
X81255Y104419
X82779Y102133
X82779Y106680
X77597Y101829
X81153Y96901
X81801Y94640
X77483Y100533
X73762Y99441
X76200Y100330
X77902Y96418
X78740Y93599
X77902Y97942
X73381Y97282
X82042Y97028
X83693Y98933
X74092Y85750
X75438Y87249
X73914Y87376
X76200Y103378
X79730Y107341
X74733Y104464
X81407Y87313
X76606Y82779
X73279Y94234
X74930Y90151
X75895Y89027
X77343Y94107
X81661Y91313
X81826Y94158
X79070Y95631
X83058Y98425
X75692Y100965
X73025Y96520
X79578Y100686
X74549Y102362
X78867Y88900
X81763Y84506
X82423Y101168
X78359Y88900
X77851Y88900
X81661Y90170
X73152Y89789
X73152Y89335
X75057Y91059
X75057Y90605
X83312Y87035
X76305Y94097
X76454Y98552
X75844Y93897
X75946Y97155
X76835Y93980
X76835Y99949
X78305Y93853
X82296Y102108
X77851Y93853
X81788Y102108
X74930Y92075
X77216Y89027
X80010Y91694
X79197Y93878
X74879Y94132
X72898Y99949
X75311Y93904
X73279Y98679
X81788Y104394
X76835Y106680
X82296Y104394
X77343Y106680
X71552Y82398
X72390Y101803
X83580Y107240
X81661Y90627
X85725Y109601
X72073Y110680
X75692Y98298
X80721Y88214
X95631Y95885
X97155Y95885
X100762Y95656
X103441Y96139
X106743Y101473
X104140Y100838
X103886Y107315
X96774Y107442
X94869Y108458
X98425Y108331
X105435Y109855
X94996Y98044
X99238Y89205
X99187Y84963
X98273Y82779
X96063Y82423
X96012Y80264
X106629Y81940
X105410Y80010
X105410Y84201
X94742Y91186
X99060Y90170
X99060Y92710
X101600Y92710
X100330Y90170
X99060Y91440
X101600Y91440
X100330Y92710
X95123Y88392
X106045Y92583
X101600Y90170
X102819Y95656
X106045Y89154
X102768Y93904
X96266Y101346
X104521Y88011
X98552Y79629
X102108Y79629
X97663Y93599
X97663Y88900
X102997Y89408
X99289Y93574
X97663Y91542
X97028Y94742
X105639Y111252
X103835Y111277
X96799Y111277
X95148Y111277
X97104Y104927
X104115Y104419
X105639Y102133
X105639Y106680
X100457Y101829
X104013Y96901
X104661Y94640
X100343Y100533
X96622Y99441
X99060Y100330
X100762Y96418
X101600Y93599
X100762Y97942
X96241Y97282
X104902Y97028
X106553Y98933
X96952Y85750
X98298Y87249
X96774Y87376
X99060Y103378
X102590Y107341
X97593Y104464
X104267Y87313
X99466Y82779
X96139Y94234
X97790Y90151
X98755Y89027
X100203Y94107
X104521Y91313
X104686Y94158
X101930Y95631
X105918Y98425
X98552Y100965
X95885Y96520
X102438Y100686
X97409Y102362
X101727Y88900
X104623Y84506
X105283Y101168
X101219Y88900
X100711Y88900
X104521Y90170
X96012Y89789
X96012Y89335
X97917Y91059
X97917Y90605
X106172Y87035
X99165Y94097
X99314Y98552
X98704Y93897
X98806Y97155
X99695Y93980
X99695Y99949
X101165Y93853
X105156Y102108
X100711Y93853
X104648Y102108
X97790Y92075
X100076Y89027
X102870Y91694
X102057Y93878
X97739Y94132
X95758Y99949
X98171Y93904
X96139Y98679
X104648Y104394
X99695Y106680
X105156Y104394
X100203Y106680
X94412Y82398
X95250Y101803
X106440Y107240
X104521Y90627
X108585Y109601
X94932Y110680
X98552Y98298
X103581Y88214
X118491Y95885
X120015Y95885
X123622Y95656
X126301Y96139
X129603Y101473
X127000Y100838
X126746Y107315
X119634Y107442
X117729Y108458
X121285Y108331
X128295Y109855
X117856Y98044
X122098Y89205
X122047Y84963
X121133Y82779
X118923Y82423
X118872Y80264
X129489Y81940
X128270Y80010
X128270Y84201
X117602Y91186
X121920Y90170
X121920Y92710
X124460Y92710
X123190Y90170
X121920Y91440
X124460Y91440
X123190Y92710
X117983Y88392
X128905Y92583
X124460Y90170
X125679Y95656
X128905Y89154
X125628Y93904
X119126Y101346
X127381Y88011
X121412Y79629
X124968Y79629
X120523Y93599
X120523Y88900
X125857Y89408
X122149Y93574
X120523Y91542
X119888Y94742
X128499Y111252
X126695Y111277
X119659Y111277
X118008Y111277
X119964Y104927
X126975Y104419
X128499Y102133
X128499Y106680
X123317Y101829
X126873Y96901
X127521Y94640
X123203Y100533
X119482Y99441
X121920Y100330
X123622Y96418
X124460Y93599
X123622Y97942
X119101Y97282
X127762Y97028
X129413Y98933
X119812Y85750
X121158Y87249
X119634Y87376
X121920Y103378
X125450Y107341
X120453Y104464
X127127Y87313
X122326Y82779
X118999Y94234
X120650Y90151
X121615Y89027
X123063Y94107
X127381Y91313
X127546Y94158
X124790Y95631
X128778Y98425
X121412Y100965
X118745Y96520
X125298Y100686
X120269Y102362
X124587Y88900
X127483Y84506
X128143Y101168
X124079Y88900
X123571Y88900
X127381Y90170
X118872Y89789
X118872Y89335
X120777Y91059
X120777Y90605
X129032Y87035
X122025Y94097
X122174Y98552
X121564Y93897
X121666Y97155
X122555Y93980
X122555Y99949
X124025Y93853
X128016Y102108
X123571Y93853
X127508Y102108
X120650Y92075
X122936Y89027
X125730Y91694
X124917Y93878
X120599Y94132
X118618Y99949
X121031Y93904
X118999Y98679
X127508Y104394
X122555Y106680
X128016Y104394
X123063Y106680
X117272Y82398
X118110Y101803
X129300Y107240
X127381Y90627
X131445Y109601
X117792Y110680
X121412Y98298
X126441Y88214
X141351Y95885
X142875Y95885
X146482Y95656
X149162Y96139
X152464Y101473
X149860Y100838
X149606Y107315
X142494Y107442
X140589Y108458
X144145Y108331
X151155Y109855
X140716Y98044
X144958Y89205
X144907Y84963
X143993Y82779
X141783Y82423
X141732Y80264
X152349Y81940
X151130Y80010
X151130Y84201
X140462Y91186
X144780Y90170
X144780Y92710
X147320Y92710
X146050Y90170
X144780Y91440
X147320Y91440
X146050Y92710
X140843Y88392
X151765Y92583
X147320Y90170
X148539Y95656
X151765Y89154
X148488Y93904
X141986Y101346
X150241Y88011
X144272Y79629
X147828Y79629
X143383Y93599
X143383Y88900
X148717Y89408
X145009Y93574
X143383Y91542
X142748Y94742
X151359Y111252
X149555Y111277
X142519Y111277
X140868Y111277
X142824Y104927
X149835Y104419
X151359Y102133
X151359Y106680
X146177Y101829
X149733Y96901
X150381Y94640
X146063Y100533
X142342Y99441
X144780Y100330
X146482Y96418
X147320Y93599
X146482Y97942
X141961Y97282
X150622Y97028
X152273Y98933
X142672Y85750
X144018Y87249
X142494Y87376
X144780Y103378
X148310Y107341
X143313Y104464
X149987Y87313
X145186Y82779
X141859Y94234
X143510Y90151
X144475Y89027
X145923Y94107
X150241Y91313
X150406Y94158
X147650Y95631
X151638Y98425
X144272Y100965
X141605Y96520
X148158Y100686
X143129Y102362
X147447Y88900
X150343Y84506
X151003Y101168
X146939Y88900
X146431Y88900
X150241Y90170
X141732Y89789
X141732Y89335
X143637Y91059
X143637Y90605
X151892Y87035
X144885Y94097
X145034Y98552
X144424Y93897
X144526Y97155
X145415Y93980
X145415Y99949
X146885Y93853
X150876Y102108
X146431Y93853
X150368Y102108
X143510Y92075
X145796Y89027
X148590Y91694
X147777Y93878
X143459Y94132
X141478Y99949
X143891Y93904
X141859Y98679
X150368Y104394
X145415Y106680
X150876Y104394
X145923Y106680
X140132Y82398
X140970Y101803
X152160Y107240
X150241Y90627
X154305Y109601
X140653Y110680
X144272Y98298
X149301Y88214
X164211Y95885
X165735Y95885
X169342Y95656
X172022Y96139
X175323Y101473
X172720Y100838
X172466Y107315
X165354Y107442
X163449Y108458
X167005Y108331
X174015Y109855
X163576Y98044
X167818Y89205
X167767Y84963
X166853Y82779
X164643Y82423
X164592Y80264
X175209Y81940
X173990Y80010
X173990Y84201
X163322Y91186
X167640Y90170
X167640Y92710
X170180Y92710
X168910Y90170
X167640Y91440
X170180Y91440
X168910Y92710
X163703Y88392
X174625Y92583
X170180Y90170
X171399Y95656
X174625Y89154
X171348Y93904
X164846Y101346
X173101Y88011
X167132Y79629
X170688Y79629
X166243Y93599
X166243Y88900
X171577Y89408
X167869Y93574
X166243Y91542
X165608Y94742
X174219Y111252
X172415Y111277
X165379Y111277
X163728Y111277
X165684Y104927
X172695Y104419
X174219Y102133
X174219Y106680
X169037Y101829
X172593Y96901
X173241Y94640
X168923Y100533
X165202Y99441
X167640Y100330
X169342Y96418
X170180Y93599
X169342Y97942
X164821Y97282
X173482Y97028
X175133Y98933
X165532Y85750
X166878Y87249
X165354Y87376
X167640Y103378
X171170Y107341
X166173Y104464
X172847Y87313
X168046Y82779
X164719Y94234
X166370Y90151
X167335Y89027
X168783Y94107
X173101Y91313
X173266Y94158
X170510Y95631
X174498Y98425
X167132Y100965
X164465Y96520
X171018Y100686
X165989Y102362
X170307Y88900
X173203Y84506
X173863Y101168
X169799Y88900
X169291Y88900
X173101Y90170
X164592Y89789
X164592Y89335
X166497Y91059
X166497Y90605
X174752Y87035
X167745Y94097
X167894Y98552
X167284Y93897
X167386Y97155
X168275Y93980
X168275Y99949
X169745Y93853
X173736Y102108
X169291Y93853
X173228Y102108
X166370Y92075
X168656Y89027
X171450Y91694
X170637Y93878
X166319Y94132
X164338Y99949
X166751Y93904
X164719Y98679
X173228Y104394
X168275Y106680
X173736Y104394
X168783Y106680
X162992Y82398
X163830Y101803
X175020Y107240
X173101Y90627
X177165Y109601
X163513Y110680
X167132Y98298
X172161Y88214
X4191Y17145
X5715Y17145
X9322Y16916
X12001Y17399
X15303Y22733
X12700Y22098
X12446Y28575
X5334Y28702
X3429Y29718
X6985Y29591
X13995Y31115
X3556Y19304
X7798Y10465
X7747Y6223
X6833Y4039
X4623Y3683
X4572Y1524
X15189Y3200
X13970Y1270
X13970Y5461
X3302Y12446
X7620Y11430
X7620Y13970
X10160Y13970
X8890Y11430
X7620Y12700
X10160Y12700
X8890Y13970
X3683Y9652
X14605Y13843
X10160Y11430
X11379Y16916
X14605Y10414
X11328Y15164
X4826Y22606
X13081Y9271
X7112Y889
X10668Y889
X6223Y14859
X6223Y10160
X11557Y10668
X7849Y14834
X6223Y12802
X5588Y16002
X14199Y32512
X12395Y32537
X5359Y32537
X3708Y32537
X5664Y26187
X12675Y25679
X14199Y23393
X14199Y27940
X9017Y23089
X12573Y18161
X13221Y15900
X8903Y21793
X5182Y20701
X7620Y21590
X9322Y17678
X10160Y14859
X9322Y19202
X4801Y18542
X13462Y18288
X15113Y20193
X5512Y7010
X6858Y8509
X5334Y8636
X7620Y24638
X11150Y28601
X6153Y25724
X12827Y8573
X8026Y4039
X4699Y15494
X6350Y11411
X7315Y10287
X8763Y15367
X13081Y12573
X13246Y15418
X10490Y16891
X14478Y19685
X7112Y22225
X4445Y17780
X10998Y21946
X5969Y23622
X10287Y10160
X13183Y5766
X13843Y22428
X9779Y10160
X9271Y10160
X13081Y11430
X4572Y11049
X4572Y10595
X6477Y12319
X6477Y11865
X14732Y8295
X7725Y15357
X7874Y19812
X7264Y15157
X7366Y18415
X8255Y15240
X8255Y21209
X9725Y15113
X13716Y23368
X9271Y15113
X13208Y23368
X6350Y13335
X8636Y10287
X11430Y12954
X10617Y15138
X6299Y15392
X4318Y21209
X6731Y15164
X4699Y19939
X13208Y25654
X8255Y27940
X13716Y25654
X8763Y27940
X2972Y3658
X3810Y23063
X15000Y28500
X13081Y11887
X17145Y30861
X3492Y31940
X7112Y19558
X12141Y9474
X27051Y17145
X28575Y17145
X32182Y16916
X34862Y17399
X38164Y22733
X35560Y22098
X35306Y28575
X28194Y28702
X26289Y29718
X29845Y29591
X36855Y31115
X26416Y19304
X30658Y10465
X30607Y6223
X29693Y4039
X27483Y3683
X27432Y1524
X38049Y3200
X36830Y1270
X36830Y5461
X26162Y12446
X30480Y11430
X30480Y13970
X33020Y13970
X31750Y11430
X30480Y12700
X33020Y12700
X31750Y13970
X26543Y9652
X37465Y13843
X33020Y11430
X34239Y16916
X37465Y10414
X34188Y15164
X27686Y22606
X35941Y9271
X29972Y889
X33528Y889
X29083Y14859
X29083Y10160
X34417Y10668
X30709Y14834
X29083Y12802
X28448Y16002
X37059Y32512
X35255Y32537
X28219Y32537
X26568Y32537
X28524Y26187
X35535Y25679
X37059Y23393
X37059Y27940
X31877Y23089
X35433Y18161
X36081Y15900
X31763Y21793
X28042Y20701
X30480Y21590
X32182Y17678
X33020Y14859
X32182Y19202
X27661Y18542
X36322Y18288
X37973Y20193
X28372Y7010
X29718Y8509
X28194Y8636
X30480Y24638
X34010Y28601
X29013Y25724
X35687Y8573
X30886Y4039
X27559Y15494
X29210Y11411
X30175Y10287
X31623Y15367
X35941Y12573
X36106Y15418
X33350Y16891
X37338Y19685
X29972Y22225
X27305Y17780
X33858Y21946
X28829Y23622
X33147Y10160
X36043Y5766
X36703Y22428
X32639Y10160
X32131Y10160
X35941Y11430
X27432Y11049
X27432Y10595
X29337Y12319
X29337Y11865
X37592Y8295
X30585Y15357
X30734Y19812
X30124Y15157
X30226Y18415
X31115Y15240
X31115Y21209
X32585Y15113
X36576Y23368
X32131Y15113
X36068Y23368
X29210Y13335
X31496Y10287
X34290Y12954
X33477Y15138
X29159Y15392
X27178Y21209
X29591Y15164
X27559Y19939
X36068Y25654
X31115Y27940
X36576Y25654
X31623Y27940
X25832Y3658
X26670Y23063
X37860Y28500
X35941Y11887
X40005Y30861
X26352Y31940
X29972Y19558
X35001Y9474
X49911Y17145
X51435Y17145
X55042Y16916
X57721Y17399
X61023Y22733
X58420Y22098
X58166Y28575
X51054Y28702
X49149Y29718
X52705Y29591
X59715Y31115
X49276Y19304
X53518Y10465
X53467Y6223
X52553Y4039
X50343Y3683
X50292Y1524
X60909Y3200
X59690Y1270
X59690Y5461
X49022Y12446
X53340Y11430
X53340Y13970
X55880Y13970
X54610Y11430
X53340Y12700
X55880Y12700
X54610Y13970
X49403Y9652
X60325Y13843
X55880Y11430
X57099Y16916
X60325Y10414
X57048Y15164
X50546Y22606
X58801Y9271
X52832Y889
X56388Y889
X51943Y14859
X51943Y10160
X57277Y10668
X53569Y14834
X51943Y12802
X51308Y16002
X59919Y32512
X58115Y32537
X51079Y32537
X49428Y32537
X51384Y26187
X58395Y25679
X59919Y23393
X59919Y27940
X54737Y23089
X58293Y18161
X58941Y15900
X54623Y21793
X50902Y20701
X53340Y21590
X55042Y17678
X55880Y14859
X55042Y19202
X50521Y18542
X59182Y18288
X60833Y20193
X51232Y7010
X52578Y8509
X51054Y8636
X53340Y24638
X56870Y28601
X51873Y25724
X58547Y8573
X53746Y4039
X50419Y15494
X52070Y11411
X53035Y10287
X54483Y15367
X58801Y12573
X58966Y15418
X56210Y16891
X60198Y19685
X52832Y22225
X50165Y17780
X56718Y21946
X51689Y23622
X56007Y10160
X58903Y5766
X59563Y22428
X55499Y10160
X54991Y10160
X58801Y11430
X50292Y11049
X50292Y10595
X52197Y12319
X52197Y11865
X60452Y8295
X53445Y15357
X53594Y19812
X52984Y15157
X53086Y18415
X53975Y15240
X53975Y21209
X55445Y15113
X59436Y23368
X54991Y15113
X58928Y23368
X52070Y13335
X54356Y10287
X57150Y12954
X56337Y15138
X52019Y15392
X50038Y21209
X52451Y15164
X50419Y19939
X58928Y25654
X53975Y27940
X59436Y25654
X54483Y27940
X48692Y3658
X49530Y23063
X60720Y28500
X58801Y11887
X62865Y30861
X49212Y31940
X52832Y19558
X57861Y9474
X72771Y17145
X74295Y17145
X77902Y16916
X80582Y17399
X83884Y22733
X81280Y22098
X81026Y28575
X73914Y28702
X72009Y29718
X75565Y29591
X82575Y31115
X72136Y19304
X76378Y10465
X76327Y6223
X75413Y4039
X73203Y3683
X73152Y1524
X83769Y3200
X82550Y1270
X82550Y5461
X71882Y12446
X76200Y11430
X76200Y13970
X78740Y13970
X77470Y11430
X76200Y12700
X78740Y12700
X77470Y13970
X72263Y9652
X83185Y13843
X78740Y11430
X79959Y16916
X83185Y10414
X79908Y15164
X73406Y22606
X81661Y9271
X75692Y889
X79248Y889
X74803Y14859
X74803Y10160
X80137Y10668
X76429Y14834
X74803Y12802
X74168Y16002
X82779Y32512
X80975Y32537
X73939Y32537
X72288Y32537
X74244Y26187
X81255Y25679
X82779Y23393
X82779Y27940
X77597Y23089
X81153Y18161
X81801Y15900
X77483Y21793
X73762Y20701
X76200Y21590
X77902Y17678
X78740Y14859
X77902Y19202
X73381Y18542
X82042Y18288
X83693Y20193
X74092Y7010
X75438Y8509
X73914Y8636
X76200Y24638
X79730Y28601
X74733Y25724
X81407Y8573
X76606Y4039
X73279Y15494
X74930Y11411
X75895Y10287
X77343Y15367
X81661Y12573
X81826Y15418
X79070Y16891
X83058Y19685
X75692Y22225
X73025Y17780
X79578Y21946
X74549Y23622
X78867Y10160
X81763Y5766
X82423Y22428
X78359Y10160
X77851Y10160
X81661Y11430
X73152Y11049
X73152Y10595
X75057Y12319
X75057Y11865
X83312Y8295
X76305Y15357
X76454Y19812
X75844Y15157
X75946Y18415
X76835Y15240
X76835Y21209
X78305Y15113
X82296Y23368
X77851Y15113
X81788Y23368
X74930Y13335
X77216Y10287
X80010Y12954
X79197Y15138
X74879Y15392
X72898Y21209
X75311Y15164
X73279Y19939
X81788Y25654
X76835Y27940
X82296Y25654
X77343Y27940
X71552Y3658
X72390Y23063
X83580Y28500
X81661Y11887
X85725Y30861
X72073Y31940
X75692Y19558
X80721Y9474
X95631Y17145
X97155Y17145
X100762Y16916
X103441Y17399
X106743Y22733
X104140Y22098
X103886Y28575
X96774Y28702
X94869Y29718
X98425Y29591
X105435Y31115
X94996Y19304
X99238Y10465
X99187Y6223
X98273Y4039
X96063Y3683
X96012Y1524
X106629Y3200
X105410Y1270
X105410Y5461
X94742Y12446
X99060Y11430
X99060Y13970
X101600Y13970
X100330Y11430
X99060Y12700
X101600Y12700
X100330Y13970
X95123Y9652
X106045Y13843
X101600Y11430
X102819Y16916
X106045Y10414
X102768Y15164
X96266Y22606
X104521Y9271
X98552Y889
X97663Y14859
X97663Y10160
X102997Y10668
X99289Y14834
X97663Y12802
X97028Y16002
X105639Y32512
X103835Y32537
X96799Y32537
X95148Y32537
X97104Y26187
X104115Y25679
X105639Y23393
X105639Y27940
X100457Y23089
X104013Y18161
X104661Y15900
X100343Y21793
X96622Y20701
X99060Y21590
X100762Y17678
X101600Y14859
X100762Y19202
X96241Y18542
X104902Y18288
X106553Y20193
X96952Y7010
X98298Y8509
X96774Y8636
X99060Y24638
X102590Y28601
X97593Y25724
X104267Y8573
X99466Y4039
X96139Y15494
X97790Y11411
X98755Y10287
X100203Y15367
X104521Y12573
X104686Y15418
X101930Y16891
X105918Y19685
X98552Y22225
X95885Y17780
X102438Y21946
X97409Y23622
X101727Y10160
X104623Y5766
X105283Y22428
X101219Y10160
X100711Y10160
X104521Y11430
X96012Y11049
X96012Y10595
X97917Y12319
X97917Y11865
X106172Y8295
X99165Y15357
X99314Y19812
X98704Y15157
X98806Y18415
X99695Y15240
X99695Y21209
X101165Y15113
X105156Y23368
X100711Y15113
X104648Y23368
X97790Y13335
X100076Y10287
X102870Y12954
X102057Y15138
X97739Y15392
X95758Y21209
X98171Y15164
X96139Y19939
X104648Y25654
X99695Y27940
X105156Y25654
X100203Y27940
X94412Y3658
X95250Y23063
X106440Y28500
X104521Y11887
X108585Y30861
X94932Y31940
X98552Y19558
X103581Y9474
X118491Y17145
X120015Y17145
X123622Y16916
X126301Y17399
X129603Y22733
X127000Y22098
X126746Y28575
X119634Y28702
X117729Y29718
X121285Y29591
X128295Y31115
X117856Y19304
X122098Y10465
X122047Y6223
X121133Y4039
X118923Y3683
X118872Y1524
X129489Y3200
X128270Y1270
X128270Y5461
X117602Y12446
X121920Y11430
X121920Y13970
X124460Y13970
X123190Y11430
X121920Y12700
X124460Y12700
X123190Y13970
X117983Y9652
X128905Y13843
X124460Y11430
X125679Y16916
X128905Y10414
X125628Y15164
X119126Y22606
X127381Y9271
X121412Y889
X124968Y889
X120523Y14859
X120523Y10160
X125857Y10668
X122149Y14834
X120523Y12802
X119888Y16002
X128499Y32512
X126695Y32537
X119659Y32537
X118008Y32537
X119964Y26187
X126975Y25679
X128499Y23393
X128499Y27940
X123317Y23089
X126873Y18161
X127521Y15900
X123203Y21793
X119482Y20701
X121920Y21590
X123622Y17678
X124460Y14859
X123622Y19202
X119101Y18542
X127762Y18288
X129413Y20193
X119812Y7010
X121158Y8509
X119634Y8636
X121920Y24638
X125450Y28601
X120453Y25724
X127127Y8573
X122326Y4039
X118999Y15494
X120650Y11411
X121615Y10287
X123063Y15367
X127381Y12573
X127546Y15418
X124790Y16891
X128778Y19685
X121412Y22225
X118745Y17780
X125298Y21946
X120269Y23622
X124587Y10160
X127483Y5766
X128143Y22428
X124079Y10160
X123571Y10160
X127381Y11430
X118872Y11049
X118872Y10595
X120777Y12319
X120777Y11865
X129032Y8295
X122025Y15357
X122174Y19812
X121564Y15157
X121666Y18415
X122555Y15240
X122555Y21209
X124025Y15113
X128016Y23368
X123571Y15113
X127508Y23368
X120650Y13335
X122936Y10287
X125730Y12954
X124917Y15138
X120599Y15392
X118618Y21209
X121031Y15164
X118999Y19939
X127508Y25654
X122555Y27940
X128016Y25654
X123063Y27940
X117272Y3658
X118110Y23063
X129300Y28500
X127381Y11887
X131445Y30861
X117792Y31940
X121412Y19558
X126441Y9474
X141351Y17145
X142875Y17145
X146482Y16916
X149162Y17399
X152464Y22733
X149860Y22098
X149606Y28575
X142494Y28702
X140589Y29718
X33020Y92710
X144145Y29591
X151155Y31115
X140716Y19304
X144958Y10465
X144907Y6223
X143993Y4039
X141783Y3683
X141732Y1524
X152349Y3200
X151130Y1270
X151130Y5461
X140462Y12446
X144780Y11430
X144780Y13970
X147320Y13970
X146050Y11430
X144780Y12700
X147320Y12700
X146050Y13970
X140843Y9652
X151765Y13843
X147320Y11430
X148539Y16916
X151765Y10414
X148488Y15164
X141986Y22606
X150241Y9271
X144272Y889
X147828Y889
X143383Y14859
X143383Y10160
X148717Y10668
X145009Y14834
X143383Y12802
X142748Y16002
X151359Y32512
X149555Y32537
X142519Y32537
X140868Y32537
X142824Y26187
X149835Y25679
X151359Y23393
X151359Y27940
X146177Y23089
X149733Y18161
X150381Y15900
X146063Y21793
X142342Y20701
X144780Y21590
X146482Y17678
X147320Y14859
X146482Y19202
X141961Y18542
X150622Y18288
X152273Y20193
X142672Y7010
X144018Y8509
X142494Y8636
X144780Y24638
X148310Y28601
X143313Y25724
X149987Y8573
X145186Y4039
X141859Y15494
X143510Y11411
X144475Y10287
X145923Y15367
X150241Y12573
X150406Y15418
X147650Y16891
X151638Y19685
X144272Y22225
X141605Y17780
X148158Y21946
X143129Y23622
X147447Y10160
X150343Y5766
X151003Y22428
X146939Y10160
X146431Y10160
X150241Y11430
X141732Y11049
X141732Y10595
X143637Y12319
X143637Y11865
X151892Y8295
X144885Y15357
X145034Y19812
X144424Y15157
X144526Y18415
X145415Y15240
X145415Y21209
X146885Y15113
X150876Y23368
X146431Y15113
X150368Y23368
X143510Y13335
X145796Y10287
X148590Y12954
X147777Y15138
X143459Y15392
X141478Y21209
X143891Y15164
X141859Y19939
X150368Y25654
X145415Y27940
X150876Y25654
X145923Y27940
X140132Y3658
X140970Y23063
X152160Y28500
X150241Y11887
X154305Y30861
X140653Y31940
X144272Y19558
X149301Y9474
X164211Y17145
X165735Y17145
X169342Y16916
X172022Y17399
X175323Y22733
X172720Y22098
X172466Y28575
X165354Y28702
X163449Y29718
X167005Y29591
X174015Y31115
X163576Y19304
X167818Y10465
X167767Y6223
X166853Y4039
X164643Y3683
X164592Y1524
X175209Y3200
X173990Y1270
X173990Y5461
X163322Y12446
X167640Y11430
X167640Y13970
X170180Y13970
X168910Y11430
X167640Y12700
X170180Y12700
X168910Y13970
X163703Y9652
X174625Y13843
X170180Y11430
X171399Y16916
X174625Y10414
X171348Y15164
X164846Y22606
X173101Y9271
X167132Y889
X170688Y889
X166243Y14859
X166243Y10160
X171577Y10668
X167869Y14834
X166243Y12802
X165608Y16002
X174219Y32512
X172415Y32537
X165379Y32537
X163728Y32537
X165684Y26187
X172695Y25679
X174219Y23393
X174219Y27940
X169037Y23089
X172593Y18161
X173241Y15900
X168923Y21793
X165202Y20701
X167640Y21590
X169342Y17678
X170180Y14859
X169342Y19202
X164821Y18542
X173482Y18288
X175133Y20193
X165532Y7010
X166878Y8509
X165354Y8636
X167640Y24638
X171170Y28601
X166173Y25724
X172847Y8573
X168046Y4039
X164719Y15494
X166370Y11411
X167335Y10287
X168783Y15367
X173101Y12573
X173266Y15418
X170510Y16891
X174498Y19685
X167132Y22225
X164465Y17780
X171018Y21946
X165989Y23622
X170307Y10160
X173203Y5766
X173863Y22428
X169799Y10160
X169291Y10160
X173101Y11430
X164592Y11049
X164592Y10595
X166497Y12319
X166497Y11865
X174752Y8295
X167745Y15357
X167894Y19812
X167284Y15157
X167386Y18415
X168275Y15240
X168275Y21209
X169745Y15113
X173736Y23368
X169291Y15113
X173228Y23368
X166370Y13335
X168656Y10287
X171450Y12954
X170637Y15138
X166319Y15392
X164338Y21209
X166751Y15164
X164719Y19939
X173228Y25654
X168275Y27940
X173736Y25654
X168783Y27940
X162992Y3658
X163830Y23063
X175020Y28500
X173101Y11887
X177165Y30861
X163513Y31940
X167132Y19558
X172161Y9474
X4191Y56515
X5715Y56515
X9322Y56286
X12001Y56769
X15303Y62103
X12700Y61468
X12446Y67945
X5334Y68072
X3429Y69088
X6985Y68961
X13995Y70485
X3556Y58674
X7798Y49835
X7747Y45593
X6833Y43409
X4623Y43053
X4572Y40894
X15189Y42570
X13970Y40640
X13970Y44831
X3302Y51816
X7620Y50800
X7620Y53340
X10160Y53340
X8890Y50800
X7620Y52070
X10160Y52070
X8890Y53340
X3683Y49022
X14605Y53213
X10160Y50800
X11379Y56286
X14605Y49784
X11328Y54534
X4826Y61976
X13081Y48641
X7112Y40259
X10668Y40259
X6223Y54229
X6223Y49530
X11557Y50038
X7849Y54204
X6223Y52172
X5588Y55372
X14199Y71882
X12395Y71907
X5359Y71907
X3708Y71907
X5664Y65557
X12675Y65049
X14199Y62763
X14199Y67310
X9017Y62459
X12573Y57531
X13221Y55270
X8903Y61163
X5182Y60071
X7620Y60960
X9322Y57048
X10160Y54229
X9322Y58572
X4801Y57912
X13462Y57658
X15113Y59563
X5512Y46380
X6858Y47879
X5334Y48006
X7620Y64008
X11150Y67971
X6153Y65094
X12827Y47942
X8026Y43409
X4699Y54864
X6350Y50781
X7315Y49657
X8763Y54737
X13081Y51943
X13246Y54788
X10490Y56261
X14478Y59055
X7112Y61595
X4445Y57150
X10998Y61316
X5969Y62992
X10287Y49530
X13183Y45136
X13843Y61798
X9779Y49530
X9271Y49530
X13081Y50800
X4572Y50419
X4572Y49965
X6477Y51689
X6477Y51235
X14732Y47665
X7725Y54727
X7874Y59182
X7264Y54527
X7366Y57785
X8255Y54610
X8255Y60579
X9725Y54483
X13716Y62738
X9271Y54483
X13208Y62738
X6350Y52705
X8636Y49657
X11430Y52324
X10617Y54508
X6299Y54762
X4318Y60579
X6731Y54534
X4699Y59309
X13208Y65024
X8255Y67310
X13716Y65024
X8763Y67310
X2972Y43028
X3810Y62433
X15000Y67870
X13081Y51257
X17145Y70231
X3492Y71311
X7112Y58928
X12141Y48844
X27051Y56515
X28575Y56515
X32182Y56286
X34862Y56769
X38164Y62103
X35560Y61468
X35306Y67945
X28194Y68072
X26289Y69088
X29845Y68961
X36855Y70485
X26416Y58674
X30658Y49835
X30607Y45593
X29693Y43409
X27483Y43053
X27432Y40894
X38049Y42570
X36830Y40640
X36830Y44831
X26162Y51816
X30480Y50800
X30480Y53340
X33020Y53340
X31750Y50800
X30480Y52070
X33020Y52070
X31750Y53340
X26543Y49022
X37465Y53213
X33020Y50800
X34239Y56286
X37465Y49784
X34188Y54534
X27686Y61976
X35941Y48641
X29972Y40259
X33528Y40259
X29083Y54229
X29083Y49530
X34417Y50038
X30709Y54204
X29083Y52172
X28448Y55372
X37059Y71882
X35255Y71907
X28219Y71907
X26568Y71907
X28524Y65557
X35535Y65049
X37059Y62763
X37059Y67310
X31877Y62459
X35433Y57531
X36081Y55270
X31763Y61163
X28042Y60071
X30480Y60960
X32182Y57048
X33020Y54229
X32182Y58572
X27661Y57912
X36322Y57658
X37973Y59563
X28372Y46380
X29718Y47879
X28194Y48006
X30480Y64008
X34010Y67971
X29013Y65094
X35687Y47942
X30886Y43409
X27559Y54864
X29210Y50781
X30175Y49657
X31623Y54737
X35941Y51943
X36106Y54788
X33350Y56261
X37338Y59055
X29972Y61595
X27305Y57150
X33858Y61316
X28829Y62992
X33147Y49530
X36043Y45136
X36703Y61798
X32639Y49530
X32131Y49530
X35941Y50800
X27432Y50419
X27432Y49965
X29337Y51689
X29337Y51235
X37592Y47665
X30585Y54727
X30734Y59182
X30124Y54527
X30226Y57785
X31115Y54610
X31115Y60579
X32585Y54483
X36576Y62738
X32131Y54483
X36068Y62738
X29210Y52705
X31496Y49657
X34290Y52324
X33477Y54508
X29159Y54762
X27178Y60579
X29591Y54534
X27559Y59309
X36068Y65024
X31115Y67310
X36576Y65024
X31623Y67310
X25832Y43028
X26670Y62433
X37860Y67870
X35941Y51257
X40005Y70231
X26352Y71311
X29972Y58928
X35001Y48844
X49911Y56515
X51435Y56515
X55042Y56286
X57721Y56769
X61023Y62103
X58420Y61468
X58166Y67945
X51054Y68072
X49149Y69088
X52705Y68961
X59715Y70485
X49276Y58674
X53518Y49835
X53467Y45593
X52553Y43409
X50343Y43053
X50292Y40894
X60909Y42570
X59690Y40640
X59690Y44831
X49022Y51816
X53340Y50800
X53340Y53340
X55880Y53340
X54610Y50800
X53340Y52070
X55880Y52070
X54610Y53340
X49403Y49022
X60325Y53213
X55880Y50800
X57099Y56286
X60325Y49784
X57048Y54534
X50546Y61976
X58801Y48641
X52832Y40259
X56388Y40259
X51943Y54229
X51943Y49530
X57277Y50038
X53569Y54204
X51943Y52172
X51308Y55372
X59919Y71882
X58115Y71907
M30