M48
;GenerationSoftware,Autodesk,EAGLE,9.6.2*%
;CreationDate,2024-01-10T19:10:10Z*%
FMAT,2
ICI,OFF
METRIC,TZ,000.000
T5C0.200
T4C0.400
T3C0.650
T2C0.850
T1C1.700
%
G90
M71
T1
X-300Y49276
X18080Y56896
X18080Y54356
X18080Y51816
X18080Y49276
X18080Y46736
X18080Y44196
X18080Y41656
X-300Y41656
X-300Y44196
X-300Y46736
X-300Y51816
X-300Y54356
X45420Y29210
X45420Y26670
X45420Y24130
X45420Y21590
X45420Y19050
X45420Y16510
X45420Y13970
X45420Y11430
X45420Y8890
X45420Y6350
X40940Y1270
X40940Y3810
X-300Y29210
X-300Y26670
X-300Y24130
X-300Y21590
X-300Y19050
X-300Y16510
X-300Y13970
X-300Y11430
X-300Y8890
X-300Y6350
X-300Y3810
X-300Y1270
X40940Y6350
X40940Y8890
X40940Y11430
X22560Y21590
X40940Y13970
X40940Y16510
X40940Y19050
X40940Y21590
X40940Y24130
X40940Y26670
X40940Y29210
X-300Y67056
X18080Y1270
X18080Y3810
X18080Y6350
X18080Y8890
X18080Y11430
X18080Y13970
X18080Y16510
X18080Y19050
X18080Y21590
X18080Y24130
X18080Y26670
X18080Y29210
X-300Y56896
X-300Y59436
X-300Y61976
X-300Y64516
X-300Y69596
X63800Y29210
X63800Y26670
X45420Y3810
X45420Y1270
X63800Y16510
X63800Y19050
X63800Y21590
X63800Y24130
X63800Y1270
X63800Y3810
X63800Y6350
X22560Y29210
X22560Y26670
X22560Y24130
X63800Y8890
X22560Y19050
X22560Y16510
X22560Y13970
X22560Y11430
X22560Y8890
X22560Y6350
X22560Y3810
X22560Y1270
X63800Y11430
X63800Y13970
X18080Y59436
X18080Y61976
X18080Y64516
X18080Y67056
X18080Y69596
X22560Y69596
X22560Y67056
X22560Y64516
X22560Y61976
X22560Y59436
X22560Y56896
X22560Y54356
X22560Y51816
X22560Y49276
X22560Y46736
X22560Y44196
X22560Y41656
X40940Y41656
X40940Y44196
X40940Y46736
X40940Y49276
X40940Y51816
X40940Y54356
X40940Y56896
X40940Y59436
X40940Y61976
X40940Y64516
X40940Y67056
X40940Y69596
X45420Y69596
X45420Y67056
X45420Y64516
X45420Y61976
X45420Y59436
X45420Y56896
X45420Y54356
X45420Y51816
X45420Y49276
X45420Y46736
X45420Y44196
X45420Y41656
X63800Y41656
X63800Y44196
X63800Y46736
X63800Y49276
X63800Y51816
X63800Y54356
X63800Y56896
X63800Y59436
X63800Y61976
X63800Y64516
X63800Y67056
X63800Y69596
T2
X46990Y29210
X46990Y11430
X46990Y6350
X46990Y8890
X46990Y3810
X46990Y1270
X62230Y13970
X62230Y11430
X62230Y16510
X62230Y6350
X62230Y3810
X62230Y8890
X62230Y1270
X62230Y19050
X62230Y24130
X62230Y21590
X62230Y26670
X62230Y29210
X46990Y21590
X1270Y56896
X1270Y59436
X1270Y54356
X1270Y64516
X1270Y67056
X1270Y61976
X1270Y69596
X1270Y51816
X1270Y46736
X1270Y49276
X1270Y44196
X1270Y41656
X16510Y54356
X16510Y51816
X16510Y56896
X16510Y46736
X16510Y44196
X16510Y49276
X16510Y41656
X16510Y59436
X16510Y64516
X16510Y61976
X16510Y67056
X16510Y69596
X1270Y16510
X1270Y19050
X1270Y13970
X1270Y24130
X1270Y26670
X24130Y56896
X24130Y59436
X24130Y54356
X24130Y64516
X24130Y67056
X24130Y61976
X24130Y69596
X24130Y51816
X24130Y46736
X24130Y49276
X24130Y44196
X24130Y41656
X1270Y21590
X1270Y29210
X1270Y11430
X1270Y6350
X1270Y8890
X1270Y3810
X1270Y1270
X16510Y13970
X16510Y11430
X16510Y16510
X16510Y3810
X16510Y8890
X39370Y54356
X39370Y51816
X39370Y56896
X39370Y46736
X39370Y44196
X39370Y49276
X39370Y41656
X39370Y59436
X39370Y64516
X39370Y61976
X39370Y67056
X39370Y69596
X16510Y1270
X16510Y19050
X16510Y24130
X16510Y21590
X16510Y26670
X16510Y29210
X24130Y16510
X24130Y19050
X24130Y13970
X24130Y24130
X24130Y26670
X24130Y21590
X46990Y56896
X46990Y59436
X46990Y54356
X46990Y64516
X46990Y67056
X46990Y61976
X46990Y69596
X46990Y51816
X46990Y46736
X46990Y49276
X46990Y44196
X46990Y41656
X24130Y29210
X24130Y11430
X24130Y6350
X24130Y8890
X24130Y3810
X24130Y1270
X16510Y6350
X39370Y13970
X39370Y11430
X39370Y16510
X39370Y6350
X39370Y3810
X62230Y54356
X62230Y51816
X62230Y56896
X62230Y46736
X62230Y44196
X62230Y49276
X62230Y41656
X62230Y59436
X62230Y64516
X62230Y61976
X62230Y67056
X62230Y69596
X39370Y8890
X39370Y1270
X39370Y19050
X39370Y24130
X39370Y21590
X39370Y26670
X39370Y29210
X46990Y16510
X46990Y19050
X46990Y13970
X46990Y24130
X46990Y26670
T3
X34640Y68501
X51720Y68501
X57500Y68501
X28860Y68501
X11780Y68501
X51720Y28115
X57500Y28115
X28860Y28115
X34640Y28115
X6000Y28115
X11780Y28115
X6000Y68501
T4
X4572Y31765
X13208Y31765
X36068Y72151
X27432Y72151
X27432Y67971
X36068Y67971
X13208Y27585
X4572Y27585
X13208Y72151
X4572Y72151
X4572Y67971
X13208Y67971
X36068Y27585
X27432Y27585
X58928Y31765
X50292Y31765
X50292Y27585
X58928Y27585
X27432Y31765
X36068Y31765
X58928Y72151
X50292Y72151
X50292Y67971
X58928Y67971
T5
X55001Y22774
X52070Y10141
X53035Y9017
X54610Y13970
X58801Y11303
X58356Y14859
X56210Y15494
X50165Y24638
X59182Y17018
X56007Y8890
X56947Y4445
X59563Y22428
X55499Y8890
X54991Y8890
X58801Y10160
X50292Y9779
X50292Y9325
X52197Y11049
X52197Y10595
X60071Y8295
X57023Y8890
X57785Y3937
X56537Y8890
X57379Y3302
X53445Y14087
X53467Y18542
X52984Y13887
X53086Y17399
X53975Y13970
X53975Y19939
X53848Y8763
X50292Y8458
X55572Y13843
X59436Y23368
X55118Y13843
X58928Y23368
X52070Y12065
X54356Y9017
X57150Y11684
X56642Y14097
X52019Y14122
X50038Y19939
X52451Y13894
X50419Y18669
X58928Y25654
X53975Y27940
X59436Y25654
X54483Y27940
X48641Y3302
X50800Y21844
X60720Y28500
X58801Y10617
X62865Y30861
X49212Y31940
X8890Y64897
X4191Y56261
X5715Y56515
X9322Y56032
X12001Y56261
X14922Y63119
X12700Y62484
X12446Y68961
X5334Y69088
X3429Y70104
X6985Y69977
X13995Y71501
X3556Y58420
X7798Y49581
X10414Y47625
X6985Y47625
X6833Y44425
X4623Y44069
X4572Y41783
X14935Y44094
X13970Y41656
X13970Y46228
X3302Y51562
X7620Y50546
X7620Y53086
X10160Y53086
X8890Y50546
X7620Y51816
X10160Y51816
X8890Y53086
X3683Y48768
X14732Y52832
X10160Y50546
X11379Y55905
X14605Y50165
X14211Y55245
X11328Y54280
X4826Y61722
X14592Y57658
X12700Y48514
X7112Y41275
X10668Y41275
X6223Y53975
X6223Y49276
X11557Y49784
X8484Y53950
X6223Y51918
X5588Y55118
X7620Y60198
X7188Y58750
X5080Y65024
X14199Y72898
X12395Y72923
X5359Y72923
X3708Y72923
X4978Y66700
X12675Y66065
X14199Y63779
X14199Y68326
X8890Y63475
X12573Y57023
X13500Y57937
X9919Y60401
X8191Y64681
X10160Y68326
X14224Y68834
X7239Y68199
X6223Y69723
X11150Y68987
X13081Y47879
X8026Y44425
X4699Y54610
X9281Y63160
X6350Y50527
X7315Y49403
X8890Y54356
X13081Y51689
X12636Y55245
X10490Y55880
X4445Y65024
X13462Y57404
X10287Y49276
X11227Y44831
X13843Y62814
X9779Y49276
X9271Y49276
X13081Y50546
X4572Y50165
X4572Y49711
X6477Y51435
X6477Y50981
X14351Y48681
X11303Y49276
X12065Y44323
X10817Y49276
X11659Y43688
X7725Y54473
X7747Y58928
X7264Y54273
X7366Y57785
X8255Y54356
X8255Y60325
X8128Y49149
X4572Y48844
X9852Y54229
X13716Y63754
X9398Y54229
X13208Y63754
X6350Y52451
X8636Y49403
X11430Y52070
X10922Y54483
X6299Y54508
X4318Y60325
X6731Y54280
X4699Y59055
X13208Y66040
X8255Y68326
X13716Y66040
X8763Y68326
X2921Y43688
X5080Y62230
X15000Y68886
X13081Y51003
X17145Y71247
X3492Y72327
X31750Y64897
X27051Y56261
X28575Y56515
X32182Y56032
X34862Y56261
X37783Y63119
X35560Y62484
X35306Y68961
X28194Y69088
X26289Y70104
X29845Y69977
X36855Y71501
X26416Y58420
X30658Y49581
X33274Y47625
X29845Y47625
X29693Y44425
X27483Y44069
X27432Y41783
X37795Y44094
X36830Y41656
X36830Y46228
X26162Y51562
X30480Y50546
X30480Y53086
X33020Y53086
X31750Y50546
X30480Y51816
X33020Y51816
X31750Y53086
X26543Y48768
X37592Y52832
X33020Y50546
X34239Y55905
X37465Y50165
X37071Y55245
X26289Y29718
X27686Y61722
X37452Y57658
X35560Y48514
X29972Y41275
X33528Y41275
X29083Y53975
X29083Y49276
X34417Y49784
X31344Y53950
X29083Y51918
X28448Y55118
X30480Y60198
X30048Y58750
X27940Y65024
X37059Y72898
X35255Y72923
X28219Y72923
X26568Y72923
X27838Y66700
X35535Y66065
X37059Y63779
X37059Y68326
X31750Y63475
X35433Y57023
X36360Y57937
X32779Y60401
X31051Y64681
X33020Y68326
X37084Y68834
X30099Y68199
X29083Y69723
X34010Y68987
X35941Y47879
X30886Y44425
X27559Y54610
X32141Y63160
X29210Y50527
X30175Y49403
X31750Y54356
X35941Y51689
X35497Y55245
X33350Y55880
X27305Y65024
X36322Y57404
X33147Y49276
X34087Y44831
X36703Y62814
X32639Y49276
X32131Y49276
X35941Y50546
X27432Y50165
X27432Y49711
X29337Y51435
X29337Y50981
X37211Y48681
X34163Y49276
X34925Y44323
X33677Y49276
X34519Y43688
X30585Y54473
X30607Y58928
X30124Y54273
X30226Y57785
X31115Y54356
X31115Y60325
X30988Y49149
X27432Y48844
X32712Y54229
X36576Y63754
X32258Y54229
X36068Y63754
X29210Y52451
X31496Y49403
X34290Y52070
X33782Y54483
X29159Y54508
X27178Y60325
X29591Y54280
X27559Y59055
X36068Y66040
X31115Y68326
X36576Y66040
X31623Y68326
X25781Y43688
X27940Y62230
X37860Y68886
X35941Y51003
X40005Y71247
X26352Y72327
X54610Y64897
X49911Y56261
X51435Y56515
X55042Y56032
X57721Y56261
X60642Y63119
X58420Y62484
X58166Y68961
X51054Y69088
X49149Y70104
X52705Y69977
X59715Y71501
X49276Y58420
X53518Y49581
X56134Y47625
X52705Y47625
X52553Y44425
X50343Y44069
X50292Y41783
X60655Y44094
X59690Y41656
X59690Y46228
X49022Y51562
X53340Y50546
X53340Y53086
X55880Y53086
X54610Y50546
X53340Y51816
X55880Y51816
X54610Y53086
X49403Y48768
X60452Y52832
X55880Y50546
X57099Y55905
X60325Y50165
X59931Y55245
X57048Y54280
X50546Y61722
X60312Y57658
X58420Y48514
X52832Y41275
X56388Y41275
X51943Y53975
X51943Y49276
X57277Y49784
X54204Y53950
X51943Y51918
X51308Y55118
X53340Y60198
X52908Y58750
X50800Y65024
X59919Y72898
X58115Y72923
X51079Y72923
X49428Y72923
X50698Y66700
X58395Y66065
X59919Y63779
X59919Y68326
X54610Y63475
X58293Y57023
X59220Y57937
X55639Y60401
X53911Y64681
X55880Y68326
X59944Y68834
X52959Y68199
X51943Y69723
X56870Y68987
X58801Y47879
X53746Y44425
X50419Y54610
X55001Y63160
X52070Y50527
X53035Y49403
X54610Y54356
X58801Y51689
X58356Y55245
X56210Y55880
X50165Y65024
X59182Y57404
X56007Y49276
X56947Y44831
X59563Y62814
X55499Y49276
X54991Y49276
X58801Y50546
X50292Y50165
X50292Y49711
X52197Y51435
X52197Y50981
X60071Y48681
X57023Y49276
X57785Y44323
X56537Y49276
X57379Y43688
X53445Y54473
X53467Y58928
X52984Y54273
X53086Y57785
X53975Y54356
X53975Y60325
X53848Y49149
X50292Y48844
X55572Y54229
X59436Y63754
X55118Y54229
X58928Y63754
X52070Y52451
X54356Y49403
X57150Y52070
X56642Y54483
X52019Y54508
X50038Y60325
X52451Y54280
X50419Y59055
X58928Y66040
X53975Y68326
X59436Y66040
X54483Y68326
X48641Y43688
X50800Y62230
X60720Y68886
X58801Y51003
X62865Y71247
X49212Y72327
X8890Y24511
X4191Y15875
X5715Y16129
X9322Y15646
X12001Y15875
X14922Y22733
X12700Y22098
X12446Y28575
X5334Y28702
X3429Y29718
X6985Y29591
X13995Y31115
X3556Y18034
X7798Y9195
X10414Y7239
X6985Y7239
X6833Y4039
X4623Y3683
X4572Y1397
X14935Y3708
X13970Y1270
X13970Y5842
X3302Y11176
X7620Y10160
X7620Y12700
X10160Y12700
X8890Y10160
X7620Y11430
X10160Y11430
X8890Y12700
X3683Y8382
X14732Y12446
X10160Y10160
X11379Y15519
X14605Y9779
X14211Y14859
X11328Y13894
X4826Y21336
X14592Y17272
X12700Y8128
X7112Y889
X10668Y889
X6223Y13589
X6223Y8890
X11557Y9398
X8484Y13564
X6223Y11532
X5588Y14732
X7620Y19812
X7188Y18364
X5080Y24638
X14199Y32512
X12395Y32537
X5359Y32537
X3708Y32537
X4978Y26314
X12675Y25679
X14199Y23393
X14199Y27940
X8890Y23089
X12573Y16637
X13500Y17551
X9919Y20015
X8191Y24295
X10160Y27940
X14224Y28448
X7239Y27813
X6223Y29337
X11150Y28601
X13081Y7493
X8026Y4039
X4699Y14224
X9281Y22774
X6350Y10141
X7315Y9017
X8890Y13970
X13081Y11303
X12636Y14859
X10490Y15494
X4445Y24638
X13462Y17018
X10287Y8890
X11227Y4445
X13843Y22428
X9779Y8890
X9271Y8890
X13081Y10160
X4572Y9779
X4572Y9325
X6477Y11049
X6477Y10595
X14351Y8295
X11303Y8890
X12065Y3937
X10817Y8890
X11659Y3302
X7725Y14087
X7747Y18542
X7264Y13887
X7366Y17399
X8255Y13970
X8255Y19939
X8128Y8763
X4572Y8458
X9852Y13843
X13716Y23368
X9398Y13843
X13208Y23368
X6350Y12065
X8636Y9017
X11430Y11684
X10922Y14097
X6299Y14122
X4318Y19939
X6731Y13894
X4699Y18669
X13208Y25654
X8255Y27940
X13716Y25654
X8763Y27940
X2921Y3302
X5080Y21844
X15000Y28500
X13081Y10617
X17145Y30861
X3492Y31940
X31750Y24511
X27051Y15875
X28575Y16129
X32182Y15646
X34862Y15875
X37783Y22733
X35560Y22098
X35306Y28575
X28194Y28702
X29845Y29591
X36855Y31115
X26416Y18034
X30658Y9195
X33274Y7239
X29845Y7239
X29693Y4039
X27483Y3683
X27432Y1397
X37795Y3708
X36830Y1270
X36830Y5842
X26162Y11176
X30480Y10160
X30480Y12700
X33020Y12700
X31750Y10160
X30480Y11430
X33020Y11430
X31750Y12700
X26543Y8382
X37592Y12446
X33020Y10160
X34239Y15519
X37465Y9779
X37071Y14859
X34188Y13894
X27686Y21336
X37452Y17272
X35560Y8128
X29972Y889
X33528Y889
X29083Y13589
X29083Y8890
X34417Y9398
X31344Y13564
X29083Y11532
X28448Y14732
X30480Y19812
X30048Y18364
X27940Y24638
X37059Y32512
X35255Y32537
X28219Y32537
X26568Y32537
X27838Y26314
X35535Y25679
X37059Y23393
X37059Y27940
X31750Y23089
X35433Y16637
X36360Y17551
X32779Y20015
X34188Y54280
X31051Y24295
X33020Y27940
X37084Y28448
X30099Y27813
X29083Y29337
X34010Y28601
X35941Y7493
X30886Y4039
X27559Y14224
X32141Y22774
X29210Y10141
X30175Y9017
X31750Y13970
X35941Y11303
X35497Y14859
X33350Y15494
X27305Y24638
X36322Y17018
X33147Y8890
X34087Y4445
X36703Y22428
X32639Y8890
X32131Y8890
X35941Y10160
X27432Y9779
X27432Y9325
X29337Y11049
X29337Y10595
X37211Y8295
X34163Y8890
X34925Y3937
X33677Y8890
X34519Y3302
X30585Y14087
X30607Y18542
X30124Y13887
X30226Y17399
X31115Y13970
X31115Y19939
X30988Y8763
X27432Y8458
X32712Y13843
X36576Y23368
X32258Y13843
X36068Y23368
X29210Y12065
X31496Y9017
X34290Y11684
X33782Y14097
X29159Y14122
X27178Y19939
X29591Y13894
X27559Y18669
X36068Y25654
X31115Y27940
X36576Y25654
X31623Y27940
X25781Y3302
X27940Y21844
X37860Y28500
X35941Y10617
X40005Y30861
X26352Y31940
X54610Y24511
X49911Y15875
X51435Y16129
X55042Y15646
X57721Y15875
X60642Y22733
X58420Y22098
X58166Y28575
X51054Y28702
X49149Y29718
X52705Y29591
X59715Y31115
X49276Y18034
X53518Y9195
X56134Y7239
X52705Y7239
X52553Y4039
X50343Y3683
X50292Y1397
X60655Y3708
X59690Y1270
X59690Y5842
X49022Y11176
X53340Y10160
X53340Y12700
X55880Y12700
X54610Y10160
X53340Y11430
X55880Y11430
X54610Y12700
X49403Y8382
X60452Y12446
X55880Y10160
X57099Y15519
X60325Y9779
X59931Y14859
X57048Y13894
X50546Y21336
X60312Y17272
X58420Y8128
X52832Y889
X56388Y889
X51943Y13589
X51943Y8890
X57277Y9398
X54204Y13564
X51943Y11532
X51308Y14732
X53340Y19812
X52908Y18364
X50800Y24638
X59919Y32512
X58115Y32537
X51079Y32537
X49428Y32537
X50698Y26314
X58395Y25679
X59919Y23393
X59919Y27940
X54610Y23089
X58293Y16637
X59220Y17551
X55639Y20015
X53911Y24295
X55880Y27940
X59944Y28448
X52959Y27813
X51943Y29337
X56870Y28601
X58801Y7493
X53746Y4039
X50419Y14224
M30