G04 EAGLE Gerber RS-274X export*
G75*
%MOMM*%
%FSLAX34Y34*%
%LPD*%
%INSolderpaste Bottom*%
%IPPOS*%
%AMOC8*
5,1,8,0,0,1.08239X$1,22.5*%
G01*
%ADD10R,1.200000X0.800000*%
%ADD11R,0.630000X0.830000*%
%ADD12R,0.550000X1.200000*%
%ADD13R,0.600000X0.600000*%
%ADD14R,0.200000X0.300000*%
%ADD15R,1.200000X0.200000*%


D10*
X44450Y256650D03*
X44450Y238650D03*
D11*
X82620Y246380D03*
X59620Y246380D03*
D12*
X97180Y241601D03*
X106680Y241601D03*
X116180Y241601D03*
X116180Y215599D03*
X97180Y215599D03*
D13*
X82550Y222330D03*
X82550Y232330D03*
X112950Y203200D03*
X102950Y203200D03*
X102950Y190500D03*
X112950Y190500D03*
D14*
X71000Y190700D03*
X66000Y190700D03*
X61000Y190700D03*
X56000Y190700D03*
X56000Y215700D03*
X61000Y215700D03*
X66000Y215700D03*
X71000Y215700D03*
D15*
X63500Y203200D03*
D13*
X68500Y177800D03*
X58500Y177800D03*
X68500Y228600D03*
X58500Y228600D03*
D10*
X273050Y256650D03*
X273050Y238650D03*
D11*
X311220Y246380D03*
X288220Y246380D03*
D12*
X325780Y241601D03*
X335280Y241601D03*
X344780Y241601D03*
X344780Y215599D03*
X325780Y215599D03*
D13*
X311150Y222330D03*
X311150Y232330D03*
X341550Y203200D03*
X331550Y203200D03*
X331550Y190500D03*
X341550Y190500D03*
D14*
X299600Y190700D03*
X294600Y190700D03*
X289600Y190700D03*
X284600Y190700D03*
X284600Y215700D03*
X289600Y215700D03*
X294600Y215700D03*
X299600Y215700D03*
D15*
X292100Y203200D03*
D13*
X297100Y177800D03*
X287100Y177800D03*
X297100Y228600D03*
X287100Y228600D03*
D10*
X501650Y256650D03*
X501650Y238650D03*
D11*
X539820Y246380D03*
X516820Y246380D03*
D12*
X554380Y241601D03*
X563880Y241601D03*
X573380Y241601D03*
X573380Y215599D03*
X554380Y215599D03*
D13*
X539750Y222330D03*
X539750Y232330D03*
X570150Y203200D03*
X560150Y203200D03*
X560150Y190500D03*
X570150Y190500D03*
D14*
X528200Y190700D03*
X523200Y190700D03*
X518200Y190700D03*
X513200Y190700D03*
X513200Y215700D03*
X518200Y215700D03*
X523200Y215700D03*
X528200Y215700D03*
D15*
X520700Y203200D03*
D13*
X525700Y177800D03*
X515700Y177800D03*
X525700Y228600D03*
X515700Y228600D03*
D10*
X730250Y256650D03*
X730250Y238650D03*
D11*
X768420Y246380D03*
X745420Y246380D03*
D12*
X782980Y241601D03*
X792480Y241601D03*
X801980Y241601D03*
X801980Y215599D03*
X782980Y215599D03*
D13*
X768350Y222330D03*
X768350Y232330D03*
X798750Y203200D03*
X788750Y203200D03*
X788750Y190500D03*
X798750Y190500D03*
D14*
X756800Y190700D03*
X751800Y190700D03*
X746800Y190700D03*
X741800Y190700D03*
X741800Y215700D03*
X746800Y215700D03*
X751800Y215700D03*
X756800Y215700D03*
D15*
X749300Y203200D03*
D13*
X754300Y177800D03*
X744300Y177800D03*
X754300Y228600D03*
X744300Y228600D03*
D10*
X958850Y256650D03*
X958850Y238650D03*
D11*
X997020Y246380D03*
X974020Y246380D03*
D12*
X1011580Y241601D03*
X1021080Y241601D03*
X1030580Y241601D03*
X1030580Y215599D03*
X1011580Y215599D03*
D13*
X996950Y222330D03*
X996950Y232330D03*
X1027350Y203200D03*
X1017350Y203200D03*
X1017350Y190500D03*
X1027350Y190500D03*
D14*
X985400Y190700D03*
X980400Y190700D03*
X975400Y190700D03*
X970400Y190700D03*
X970400Y215700D03*
X975400Y215700D03*
X980400Y215700D03*
X985400Y215700D03*
D15*
X977900Y203200D03*
D13*
X982900Y177800D03*
X972900Y177800D03*
X982900Y228600D03*
X972900Y228600D03*
D10*
X1187450Y256650D03*
X1187450Y238650D03*
D11*
X1225620Y246380D03*
X1202620Y246380D03*
D12*
X1240180Y241601D03*
X1249680Y241601D03*
X1259180Y241601D03*
X1259180Y215599D03*
X1240180Y215599D03*
D13*
X1225550Y222330D03*
X1225550Y232330D03*
X1255950Y203200D03*
X1245950Y203200D03*
X1245950Y190500D03*
X1255950Y190500D03*
D14*
X1214000Y190700D03*
X1209000Y190700D03*
X1204000Y190700D03*
X1199000Y190700D03*
X1199000Y215700D03*
X1204000Y215700D03*
X1209000Y215700D03*
X1214000Y215700D03*
D15*
X1206500Y203200D03*
D13*
X1211500Y177800D03*
X1201500Y177800D03*
X1211500Y228600D03*
X1201500Y228600D03*
D10*
X1416050Y256650D03*
X1416050Y238650D03*
D11*
X1454220Y246380D03*
X1431220Y246380D03*
D12*
X1468780Y241601D03*
X1478280Y241601D03*
X1487780Y241601D03*
X1487780Y215599D03*
X1468780Y215599D03*
D13*
X1454150Y222330D03*
X1454150Y232330D03*
X1484550Y203200D03*
X1474550Y203200D03*
X1474550Y190500D03*
X1484550Y190500D03*
D14*
X1442600Y190700D03*
X1437600Y190700D03*
X1432600Y190700D03*
X1427600Y190700D03*
X1427600Y215700D03*
X1432600Y215700D03*
X1437600Y215700D03*
X1442600Y215700D03*
D15*
X1435100Y203200D03*
D13*
X1440100Y177800D03*
X1430100Y177800D03*
X1440100Y228600D03*
X1430100Y228600D03*
D10*
X1644650Y256650D03*
X1644650Y238650D03*
D11*
X1682820Y246380D03*
X1659820Y246380D03*
D12*
X1697380Y241601D03*
X1706880Y241601D03*
X1716380Y241601D03*
X1716380Y215599D03*
X1697380Y215599D03*
D13*
X1682750Y222330D03*
X1682750Y232330D03*
X1713150Y203200D03*
X1703150Y203200D03*
X1703150Y190500D03*
X1713150Y190500D03*
D14*
X1671200Y190700D03*
X1666200Y190700D03*
X1661200Y190700D03*
X1656200Y190700D03*
X1656200Y215700D03*
X1661200Y215700D03*
X1666200Y215700D03*
X1671200Y215700D03*
D15*
X1663700Y203200D03*
D13*
X1668700Y177800D03*
X1658700Y177800D03*
X1668700Y228600D03*
X1658700Y228600D03*
D10*
X44450Y650350D03*
X44450Y632350D03*
D11*
X82620Y640080D03*
X59620Y640080D03*
D12*
X97180Y635301D03*
X106680Y635301D03*
X116180Y635301D03*
X116180Y609299D03*
X97180Y609299D03*
D13*
X82550Y616030D03*
X82550Y626030D03*
X112950Y596900D03*
X102950Y596900D03*
X102950Y584200D03*
X112950Y584200D03*
D14*
X71000Y584400D03*
X66000Y584400D03*
X61000Y584400D03*
X56000Y584400D03*
X56000Y609400D03*
X61000Y609400D03*
X66000Y609400D03*
X71000Y609400D03*
D15*
X63500Y596900D03*
D13*
X68500Y571500D03*
X58500Y571500D03*
X68500Y622300D03*
X58500Y622300D03*
D10*
X273050Y650350D03*
X273050Y632350D03*
D11*
X311220Y640080D03*
X288220Y640080D03*
D12*
X325780Y635301D03*
X335280Y635301D03*
X344780Y635301D03*
X344780Y609299D03*
X325780Y609299D03*
D13*
X311150Y616030D03*
X311150Y626030D03*
X341550Y596900D03*
X331550Y596900D03*
X331550Y584200D03*
X341550Y584200D03*
D14*
X299600Y584400D03*
X294600Y584400D03*
X289600Y584400D03*
X284600Y584400D03*
X284600Y609400D03*
X289600Y609400D03*
X294600Y609400D03*
X299600Y609400D03*
D15*
X292100Y596900D03*
D13*
X297100Y571500D03*
X287100Y571500D03*
X297100Y622300D03*
X287100Y622300D03*
D10*
X501650Y650350D03*
X501650Y632350D03*
D11*
X539820Y640080D03*
X516820Y640080D03*
D12*
X554380Y635301D03*
X563880Y635301D03*
X573380Y635301D03*
X573380Y609299D03*
X554380Y609299D03*
D13*
X539750Y616030D03*
X539750Y626030D03*
X570150Y596900D03*
X560150Y596900D03*
X560150Y584200D03*
X570150Y584200D03*
D14*
X528200Y584400D03*
X523200Y584400D03*
X518200Y584400D03*
X513200Y584400D03*
X513200Y609400D03*
X518200Y609400D03*
X523200Y609400D03*
X528200Y609400D03*
D15*
X520700Y596900D03*
D13*
X525700Y571500D03*
X515700Y571500D03*
X525700Y622300D03*
X515700Y622300D03*
D10*
X730250Y650350D03*
X730250Y632350D03*
D11*
X768420Y640080D03*
X745420Y640080D03*
D12*
X782980Y635301D03*
X792480Y635301D03*
X801980Y635301D03*
X801980Y609299D03*
X782980Y609299D03*
D13*
X768350Y616030D03*
X768350Y626030D03*
X798750Y596900D03*
X788750Y596900D03*
X788750Y584200D03*
X798750Y584200D03*
D14*
X756800Y584400D03*
X751800Y584400D03*
X746800Y584400D03*
X741800Y584400D03*
X741800Y609400D03*
X746800Y609400D03*
X751800Y609400D03*
X756800Y609400D03*
D15*
X749300Y596900D03*
D13*
X754300Y571500D03*
X744300Y571500D03*
X754300Y622300D03*
X744300Y622300D03*
D10*
X958850Y650350D03*
X958850Y632350D03*
D11*
X997020Y640080D03*
X974020Y640080D03*
D12*
X1011580Y635301D03*
X1021080Y635301D03*
X1030580Y635301D03*
X1030580Y609299D03*
X1011580Y609299D03*
D13*
X996950Y616030D03*
X996950Y626030D03*
X1027350Y596900D03*
X1017350Y596900D03*
X1017350Y584200D03*
X1027350Y584200D03*
D14*
X985400Y584400D03*
X980400Y584400D03*
X975400Y584400D03*
X970400Y584400D03*
X970400Y609400D03*
X975400Y609400D03*
X980400Y609400D03*
X985400Y609400D03*
D15*
X977900Y596900D03*
D13*
X982900Y571500D03*
X972900Y571500D03*
X982900Y622300D03*
X972900Y622300D03*
D10*
X1187450Y650350D03*
X1187450Y632350D03*
D11*
X1225620Y640080D03*
X1202620Y640080D03*
D12*
X1240180Y635301D03*
X1249680Y635301D03*
X1259180Y635301D03*
X1259180Y609299D03*
X1240180Y609299D03*
D13*
X1225550Y616030D03*
X1225550Y626030D03*
X1255950Y596900D03*
X1245950Y596900D03*
X1245950Y584200D03*
X1255950Y584200D03*
D14*
X1214000Y584400D03*
X1209000Y584400D03*
X1204000Y584400D03*
X1199000Y584400D03*
X1199000Y609400D03*
X1204000Y609400D03*
X1209000Y609400D03*
X1214000Y609400D03*
D15*
X1206500Y596900D03*
D13*
X1211500Y571500D03*
X1201500Y571500D03*
X1211500Y622300D03*
X1201500Y622300D03*
D10*
X1416050Y650350D03*
X1416050Y632350D03*
D11*
X1454220Y640080D03*
X1431220Y640080D03*
D12*
X1468780Y635301D03*
X1478280Y635301D03*
X1487780Y635301D03*
X1487780Y609299D03*
X1468780Y609299D03*
D13*
X1454150Y616030D03*
X1454150Y626030D03*
X1484550Y596900D03*
X1474550Y596900D03*
X1474550Y584200D03*
X1484550Y584200D03*
D14*
X1442600Y584400D03*
X1437600Y584400D03*
X1432600Y584400D03*
X1427600Y584400D03*
X1427600Y609400D03*
X1432600Y609400D03*
X1437600Y609400D03*
X1442600Y609400D03*
D15*
X1435100Y596900D03*
D13*
X1440100Y571500D03*
X1430100Y571500D03*
X1440100Y622300D03*
X1430100Y622300D03*
D10*
X1644650Y650350D03*
X1644650Y632350D03*
D11*
X1682820Y640080D03*
X1659820Y640080D03*
D12*
X1697380Y635301D03*
X1706880Y635301D03*
X1716380Y635301D03*
X1716380Y609299D03*
X1697380Y609299D03*
D13*
X1682750Y616030D03*
X1682750Y626030D03*
X1713150Y596900D03*
X1703150Y596900D03*
X1703150Y584200D03*
X1713150Y584200D03*
D14*
X1671200Y584400D03*
X1666200Y584400D03*
X1661200Y584400D03*
X1656200Y584400D03*
X1656200Y609400D03*
X1661200Y609400D03*
X1666200Y609400D03*
X1671200Y609400D03*
D15*
X1663700Y596900D03*
D13*
X1668700Y571500D03*
X1658700Y571500D03*
X1668700Y622300D03*
X1658700Y622300D03*
D10*
X44450Y1044050D03*
X44450Y1026050D03*
D11*
X82620Y1033780D03*
X59620Y1033780D03*
D12*
X97180Y1029001D03*
X106680Y1029001D03*
X116180Y1029001D03*
X116180Y1002999D03*
X97180Y1002999D03*
D13*
X82550Y1009730D03*
X82550Y1019730D03*
X112950Y990600D03*
X102950Y990600D03*
X102950Y977900D03*
X112950Y977900D03*
D14*
X71000Y978100D03*
X66000Y978100D03*
X61000Y978100D03*
X56000Y978100D03*
X56000Y1003100D03*
X61000Y1003100D03*
X66000Y1003100D03*
X71000Y1003100D03*
D15*
X63500Y990600D03*
D13*
X68500Y965200D03*
X58500Y965200D03*
X68500Y1016000D03*
X58500Y1016000D03*
D10*
X273050Y1044050D03*
X273050Y1026050D03*
D11*
X311220Y1033780D03*
X288220Y1033780D03*
D12*
X325780Y1029001D03*
X335280Y1029001D03*
X344780Y1029001D03*
X344780Y1002999D03*
X325780Y1002999D03*
D13*
X311150Y1009730D03*
X311150Y1019730D03*
X341550Y990600D03*
X331550Y990600D03*
X331550Y977900D03*
X341550Y977900D03*
D14*
X299600Y978100D03*
X294600Y978100D03*
X289600Y978100D03*
X284600Y978100D03*
X284600Y1003100D03*
X289600Y1003100D03*
X294600Y1003100D03*
X299600Y1003100D03*
D15*
X292100Y990600D03*
D13*
X297100Y965200D03*
X287100Y965200D03*
X297100Y1016000D03*
X287100Y1016000D03*
D10*
X501650Y1044050D03*
X501650Y1026050D03*
D11*
X539820Y1033780D03*
X516820Y1033780D03*
D12*
X554380Y1029001D03*
X563880Y1029001D03*
X573380Y1029001D03*
X573380Y1002999D03*
X554380Y1002999D03*
D13*
X539750Y1009730D03*
X539750Y1019730D03*
X570150Y990600D03*
X560150Y990600D03*
X560150Y977900D03*
X570150Y977900D03*
D14*
X528200Y978100D03*
X523200Y978100D03*
X518200Y978100D03*
X513200Y978100D03*
X513200Y1003100D03*
X518200Y1003100D03*
X523200Y1003100D03*
X528200Y1003100D03*
D15*
X520700Y990600D03*
D13*
X525700Y965200D03*
X515700Y965200D03*
X525700Y1016000D03*
X515700Y1016000D03*
D10*
X730250Y1044050D03*
X730250Y1026050D03*
D11*
X768420Y1033780D03*
X745420Y1033780D03*
D12*
X782980Y1029001D03*
X792480Y1029001D03*
X801980Y1029001D03*
X801980Y1002999D03*
X782980Y1002999D03*
D13*
X768350Y1009730D03*
X768350Y1019730D03*
X798750Y990600D03*
X788750Y990600D03*
X788750Y977900D03*
X798750Y977900D03*
D14*
X756800Y978100D03*
X751800Y978100D03*
X746800Y978100D03*
X741800Y978100D03*
X741800Y1003100D03*
X746800Y1003100D03*
X751800Y1003100D03*
X756800Y1003100D03*
D15*
X749300Y990600D03*
D13*
X754300Y965200D03*
X744300Y965200D03*
X754300Y1016000D03*
X744300Y1016000D03*
D10*
X958850Y1044050D03*
X958850Y1026050D03*
D11*
X997020Y1033780D03*
X974020Y1033780D03*
D12*
X1011580Y1029001D03*
X1021080Y1029001D03*
X1030580Y1029001D03*
X1030580Y1002999D03*
X1011580Y1002999D03*
D13*
X996950Y1009730D03*
X996950Y1019730D03*
X1027350Y990600D03*
X1017350Y990600D03*
X1017350Y977900D03*
X1027350Y977900D03*
D14*
X985400Y978100D03*
X980400Y978100D03*
X975400Y978100D03*
X970400Y978100D03*
X970400Y1003100D03*
X975400Y1003100D03*
X980400Y1003100D03*
X985400Y1003100D03*
D15*
X977900Y990600D03*
D13*
X982900Y965200D03*
X972900Y965200D03*
X982900Y1016000D03*
X972900Y1016000D03*
D10*
X1187450Y1044050D03*
X1187450Y1026050D03*
D11*
X1225620Y1033780D03*
X1202620Y1033780D03*
D12*
X1240180Y1029001D03*
X1249680Y1029001D03*
X1259180Y1029001D03*
X1259180Y1002999D03*
X1240180Y1002999D03*
D13*
X1225550Y1009730D03*
X1225550Y1019730D03*
X1255950Y990600D03*
X1245950Y990600D03*
X1245950Y977900D03*
X1255950Y977900D03*
D14*
X1214000Y978100D03*
X1209000Y978100D03*
X1204000Y978100D03*
X1199000Y978100D03*
X1199000Y1003100D03*
X1204000Y1003100D03*
X1209000Y1003100D03*
X1214000Y1003100D03*
D15*
X1206500Y990600D03*
D13*
X1211500Y965200D03*
X1201500Y965200D03*
X1211500Y1016000D03*
X1201500Y1016000D03*
D10*
X1416050Y1044050D03*
X1416050Y1026050D03*
D11*
X1454220Y1033780D03*
X1431220Y1033780D03*
D12*
X1468780Y1029001D03*
X1478280Y1029001D03*
X1487780Y1029001D03*
X1487780Y1002999D03*
X1468780Y1002999D03*
D13*
X1454150Y1009730D03*
X1454150Y1019730D03*
X1484550Y990600D03*
X1474550Y990600D03*
X1474550Y977900D03*
X1484550Y977900D03*
D14*
X1442600Y978100D03*
X1437600Y978100D03*
X1432600Y978100D03*
X1427600Y978100D03*
X1427600Y1003100D03*
X1432600Y1003100D03*
X1437600Y1003100D03*
X1442600Y1003100D03*
D15*
X1435100Y990600D03*
D13*
X1440100Y965200D03*
X1430100Y965200D03*
X1440100Y1016000D03*
X1430100Y1016000D03*
D10*
X1644650Y1044050D03*
X1644650Y1026050D03*
D11*
X1682820Y1033780D03*
X1659820Y1033780D03*
D12*
X1697380Y1029001D03*
X1706880Y1029001D03*
X1716380Y1029001D03*
X1716380Y1002999D03*
X1697380Y1002999D03*
D13*
X1682750Y1009730D03*
X1682750Y1019730D03*
X1713150Y990600D03*
X1703150Y990600D03*
X1703150Y977900D03*
X1713150Y977900D03*
D14*
X1671200Y978100D03*
X1666200Y978100D03*
X1661200Y978100D03*
X1656200Y978100D03*
X1656200Y1003100D03*
X1661200Y1003100D03*
X1666200Y1003100D03*
X1671200Y1003100D03*
D15*
X1663700Y990600D03*
D13*
X1668700Y965200D03*
X1658700Y965200D03*
X1668700Y1016000D03*
X1658700Y1016000D03*
M02*
